<svg version="1.1" viewBox="0.0 0.0 600.0 371.0" fill="none" stroke="none" stroke-linecap="square" stroke-miterlimit="10" width="600" height="371" xmlns:xlink="http://www.w3.org/1999/xlink" xmlns="http://www.w3.org/2000/svg"><path fill="#ffffff" d="M0 0L600.0 0L600.0 371.0L0 371.0L0 0Z" fill-rule="nonzero"/><path stroke="#333333" stroke-width="1.0" stroke-linecap="butt" d="M49.5 300.5L581.5 300.5" fill-rule="nonzero"/><path stroke="#45818e" stroke-width="1.0" stroke-linecap="butt" d="M49.5 238.5L581.5 238.5" fill-rule="nonzero"/><path stroke="#45818e" stroke-width="1.0" stroke-linecap="butt" d="M49.5 176.5L581.5 176.5" fill-rule="nonzero"/><path stroke="#45818e" stroke-width="1.0" stroke-linecap="butt" d="M49.5 114.5L581.5 114.5" fill-rule="nonzero"/><clipPath id="id_0"><path d="M49.55 51.916668L581.45 51.916668L581.45 300.45L49.55 300.45L49.55 51.916668Z" clip-rule="nonzero"/></clipPath><path stroke="#000000" stroke-width="0.0" stroke-linecap="butt" stroke-opacity="0.0" clip-path="url(#id_0)" d="M89.0 300.0L63.0 300.0L63.0 228.0L89.0 228.0Z" fill-rule="nonzero"/><path fill="#6aa84f" clip-path="url(#id_0)" d="M89.0 300.0L63.0 300.0L63.0 228.0L89.0 228.0Z" fill-rule="nonzero"/><path stroke="#000000" stroke-width="0.0" stroke-linecap="butt" stroke-opacity="0.0" clip-path="url(#id_0)" d="M129.0 300.0L103.0 300.0L103.0 247.0L129.0 247.0Z" fill-rule="nonzero"/><path fill="#6aa84f" clip-path="url(#id_0)" d="M129.0 300.0L103.0 300.0L103.0 247.0L129.0 247.0Z" fill-rule="nonzero"/><path stroke="#000000" stroke-width="0.0" stroke-linecap="butt" stroke-opacity="0.0" clip-path="url(#id_0)" d="M169.0 300.0L143.0 300.0L143.0 185.0L169.0 185.0Z" fill-rule="nonzero"/><path fill="#6aa84f" clip-path="url(#id_0)" d="M169.0 300.0L143.0 300.0L143.0 185.0L169.0 185.0Z" fill-rule="nonzero"/><path stroke="#000000" stroke-width="0.0" stroke-linecap="butt" stroke-opacity="0.0" clip-path="url(#id_0)" d="M209.0 300.0L183.0 300.0L183.0 245.0L209.0 245.0Z" fill-rule="nonzero"/><path fill="#6aa84f" clip-path="url(#id_0)" d="M209.0 300.0L183.0 300.0L183.0 245.0L209.0 245.0Z" fill-rule="nonzero"/><path stroke="#000000" stroke-width="0.0" stroke-linecap="butt" stroke-opacity="0.0" clip-path="url(#id_0)" d="M249.0 300.0L223.0 300.0L223.0 252.0L249.0 252.0Z" fill-rule="nonzero"/><path fill="#6aa84f" clip-path="url(#id_0)" d="M249.0 300.0L223.0 300.0L223.0 252.0L249.0 252.0Z" fill-rule="nonzero"/><path stroke="#000000" stroke-width="0.0" stroke-linecap="butt" stroke-opacity="0.0" clip-path="url(#id_0)" d="M289.0 300.0L263.0 300.0L263.0 247.0L289.0 247.0Z" fill-rule="nonzero"/><path fill="#6aa84f" clip-path="url(#id_0)" d="M289.0 300.0L263.0 300.0L263.0 247.0L289.0 247.0Z" fill-rule="nonzero"/><path stroke="#000000" stroke-width="0.0" stroke-linecap="butt" stroke-opacity="0.0" clip-path="url(#id_0)" d="M329.0 300.0L303.0 300.0L303.0 259.0L329.0 259.0Z" fill-rule="nonzero"/><path fill="#6aa84f" clip-path="url(#id_0)" d="M329.0 300.0L303.0 300.0L303.0 259.0L329.0 259.0Z" fill-rule="nonzero"/><path stroke="#000000" stroke-width="0.0" stroke-linecap="butt" stroke-opacity="0.0" clip-path="url(#id_0)" d="M368.0 300.0L342.0 300.0L342.0 196.0L368.0 196.0Z" fill-rule="nonzero"/><path fill="#6aa84f" clip-path="url(#id_0)" d="M368.0 300.0L342.0 300.0L342.0 196.0L368.0 196.0Z" fill-rule="nonzero"/><path stroke="#000000" stroke-width="0.0" stroke-linecap="butt" stroke-opacity="0.0" clip-path="url(#id_0)" d="M408.0 300.0L382.0 300.0L382.0 250.0L408.0 250.0Z" fill-rule="nonzero"/><path fill="#6aa84f" clip-path="url(#id_0)" d="M408.0 300.0L382.0 300.0L382.0 250.0L408.0 250.0Z" fill-rule="nonzero"/><path stroke="#000000" stroke-width="0.0" stroke-linecap="butt" stroke-opacity="0.0" clip-path="url(#id_0)" d="M448.0 300.0L422.0 300.0L422.0 182.0L448.0 182.0Z" fill-rule="nonzero"/><path fill="#6aa84f" clip-path="url(#id_0)" d="M448.0 300.0L422.0 300.0L422.0 182.0L448.0 182.0Z" fill-rule="nonzero"/><path stroke="#000000" stroke-width="0.0" stroke-linecap="butt" stroke-opacity="0.0" clip-path="url(#id_0)" d="M488.0 300.0L462.0 300.0L462.0 226.0L488.0 226.0Z" fill-rule="nonzero"/><path fill="#6aa84f" clip-path="url(#id_0)" d="M488.0 300.0L462.0 300.0L462.0 226.0L488.0 226.0Z" fill-rule="nonzero"/><path stroke="#000000" stroke-width="0.0" stroke-linecap="butt" stroke-opacity="0.0" clip-path="url(#id_0)" d="M528.0 300.0L502.0 300.0L502.0 126.0L528.0 126.0Z" fill-rule="nonzero"/><path fill="#6aa84f" clip-path="url(#id_0)" d="M528.0 300.0L502.0 300.0L502.0 126.0L528.0 126.0Z" fill-rule="nonzero"/><path stroke="#000000" stroke-width="0.0" stroke-linecap="butt" stroke-opacity="0.0" clip-path="url(#id_0)" d="M568.0 300.0L542.0 300.0L542.0 152.0L568.0 152.0Z" fill-rule="nonzero"/><path fill="#6aa84f" clip-path="url(#id_0)" d="M568.0 300.0L542.0 300.0L542.0 152.0L568.0 152.0Z" fill-rule="nonzero"/><path stroke="#000000" stroke-width="0.0" stroke-linecap="butt" stroke-opacity="0.0" clip-path="url(#id_0)" d="M89.0 228.0L63.0 228.0L63.0 54.0C63.0 52.89543 63.89543 52.0 65.0 52.0L87.0 52.0C88.10457 52.0 89.0 52.89543 89.0 54.0Z" fill-rule="nonzero"/><path fill="#f4cccc" clip-path="url(#id_0)" d="M89.0 228.0L63.0 228.0L63.0 54.0C63.0 52.89543 63.89543 52.0 65.0 52.0L87.0 52.0C88.10457 52.0 89.0 52.89543 89.0 54.0Z" fill-rule="nonzero"/><path stroke="#000000" stroke-width="0.0" stroke-linecap="butt" stroke-opacity="0.0" clip-path="url(#id_0)" d="M129.0 247.0L103.0 247.0L103.0 54.0C103.0 52.89543 103.89543 52.0 105.0 52.0L127.0 52.0C128.10457 52.0 129.0 52.89543 129.0 54.0Z" fill-rule="nonzero"/><path fill="#f4cccc" clip-path="url(#id_0)" d="M129.0 247.0L103.0 247.0L103.0 54.0C103.0 52.89543 103.89543 52.0 105.0 52.0L127.0 52.0C128.10457 52.0 129.0 52.89543 129.0 54.0Z" fill-rule="nonzero"/><path stroke="#000000" stroke-width="0.0" stroke-linecap="butt" stroke-opacity="0.0" clip-path="url(#id_0)" d="M169.0 185.0L143.0 185.0L143.0 54.0C143.0 52.89543 143.89543 52.0 145.0 52.0L167.0 52.0C168.10457 52.0 169.0 52.89543 169.0 54.0Z" fill-rule="nonzero"/><path fill="#f4cccc" clip-path="url(#id_0)" d="M169.0 185.0L143.0 185.0L143.0 54.0C143.0 52.89543 143.89543 52.0 145.0 52.0L167.0 52.0C168.10457 52.0 169.0 52.89543 169.0 54.0Z" fill-rule="nonzero"/><path stroke="#000000" stroke-width="0.0" stroke-linecap="butt" stroke-opacity="0.0" clip-path="url(#id_0)" d="M209.0 245.0L183.0 245.0L183.0 54.0C183.0 52.89543 183.89543 52.0 185.0 52.0L207.0 52.0C208.10457 52.0 209.0 52.89543 209.0 54.0Z" fill-rule="nonzero"/><path fill="#f4cccc" clip-path="url(#id_0)" d="M209.0 245.0L183.0 245.0L183.0 54.0C183.0 52.89543 183.89543 52.0 185.0 52.0L207.0 52.0C208.10457 52.0 209.0 52.89543 209.0 54.0Z" fill-rule="nonzero"/><path stroke="#000000" stroke-width="0.0" stroke-linecap="butt" stroke-opacity="0.0" clip-path="url(#id_0)" d="M249.0 252.0L223.0 252.0L223.0 54.0C223.0 52.89543 223.89543 52.0 225.0 52.0L247.0 52.0C248.10457 52.0 249.0 52.89543 249.0 54.0Z" fill-rule="nonzero"/><path fill="#f4cccc" clip-path="url(#id_0)" d="M249.0 252.0L223.0 252.0L223.0 54.0C223.0 52.89543 223.89543 52.0 225.0 52.0L247.0 52.0C248.10457 52.0 249.0 52.89543 249.0 54.0Z" fill-rule="nonzero"/><path stroke="#000000" stroke-width="0.0" stroke-linecap="butt" stroke-opacity="0.0" clip-path="url(#id_0)" d="M289.0 247.0L263.0 247.0L263.0 54.0C263.0 52.89543 263.89542 52.0 265.0 52.0L287.0 52.0C288.10458 52.0 289.0 52.89543 289.0 54.0Z" fill-rule="nonzero"/><path fill="#f4cccc" clip-path="url(#id_0)" d="M289.0 247.0L263.0 247.0L263.0 54.0C263.0 52.89543 263.89542 52.0 265.0 52.0L287.0 52.0C288.10458 52.0 289.0 52.89543 289.0 54.0Z" fill-rule="nonzero"/><path stroke="#000000" stroke-width="0.0" stroke-linecap="butt" stroke-opacity="0.0" clip-path="url(#id_0)" d="M329.0 259.0L303.0 259.0L303.0 54.0C303.0 52.89543 303.89542 52.0 305.0 52.0L327.0 52.0C328.10458 52.0 329.0 52.89543 329.0 54.0Z" fill-rule="nonzero"/><path fill="#f4cccc" clip-path="url(#id_0)" d="M329.0 259.0L303.0 259.0L303.0 54.0C303.0 52.89543 303.89542 52.0 305.0 52.0L327.0 52.0C328.10458 52.0 329.0 52.89543 329.0 54.0Z" fill-rule="nonzero"/><path stroke="#000000" stroke-width="0.0" stroke-linecap="butt" stroke-opacity="0.0" clip-path="url(#id_0)" d="M368.0 196.0L342.0 196.0L342.0 54.0C342.0 52.89543 342.89542 52.0 344.0 52.0L366.0 52.0C367.10458 52.0 368.0 52.89543 368.0 54.0Z" fill-rule="nonzero"/><path fill="#f4cccc" clip-path="url(#id_0)" d="M368.0 196.0L342.0 196.0L342.0 54.0C342.0 52.89543 342.89542 52.0 344.0 52.0L366.0 52.0C367.10458 52.0 368.0 52.89543 368.0 54.0Z" fill-rule="nonzero"/><path stroke="#000000" stroke-width="0.0" stroke-linecap="butt" stroke-opacity="0.0" clip-path="url(#id_0)" d="M408.0 250.0L382.0 250.0L382.0 54.0C382.0 52.89543 382.89542 52.0 384.0 52.0L406.0 52.0C407.10458 52.0 408.0 52.89543 408.0 54.0Z" fill-rule="nonzero"/><path fill="#f4cccc" clip-path="url(#id_0)" d="M408.0 250.0L382.0 250.0L382.0 54.0C382.0 52.89543 382.89542 52.0 384.0 52.0L406.0 52.0C407.10458 52.0 408.0 52.89543 408.0 54.0Z" fill-rule="nonzero"/><path stroke="#000000" stroke-width="0.0" stroke-linecap="butt" stroke-opacity="0.0" clip-path="url(#id_0)" d="M448.0 182.0L422.0 182.0L422.0 54.0C422.0 52.89543 422.89542 52.0 424.0 52.0L446.0 52.0C447.10458 52.0 448.0 52.89543 448.0 54.0Z" fill-rule="nonzero"/><path fill="#f4cccc" clip-path="url(#id_0)" d="M448.0 182.0L422.0 182.0L422.0 54.0C422.0 52.89543 422.89542 52.0 424.0 52.0L446.0 52.0C447.10458 52.0 448.0 52.89543 448.0 54.0Z" fill-rule="nonzero"/><path stroke="#000000" stroke-width="0.0" stroke-linecap="butt" stroke-opacity="0.0" clip-path="url(#id_0)" d="M488.0 226.0L462.0 226.0L462.0 54.0C462.0 52.89543 462.89542 52.0 464.0 52.0L486.0 52.0C487.10458 52.0 488.0 52.89543 488.0 54.0Z" fill-rule="nonzero"/><path fill="#f4cccc" clip-path="url(#id_0)" d="M488.0 226.0L462.0 226.0L462.0 54.0C462.0 52.89543 462.89542 52.0 464.0 52.0L486.0 52.0C487.10458 52.0 488.0 52.89543 488.0 54.0Z" fill-rule="nonzero"/><path stroke="#000000" stroke-width="0.0" stroke-linecap="butt" stroke-opacity="0.0" clip-path="url(#id_0)" d="M528.0 126.0L502.0 126.0L502.0 54.0C502.0 52.89543 502.89542 52.0 504.0 52.0L526.0 52.0C527.10455 52.0 528.0 52.89543 528.0 54.0Z" fill-rule="nonzero"/><path fill="#f4cccc" clip-path="url(#id_0)" d="M528.0 126.0L502.0 126.0L502.0 54.0C502.0 52.89543 502.89542 52.0 504.0 52.0L526.0 52.0C527.10455 52.0 528.0 52.89543 528.0 54.0Z" fill-rule="nonzero"/><path stroke="#000000" stroke-width="0.0" stroke-linecap="butt" stroke-opacity="0.0" clip-path="url(#id_0)" d="M568.0 152.0L542.0 152.0L542.0 54.0C542.0 52.89543 542.89545 52.0 544.0 52.0L566.0 52.0C567.10455 52.0 568.0 52.89543 568.0 54.0Z" fill-rule="nonzero"/><path fill="#f4cccc" clip-path="url(#id_0)" d="M568.0 152.0L542.0 152.0L542.0 54.0C542.0 52.89543 542.89545 52.0 544.0 52.0L566.0 52.0C567.10455 52.0 568.0 52.89543 568.0 54.0Z" fill-rule="nonzero"/><path fill="#000000" d="M203.98438 349.45L203.98438 340.85626L209.78125 340.85626L209.78125 341.8719L205.125 341.8719L205.125 344.52814L209.15625 344.52814L209.15625 345.54376L205.125 345.54376L205.125 349.45L203.98438 349.45ZM210.40625 346.34064Q210.40625 344.60626 211.35938 343.77814Q212.15625 343.09064 213.3125 343.09064Q214.59375 343.09064 215.40625 343.9344Q216.23438 344.7625 216.23438 346.2469Q216.23438 347.45 215.875 348.1375Q215.51562 348.825 214.8125 349.21564Q214.125 349.59064 213.3125 349.59064Q212.01562 349.59064 211.20312 348.7625Q210.40625 347.91876 210.40625 346.34064ZM211.48438 346.34064Q211.48438 347.52814 212.0 348.1219Q212.53125 348.71564 213.3125 348.71564Q214.10938 348.71564 214.625 348.1219Q215.14062 347.52814 215.14062 346.3094Q215.14062 345.15314 214.60938 344.5594Q214.09375 343.96564 213.3125 343.96564Q212.53125 343.96564 212.0 344.5594Q211.48438 345.1375 211.48438 346.34064ZM217.78125 349.45L217.78125 343.23126L218.73438 343.23126L218.73438 344.16876Q219.09375 343.5125 219.39062 343.3094Q219.70312 343.09064 220.07812 343.09064Q220.60938 343.09064 221.15625 343.41876L220.79688 344.40314Q220.40625 344.16876 220.03125 344.16876Q219.67188 344.16876 219.39062 344.3875Q219.125 344.59064 219.01562 344.96564Q218.82812 345.52814 218.82812 346.1844L218.82812 349.45L217.78125 349.45ZM225.875 349.45L225.875 348.52814Q225.14062 349.59064 223.89062 349.59064Q223.34375 349.59064 222.85938 349.3875Q222.39062 349.16876 222.15625 348.85626Q221.92188 348.52814 221.82812 348.0594Q221.76562 347.7625 221.76562 347.075L221.76562 343.23126L222.82812 343.23126L222.82812 346.6844Q222.82812 347.4969 222.89062 347.79376Q222.98438 348.2 223.29688 348.45Q223.625 348.6844 224.10938 348.6844Q224.57812 348.6844 224.98438 348.45Q225.40625 348.2 225.57812 347.77814Q225.76562 347.35626 225.76562 346.5594L225.76562 343.23126L226.8125 343.23126L226.8125 349.45L225.875 349.45ZM228.79688 349.45L228.79688 343.23126L229.73438 343.23126L229.73438 344.10626Q230.03125 343.6375 230.51562 343.3719Q231.0 343.09064 231.625 343.09064Q232.3125 343.09064 232.75 343.3719Q233.20312 343.65314 233.375 344.16876Q234.125 343.09064 235.29688 343.09064Q236.23438 343.09064 236.71875 343.60626Q237.21875 344.10626 237.21875 345.1844L237.21875 349.45L236.17188 349.45L236.17188 345.52814Q236.17188 344.90314 236.0625 344.6219Q235.96875 344.34064 235.70312 344.16876Q235.4375 343.9969 235.0625 343.9969Q234.40625 343.9969 233.96875 344.4344Q233.54688 344.8719 233.54688 345.84064L233.54688 349.45L232.48438 349.45L232.48438 345.40314Q232.48438 344.7 232.21875 344.35626Q231.96875 343.9969 231.39062 343.9969Q230.9375 343.9969 230.5625 344.23126Q230.1875 344.46564 230.01562 344.91876Q229.84375 345.3719 229.84375 346.21564L229.84375 349.45L228.79688 349.45ZM241.92188 349.45L241.92188 340.85626L245.17188 340.85626Q246.01562 340.85626 246.46875 340.9344Q247.10938 341.04376 247.53125 341.34064Q247.96875 341.6375 248.21875 342.16876Q248.48438 342.7 248.48438 343.34064Q248.48438 344.4344 247.78125 345.2Q247.09375 345.95 245.26562 345.95L243.0625 345.95L243.0625 349.45L241.92188 349.45ZM243.0625 344.95L245.28125 344.95Q246.39062 344.95 246.84375 344.54376Q247.3125 344.1219 247.3125 343.3719Q247.3125 342.84064 247.03125 342.46564Q246.76562 342.075 246.32812 341.95Q246.03125 341.8719 245.26562 341.8719L243.0625 341.8719L243.0625 344.95ZM249.40625 346.34064Q249.40625 344.60626 250.35938 343.77814Q251.15625 343.09064 252.3125 343.09064Q253.59375 343.09064 254.40625 343.9344Q255.23438 344.7625 255.23438 346.2469Q255.23438 347.45 254.875 348.1375Q254.51562 348.825 253.8125 349.21564Q253.125 349.59064 252.3125 349.59064Q251.01562 349.59064 250.20312 348.7625Q249.40625 347.91876 249.40625 346.34064ZM250.48438 346.34064Q250.48438 347.52814 251.0 348.1219Q251.53125 348.71564 252.3125 348.71564Q253.10938 348.71564 253.625 348.1219Q254.14062 347.52814 254.14062 346.3094Q254.14062 345.15314 253.60938 344.5594Q253.09375 343.96564 252.3125 343.96564Q251.53125 343.96564 251.0 344.5594Q250.48438 345.1375 250.48438 346.34064ZM256.76562 349.45L256.76562 340.85626L257.82812 340.85626L257.82812 349.45L256.76562 349.45ZM259.76562 349.45L259.76562 340.85626L260.82812 340.85626L260.82812 349.45L259.76562 349.45ZM265.92188 349.45L265.92188 340.85626L268.89062 340.85626Q269.89062 340.85626 270.42188 340.98126Q271.15625 341.15314 271.67188 341.59064Q272.35938 342.16876 272.6875 343.075Q273.03125 343.96564 273.03125 345.10626Q273.03125 346.09064 272.79688 346.84064Q272.57812 347.59064 272.21875 348.09064Q271.85938 348.59064 271.42188 348.8719Q271.0 349.15314 270.40625 349.3094Q269.8125 349.45 269.03125 349.45L265.92188 349.45ZM267.0625 348.4344L268.89062 348.4344Q269.75 348.4344 270.23438 348.27814Q270.71875 348.1219 271.0 347.825Q271.40625 347.4344 271.625 346.7469Q271.85938 346.0594 271.85938 345.09064Q271.85938 343.7469 271.40625 343.02814Q270.96875 342.29376 270.34375 342.04376Q269.875 341.8719 268.875 341.8719L267.0625 341.8719L267.0625 348.4344ZM278.85938 348.6844Q278.26562 349.1844 277.71875 349.3875Q277.1875 349.59064 276.5625 349.59064Q275.53125 349.59064 274.98438 349.09064Q274.4375 348.59064 274.4375 347.8094Q274.4375 347.35626 274.64062 346.98126Q274.84375 346.59064 275.1875 346.3719Q275.53125 346.1375 275.95312 346.02814Q276.25 345.9344 276.89062 345.85626Q278.15625 345.71564 278.76562 345.4969Q278.76562 345.27814 278.76562 345.23126Q278.76562 344.575 278.46875 344.3094Q278.0625 343.96564 277.26562 343.96564Q276.53125 343.96564 276.17188 344.23126Q275.8125 344.48126 275.64062 345.1375L274.60938 344.9969Q274.75 344.34064 275.07812 343.9344Q275.40625 343.52814 276.01562 343.3094Q276.625 343.09064 277.42188 343.09064Q278.21875 343.09064 278.71875 343.27814Q279.21875 343.46564 279.45312 343.7469Q279.6875 344.02814 279.78125 344.46564Q279.82812 344.73126 279.82812 345.4344L279.82812 346.84064Q279.82812 348.3094 279.89062 348.7Q279.96875 349.09064 280.17188 349.45L279.0625 349.45Q278.90625 349.1219 278.85938 348.6844ZM278.76562 346.325Q278.1875 346.5594 277.04688 346.73126Q276.39062 346.825 276.125 346.95Q275.85938 347.0594 275.70312 347.27814Q275.5625 347.4969 275.5625 347.77814Q275.5625 348.2 275.875 348.48126Q276.20312 348.7625 276.8125 348.7625Q277.42188 348.7625 277.89062 348.4969Q278.375 348.23126 278.59375 347.7625Q278.76562 347.40314 278.76562 346.71564L278.76562 346.325ZM284.09375 348.5125L284.25 349.4344Q283.79688 349.52814 283.45312 349.52814Q282.875 349.52814 282.5625 349.35626Q282.25 349.16876 282.10938 348.8719Q281.98438 348.575 281.98438 347.6219L281.98438 344.04376L281.21875 344.04376L281.21875 343.23126L281.98438 343.23126L281.98438 341.6844L283.03125 341.0594L283.03125 343.23126L284.09375 343.23126L284.09375 344.04376L283.03125 344.04376L283.03125 347.6844Q283.03125 348.1375 283.07812 348.2625Q283.14062 348.3875 283.26562 348.46564Q283.39062 348.54376 283.625 348.54376Q283.8125 348.54376 284.09375 348.5125ZM288.85938 348.6844Q288.26562 349.1844 287.71875 349.3875Q287.1875 349.59064 286.5625 349.59064Q285.53125 349.59064 284.98438 349.09064Q284.4375 348.59064 284.4375 347.8094Q284.4375 347.35626 284.64062 346.98126Q284.84375 346.59064 285.1875 346.3719Q285.53125 346.1375 285.95312 346.02814Q286.25 345.9344 286.89062 345.85626Q288.15625 345.71564 288.76562 345.4969Q288.76562 345.27814 288.76562 345.23126Q288.76562 344.575 288.46875 344.3094Q288.0625 343.96564 287.26562 343.96564Q286.53125 343.96564 286.17188 344.23126Q285.8125 344.48126 285.64062 345.1375L284.60938 344.9969Q284.75 344.34064 285.07812 343.9344Q285.40625 343.52814 286.01562 343.3094Q286.625 343.09064 287.42188 343.09064Q288.21875 343.09064 288.71875 343.27814Q289.21875 343.46564 289.45312 343.7469Q289.6875 344.02814 289.78125 344.46564Q289.82812 344.73126 289.82812 345.4344L289.82812 346.84064Q289.82812 348.3094 289.89062 348.7Q289.96875 349.09064 290.17188 349.45L289.0625 349.45Q288.90625 349.1219 288.85938 348.6844ZM288.76562 346.325Q288.1875 346.5594 287.04688 346.73126Q286.39062 346.825 286.125 346.95Q285.85938 347.0594 285.70312 347.27814Q285.5625 347.4969 285.5625 347.77814Q285.5625 348.2 285.875 348.48126Q286.20312 348.7625 286.8125 348.7625Q287.42188 348.7625 287.89062 348.4969Q288.375 348.23126 288.59375 347.7625Q288.76562 347.40314 288.76562 346.71564L288.76562 346.325ZM297.375 349.45L294.04688 340.85626L295.28125 340.85626L297.51562 347.10626Q297.78125 347.85626 297.96875 348.5125Q298.17188 347.8094 298.4375 347.10626L300.75 340.85626L301.90625 340.85626L298.54688 349.45L297.375 349.45ZM302.79688 342.075L302.79688 340.85626L303.85938 340.85626L303.85938 342.075L302.79688 342.075ZM302.79688 349.45L302.79688 343.23126L303.85938 343.23126L303.85938 349.45L302.79688 349.45ZM305.375 347.59064L306.40625 347.4344Q306.5 348.0594 306.89062 348.3875Q307.29688 348.71564 308.03125 348.71564Q308.75 348.71564 309.09375 348.4344Q309.45312 348.1375 309.45312 347.73126Q309.45312 347.3719 309.14062 347.16876Q308.92188 347.02814 308.0625 346.8094Q306.90625 346.5125 306.45312 346.3094Q306.01562 346.09064 305.78125 345.71564Q305.54688 345.34064 305.54688 344.8719Q305.54688 344.46564 305.73438 344.10626Q305.92188 343.7469 306.25 343.5125Q306.5 343.34064 306.92188 343.21564Q307.34375 343.09064 307.84375 343.09064Q308.5625 343.09064 309.10938 343.3094Q309.67188 343.5125 309.9375 343.8719Q310.20312 344.23126 310.29688 344.825L309.26562 344.96564Q309.20312 344.4969 308.85938 344.23126Q308.53125 343.95 307.90625 343.95Q307.1875 343.95 306.875 344.2Q306.5625 344.4344 306.5625 344.7625Q306.5625 344.96564 306.6875 345.1219Q306.82812 345.29376 307.09375 345.40314Q307.25 345.46564 308.03125 345.66876Q309.15625 345.98126 309.59375 346.16876Q310.03125 346.35626 310.28125 346.71564Q310.53125 347.075 310.53125 347.6219Q310.53125 348.15314 310.21875 348.6219Q309.92188 349.075 309.34375 349.34064Q308.76562 349.59064 308.03125 349.59064Q306.8125 349.59064 306.17188 349.09064Q305.54688 348.575 305.375 347.59064ZM315.875 349.45L315.875 348.52814Q315.14062 349.59064 313.89062 349.59064Q313.34375 349.59064 312.85938 349.3875Q312.39062 349.16876 312.15625 348.85626Q311.92188 348.52814 311.82812 348.0594Q311.76562 347.7625 311.76562 347.075L311.76562 343.23126L312.82812 343.23126L312.82812 346.6844Q312.82812 347.4969 312.89062 347.79376Q312.98438 348.2 313.29688 348.45Q313.625 348.6844 314.10938 348.6844Q314.57812 348.6844 314.98438 348.45Q315.40625 348.2 315.57812 347.77814Q315.76562 347.35626 315.76562 346.5594L315.76562 343.23126L316.8125 343.23126L316.8125 349.45L315.875 349.45ZM322.85938 348.6844Q322.26562 349.1844 321.71875 349.3875Q321.1875 349.59064 320.5625 349.59064Q319.53125 349.59064 318.98438 349.09064Q318.4375 348.59064 318.4375 347.8094Q318.4375 347.35626 318.64062 346.98126Q318.84375 346.59064 319.1875 346.3719Q319.53125 346.1375 319.95312 346.02814Q320.25 345.9344 320.89062 345.85626Q322.15625 345.71564 322.76562 345.4969Q322.76562 345.27814 322.76562 345.23126Q322.76562 344.575 322.46875 344.3094Q322.0625 343.96564 321.26562 343.96564Q320.53125 343.96564 320.17188 344.23126Q319.8125 344.48126 319.64062 345.1375L318.60938 344.9969Q318.75 344.34064 319.07812 343.9344Q319.40625 343.52814 320.01562 343.3094Q320.625 343.09064 321.42188 343.09064Q322.21875 343.09064 322.71875 343.27814Q323.21875 343.46564 323.45312 343.7469Q323.6875 344.02814 323.78125 344.46564Q323.82812 344.73126 323.82812 345.4344L323.82812 346.84064Q323.82812 348.3094 323.89062 348.7Q323.96875 349.09064 324.17188 349.45L323.0625 349.45Q322.90625 349.1219 322.85938 348.6844ZM322.76562 346.325Q322.1875 346.5594 321.04688 346.73126Q320.39062 346.825 320.125 346.95Q319.85938 347.0594 319.70312 347.27814Q319.5625 347.4969 319.5625 347.77814Q319.5625 348.2 319.875 348.48126Q320.20312 348.7625 320.8125 348.7625Q321.42188 348.7625 321.89062 348.4969Q322.375 348.23126 322.59375 347.7625Q322.76562 347.40314 322.76562 346.71564L322.76562 346.325ZM325.76562 349.45L325.76562 340.85626L326.82812 340.85626L326.82812 349.45L325.76562 349.45ZM328.79688 342.075L328.79688 340.85626L329.85938 340.85626L329.85938 342.075L328.79688 342.075ZM328.79688 349.45L328.79688 343.23126L329.85938 343.23126L329.85938 349.45L328.79688 349.45ZM331.23438 349.45L331.23438 348.59064L335.20312 344.04376Q334.51562 344.075 334.0 344.075L331.46875 344.075L331.46875 343.23126L336.5625 343.23126L336.5625 343.91876L333.1875 347.8719L332.53125 348.59064Q333.25 348.54376 333.85938 348.54376L336.75 348.54376L336.75 349.45L331.23438 349.45ZM342.04688 347.45L343.14062 347.575Q342.89062 348.52814 342.1875 349.0594Q341.48438 349.59064 340.40625 349.59064Q339.04688 349.59064 338.23438 348.7469Q337.4375 347.90314 337.4375 346.3875Q337.4375 344.825 338.25 343.96564Q339.0625 343.09064 340.34375 343.09064Q341.59375 343.09064 342.375 343.9344Q343.17188 344.77814 343.17188 346.325Q343.17188 346.41876 343.17188 346.60626L338.53125 346.60626Q338.59375 347.6375 339.10938 348.1844Q339.625 348.71564 340.40625 348.71564Q340.98438 348.71564 341.39062 348.41876Q341.8125 348.10626 342.04688 347.45ZM338.59375 345.7469L342.0625 345.7469Q342.0 344.95 341.67188 344.5594Q341.15625 343.95 340.35938 343.95Q339.625 343.95 339.125 344.4344Q338.64062 344.91876 338.59375 345.7469ZM348.82812 349.45L348.82812 348.66876Q348.23438 349.59064 347.09375 349.59064Q346.34375 349.59064 345.71875 349.1844Q345.09375 348.7625 344.75 348.02814Q344.40625 347.29376 344.40625 346.34064Q344.40625 345.41876 344.71875 344.65314Q345.03125 343.8875 345.65625 343.4969Q346.28125 343.09064 347.04688 343.09064Q347.60938 343.09064 348.04688 343.325Q348.48438 343.5594 348.76562 343.9344L348.76562 340.85626L349.8125 340.85626L349.8125 349.45L348.82812 349.45ZM345.5 346.34064Q345.5 347.54376 346.0 348.1375Q346.5 348.71564 347.1875 348.71564Q347.875 348.71564 348.35938 348.15314Q348.84375 347.59064 348.84375 346.4344Q348.84375 345.15314 348.34375 344.5594Q347.85938 343.96564 347.14062 343.96564Q346.4375 343.96564 345.96875 344.54376Q345.5 345.10626 345.5 346.34064ZM356.8125 351.98126Q355.9375 350.8719 355.32812 349.40314Q354.73438 347.91876 354.73438 346.34064Q354.73438 344.95 355.17188 343.66876Q355.70312 342.1844 356.8125 340.71564L357.5625 340.71564Q356.85938 341.9344 356.625 342.45Q356.26562 343.2625 356.0625 344.1375Q355.8125 345.23126 355.8125 346.34064Q355.8125 349.16876 357.5625 351.98126L356.8125 351.98126ZM358.92188 349.45L358.92188 340.85626L360.07812 340.85626L364.59375 347.60626L364.59375 340.85626L365.6875 340.85626L365.6875 349.45L364.51562 349.45L360.0 342.7L360.0 349.45L358.92188 349.45ZM367.40625 346.34064Q367.40625 344.60626 368.35938 343.77814Q369.15625 343.09064 370.3125 343.09064Q371.59375 343.09064 372.40625 343.9344Q373.23438 344.7625 373.23438 346.2469Q373.23438 347.45 372.875 348.1375Q372.51562 348.825 371.8125 349.21564Q371.125 349.59064 370.3125 349.59064Q369.01562 349.59064 368.20312 348.7625Q367.40625 347.91876 367.40625 346.34064ZM368.48438 346.34064Q368.48438 347.52814 369.0 348.1219Q369.53125 348.71564 370.3125 348.71564Q371.10938 348.71564 371.625 348.1219Q372.14062 347.52814 372.14062 346.3094Q372.14062 345.15314 371.60938 344.5594Q371.09375 343.96564 370.3125 343.96564Q369.53125 343.96564 369.0 344.5594Q368.48438 345.1375 368.48438 346.34064ZM376.98438 349.45L380.28125 340.85626L381.5 340.85626L385.01562 349.45L383.73438 349.45L382.71875 346.84064L379.14062 346.84064L378.1875 349.45L376.98438 349.45ZM379.46875 345.91876L382.375 345.91876L381.48438 343.54376Q381.0625 342.46564 380.875 341.7625Q380.70312 342.59064 380.40625 343.40314L379.46875 345.91876ZM386.76562 349.45L385.78125 349.45L385.78125 340.85626L386.84375 340.85626L386.84375 343.91876Q387.51562 343.09064 388.54688 343.09064Q389.125 343.09064 389.625 343.325Q390.14062 343.54376 390.46875 343.96564Q390.8125 344.3875 391.0 344.98126Q391.1875 345.575 391.1875 346.2469Q391.1875 347.84064 390.39062 348.71564Q389.59375 349.59064 388.5 349.59064Q387.39062 349.59064 386.76562 348.66876L386.76562 349.45ZM386.75 346.29376Q386.75 347.40314 387.0625 347.90314Q387.5625 348.71564 388.40625 348.71564Q389.09375 348.71564 389.59375 348.1219Q390.10938 347.52814 390.10938 346.325Q390.10938 345.10626 389.625 344.52814Q389.14062 343.95 388.45312 343.95Q387.76562 343.95 387.25 344.5594Q386.75 345.15314 386.75 346.29376ZM392.375 347.59064L393.40625 347.4344Q393.5 348.0594 393.89062 348.3875Q394.29688 348.71564 395.03125 348.71564Q395.75 348.71564 396.09375 348.4344Q396.45312 348.1375 396.45312 347.73126Q396.45312 347.3719 396.14062 347.16876Q395.92188 347.02814 395.0625 346.8094Q393.90625 346.5125 393.45312 346.3094Q393.01562 346.09064 392.78125 345.71564Q392.54688 345.34064 392.54688 344.8719Q392.54688 344.46564 392.73438 344.10626Q392.92188 343.7469 393.25 343.5125Q393.5 343.34064 393.92188 343.21564Q394.34375 343.09064 394.84375 343.09064Q395.5625 343.09064 396.10938 343.3094Q396.67188 343.5125 396.9375 343.8719Q397.20312 344.23126 397.29688 344.825L396.26562 344.96564Q396.20312 344.4969 395.85938 344.23126Q395.53125 343.95 394.90625 343.95Q394.1875 343.95 393.875 344.2Q393.5625 344.4344 393.5625 344.7625Q393.5625 344.96564 393.6875 345.1219Q393.82812 345.29376 394.09375 345.40314Q394.25 345.46564 395.03125 345.66876Q396.15625 345.98126 396.59375 346.16876Q397.03125 346.35626 397.28125 346.71564Q397.53125 347.075 397.53125 347.6219Q397.53125 348.15314 397.21875 348.6219Q396.92188 349.075 396.34375 349.34064Q395.76562 349.59064 395.03125 349.59064Q393.8125 349.59064 393.17188 349.09064Q392.54688 348.575 392.375 347.59064ZM401.09375 348.5125L401.25 349.4344Q400.79688 349.52814 400.45312 349.52814Q399.875 349.52814 399.5625 349.35626Q399.25 349.16876 399.10938 348.8719Q398.98438 348.575 398.98438 347.6219L398.98438 344.04376L398.21875 344.04376L398.21875 343.23126L398.98438 343.23126L398.98438 341.6844L400.03125 341.0594L400.03125 343.23126L401.09375 343.23126L401.09375 344.04376L400.03125 344.04376L400.03125 347.6844Q400.03125 348.1375 400.07812 348.2625Q400.14062 348.3875 400.26562 348.46564Q400.39062 348.54376 400.625 348.54376Q400.8125 348.54376 401.09375 348.5125ZM405.85938 348.6844Q405.26562 349.1844 404.71875 349.3875Q404.1875 349.59064 403.5625 349.59064Q402.53125 349.59064 401.98438 349.09064Q401.4375 348.59064 401.4375 347.8094Q401.4375 347.35626 401.64062 346.98126Q401.84375 346.59064 402.1875 346.3719Q402.53125 346.1375 402.95312 346.02814Q403.25 345.9344 403.89062 345.85626Q405.15625 345.71564 405.76562 345.4969Q405.76562 345.27814 405.76562 345.23126Q405.76562 344.575 405.46875 344.3094Q405.0625 343.96564 404.26562 343.96564Q403.53125 343.96564 403.17188 344.23126Q402.8125 344.48126 402.64062 345.1375L401.60938 344.9969Q401.75 344.34064 402.07812 343.9344Q402.40625 343.52814 403.01562 343.3094Q403.625 343.09064 404.42188 343.09064Q405.21875 343.09064 405.71875 343.27814Q406.21875 343.46564 406.45312 343.7469Q406.6875 344.02814 406.78125 344.46564Q406.82812 344.73126 406.82812 345.4344L406.82812 346.84064Q406.82812 348.3094 406.89062 348.7Q406.96875 349.09064 407.17188 349.45L406.0625 349.45Q405.90625 349.1219 405.85938 348.6844ZM405.76562 346.325Q405.1875 346.5594 404.04688 346.73126Q403.39062 346.825 403.125 346.95Q402.85938 347.0594 402.70312 347.27814Q402.5625 347.4969 402.5625 347.77814Q402.5625 348.2 402.875 348.48126Q403.20312 348.7625 403.8125 348.7625Q404.42188 348.7625 404.89062 348.4969Q405.375 348.23126 405.59375 347.7625Q405.76562 347.40314 405.76562 346.71564L405.76562 346.325ZM408.79688 342.075L408.79688 340.85626L409.85938 340.85626L409.85938 342.075L408.79688 342.075ZM408.79688 349.45L408.79688 343.23126L409.85938 343.23126L409.85938 349.45L408.79688 349.45ZM411.79688 349.45L411.79688 343.23126L412.73438 343.23126L412.73438 344.10626Q413.42188 343.09064 414.71875 343.09064Q415.28125 343.09064 415.75 343.29376Q416.23438 343.4969 416.46875 343.825Q416.70312 344.15314 416.79688 344.59064Q416.84375 344.8875 416.84375 345.6219L416.84375 349.45L415.79688 349.45L415.79688 345.66876Q415.79688 345.0125 415.67188 344.7Q415.54688 344.3875 415.23438 344.2Q414.92188 343.9969 414.5 343.9969Q413.82812 343.9969 413.32812 344.4344Q412.84375 344.85626 412.84375 346.04376L412.84375 349.45L411.79688 349.45ZM418.375 347.59064L419.40625 347.4344Q419.5 348.0594 419.89062 348.3875Q420.29688 348.71564 421.03125 348.71564Q421.75 348.71564 422.09375 348.4344Q422.45312 348.1375 422.45312 347.73126Q422.45312 347.3719 422.14062 347.16876Q421.92188 347.02814 421.0625 346.8094Q419.90625 346.5125 419.45312 346.3094Q419.01562 346.09064 418.78125 345.71564Q418.54688 345.34064 418.54688 344.8719Q418.54688 344.46564 418.73438 344.10626Q418.92188 343.7469 419.25 343.5125Q419.5 343.34064 419.92188 343.21564Q420.34375 343.09064 420.84375 343.09064Q421.5625 343.09064 422.10938 343.3094Q422.67188 343.5125 422.9375 343.8719Q423.20312 344.23126 423.29688 344.825L422.26562 344.96564Q422.20312 344.4969 421.85938 344.23126Q421.53125 343.95 420.90625 343.95Q420.1875 343.95 419.875 344.2Q419.5625 344.4344 419.5625 344.7625Q419.5625 344.96564 419.6875 345.1219Q419.82812 345.29376 420.09375 345.40314Q420.25 345.46564 421.03125 345.66876Q422.15625 345.98126 422.59375 346.16876Q423.03125 346.35626 423.28125 346.71564Q423.53125 347.075 423.53125 347.6219Q423.53125 348.15314 423.21875 348.6219Q422.92188 349.075 422.34375 349.34064Q421.76562 349.59064 421.03125 349.59064Q419.8125 349.59064 419.17188 349.09064Q418.54688 348.575 418.375 347.59064ZM425.48438 351.98126L424.73438 351.98126Q426.48438 349.16876 426.48438 346.34064Q426.48438 345.2469 426.23438 344.15314Q426.03125 343.27814 425.67188 342.46564Q425.4375 341.95 424.73438 340.71564L425.48438 340.71564Q426.57812 342.1844 427.10938 343.66876Q427.5625 344.95 427.5625 346.34064Q427.5625 347.91876 426.95312 349.40314Q426.34375 350.8719 425.48438 351.98126Z" fill-rule="nonzero"/><path fill="#000000" d="M26.05 300.21564Q26.05 298.6844 26.3625 297.7625Q26.675 296.825 27.284374 296.325Q27.909374 295.825 28.846874 295.825Q29.534374 295.825 30.05 296.10626Q30.58125 296.3875 30.925 296.91876Q31.26875 297.4344 31.45625 298.1844Q31.64375 298.9344 31.64375 300.21564Q31.64375 301.73126 31.33125 302.65314Q31.034374 303.575 30.409374 304.09064Q29.8 304.59064 28.846874 304.59064Q27.6125 304.59064 26.89375 303.7Q26.05 302.6375 26.05 300.21564ZM27.128124 300.21564Q27.128124 302.325 27.628124 303.02814Q28.128124 303.73126 28.846874 303.73126Q29.58125 303.73126 30.065624 303.02814Q30.565624 302.325 30.565624 300.21564Q30.565624 298.09064 30.065624 297.40314Q29.58125 296.7 28.83125 296.7Q28.1125 296.7 27.675 297.3094Q27.128124 298.09064 27.128124 300.21564ZM33.253124 297.91876Q33.253124 296.9969 33.70625 296.35626Q34.175 295.71564 35.05 295.71564Q35.8625 295.71564 36.39375 296.29376Q36.925 296.8719 36.925 297.98126Q36.925 299.075 36.378124 299.66876Q35.846874 300.2469 35.065624 300.2469Q34.284374 300.2469 33.76875 299.66876Q33.253124 299.09064 33.253124 297.91876ZM35.08125 296.4344Q34.690624 296.4344 34.425 296.77814Q34.175 297.1219 34.175 298.02814Q34.175 298.85626 34.425 299.2Q34.690624 299.52814 35.08125 299.52814Q35.4875 299.52814 35.7375 299.1844Q36.003124 298.84064 36.003124 297.95Q36.003124 297.10626 35.7375 296.77814Q35.471874 296.4344 35.08125 296.4344ZM35.08125 304.7625L39.784374 295.71564L40.64375 295.71564L35.95625 304.7625L35.08125 304.7625ZM38.8 302.4344Q38.8 301.5125 39.253124 300.8719Q39.721874 300.23126 40.6125 300.23126Q41.425 300.23126 41.95625 300.8094Q42.4875 301.3719 42.4875 302.4969Q42.4875 303.59064 41.940624 304.1844Q41.409374 304.7625 40.6125 304.7625Q39.846874 304.7625 39.315624 304.1844Q38.8 303.60626 38.8 302.4344ZM40.64375 300.95Q40.2375 300.95 39.971874 301.29376Q39.721874 301.6375 39.721874 302.54376Q39.721874 303.35626 39.9875 303.7Q40.253124 304.04376 40.64375 304.04376Q41.034374 304.04376 41.3 303.7Q41.565624 303.35626 41.565624 302.45Q41.565624 301.6219 41.3 301.29376Q41.034374 300.95 40.64375 300.95Z" fill-rule="nonzero"/><path fill="#000000" d="M24.596874 241.30104L24.596874 242.31667L18.909374 242.31667Q18.909374 241.94167 19.034374 241.58229Q19.253124 241.00417 19.721874 240.44167Q20.20625 239.87917 21.1125 239.14479Q22.51875 237.98854 23.003124 237.31667Q23.503124 236.64479 23.503124 236.05104Q23.503124 235.42604 23.05 235.00417Q22.596874 234.56667 21.878124 234.56667Q21.1125 234.56667 20.659374 235.01979Q20.20625 235.47292 20.190624 236.28542L19.1125 236.17604Q19.221874 234.95729 19.940624 234.33229Q20.675 233.69167 21.909374 233.69167Q23.14375 233.69167 23.8625 234.37917Q24.58125 235.06667 24.58125 236.08229Q24.58125 236.59792 24.3625 237.09792Q24.159374 237.58229 23.659374 238.14479Q23.175 238.69167 22.05 239.64479Q21.096874 240.44167 20.815624 240.73854Q20.55 241.01979 20.378124 241.30104L24.596874 241.30104ZM26.05 240.06667L27.159374 239.97292Q27.284374 240.78542 27.721874 241.19167Q28.175 241.59792 28.815624 241.59792Q29.565624 241.59792 30.096874 241.01979Q30.628124 240.44167 30.628124 239.50417Q30.628124 238.59792 30.1125 238.08229Q29.6125 237.55104 28.784374 237.55104Q28.284374 237.55104 27.8625 237.78542Q27.45625 238.01979 27.221874 238.37917L26.2375 238.25417L27.065624 233.84792L31.346874 233.84792L31.346874 234.84792L27.909374 234.84792L27.45625 237.16042Q28.221874 236.61354 29.065624 236.61354Q30.190624 236.61354 30.95625 237.39479Q31.7375 238.17604 31.7375 239.41042Q31.7375 240.56667 31.065624 241.42604Q30.2375 242.45729 28.815624 242.45729Q27.64375 242.45729 26.89375 241.80104Q26.159374 241.14479 26.05 240.06667ZM33.253124 235.78542Q33.253124 234.86354 33.70625 234.22292Q34.175 233.58229 35.05 233.58229Q35.8625 233.58229 36.39375 234.16042Q36.925 234.73854 36.925 235.84792Q36.925 236.94167 36.378124 237.53542Q35.846874 238.11354 35.065624 238.11354Q34.284374 238.11354 33.76875 237.53542Q33.253124 236.95729 33.253124 235.78542ZM35.08125 234.30104Q34.690624 234.30104 34.425 234.64479Q34.175 234.98854 34.175 235.89479Q34.175 236.72292 34.425 237.06667Q34.690624 237.39479 35.08125 237.39479Q35.4875 237.39479 35.7375 237.05104Q36.003124 236.70729 36.003124 235.81667Q36.003124 234.97292 35.7375 234.64479Q35.471874 234.30104 35.08125 234.30104ZM35.08125 242.62917L39.784374 233.58229L40.64375 233.58229L35.95625 242.62917L35.08125 242.62917ZM38.8 240.30104Q38.8 239.37917 39.253124 238.73854Q39.721874 238.09792 40.6125 238.09792Q41.425 238.09792 41.95625 238.67604Q42.4875 239.23854 42.4875 240.36354Q42.4875 241.45729 41.940624 242.05104Q41.409374 242.62917 40.6125 242.62917Q39.846874 242.62917 39.315624 242.05104Q38.8 241.47292 38.8 240.30104ZM40.64375 238.81667Q40.2375 238.81667 39.971874 239.16042Q39.721874 239.50417 39.721874 240.41042Q39.721874 241.22292 39.9875 241.56667Q40.253124 241.91042 40.64375 241.91042Q41.034374 241.91042 41.3 241.56667Q41.565624 241.22292 41.565624 240.31667Q41.565624 239.48854 41.3 239.16042Q41.034374 238.81667 40.64375 238.81667Z" fill-rule="nonzero"/><path fill="#000000" d="M19.05 177.93333L20.159374 177.83958Q20.284374 178.65208 20.721874 179.05833Q21.175 179.46458 21.815624 179.46458Q22.565624 179.46458 23.096874 178.88646Q23.628124 178.30833 23.628124 177.37083Q23.628124 176.46458 23.1125 175.94896Q22.6125 175.41771 21.784374 175.41771Q21.284374 175.41771 20.8625 175.65208Q20.45625 175.88646 20.221874 176.24583L19.2375 176.12083L20.065624 171.71458L24.346874 171.71458L24.346874 172.71458L20.909374 172.71458L20.45625 175.02708Q21.221874 174.48021 22.065624 174.48021Q23.190624 174.48021 23.95625 175.26146Q24.7375 176.04271 24.7375 177.27708Q24.7375 178.43333 24.065624 179.29271Q23.2375 180.32396 21.815624 180.32396Q20.64375 180.32396 19.89375 179.66771Q19.159374 179.01146 19.05 177.93333ZM26.05 175.94896Q26.05 174.41771 26.3625 173.49583Q26.675 172.55833 27.284374 172.05833Q27.909374 171.55833 28.846874 171.55833Q29.534374 171.55833 30.05 171.83958Q30.58125 172.12083 30.925 172.65208Q31.26875 173.16771 31.45625 173.91771Q31.64375 174.66771 31.64375 175.94896Q31.64375 177.46458 31.33125 178.38646Q31.034374 179.30833 30.409374 179.82396Q29.8 180.32396 28.846874 180.32396Q27.6125 180.32396 26.89375 179.43333Q26.05 178.37083 26.05 175.94896ZM27.128124 175.94896Q27.128124 178.05833 27.628124 178.76146Q28.128124 179.46458 28.846874 179.46458Q29.58125 179.46458 30.065624 178.76146Q30.565624 178.05833 30.565624 175.94896Q30.565624 173.82396 30.065624 173.13646Q29.58125 172.43333 28.83125 172.43333Q28.1125 172.43333 27.675 173.04271Q27.128124 173.82396 27.128124 175.94896ZM33.253124 173.65208Q33.253124 172.73021 33.70625 172.08958Q34.175 171.44896 35.05 171.44896Q35.8625 171.44896 36.39375 172.02708Q36.925 172.60521 36.925 173.71458Q36.925 174.80833 36.378124 175.40208Q35.846874 175.98021 35.065624 175.98021Q34.284374 175.98021 33.76875 175.40208Q33.253124 174.82396 33.253124 173.65208ZM35.08125 172.16771Q34.690624 172.16771 34.425 172.51146Q34.175 172.85521 34.175 173.76146Q34.175 174.58958 34.425 174.93333Q34.690624 175.26146 35.08125 175.26146Q35.4875 175.26146 35.7375 174.91771Q36.003124 174.57396 36.003124 173.68333Q36.003124 172.83958 35.7375 172.51146Q35.471874 172.16771 35.08125 172.16771ZM35.08125 180.49583L39.784374 171.44896L40.64375 171.44896L35.95625 180.49583L35.08125 180.49583ZM38.8 178.16771Q38.8 177.24583 39.253124 176.60521Q39.721874 175.96458 40.6125 175.96458Q41.425 175.96458 41.95625 176.54271Q42.4875 177.10521 42.4875 178.23021Q42.4875 179.32396 41.940624 179.91771Q41.409374 180.49583 40.6125 180.49583Q39.846874 180.49583 39.315624 179.91771Q38.8 179.33958 38.8 178.16771ZM40.64375 176.68333Q40.2375 176.68333 39.971874 177.02708Q39.721874 177.37083 39.721874 178.27708Q39.721874 179.08958 39.9875 179.43333Q40.253124 179.77708 40.64375 179.77708Q41.034374 179.77708 41.3 179.43333Q41.565624 179.08958 41.565624 178.18333Q41.565624 177.35521 41.3 177.02708Q41.034374 176.68333 40.64375 176.68333Z" fill-rule="nonzero"/><path fill="#000000" d="M19.1125 110.58125L19.1125 109.56563L24.675 109.56563L24.675 110.39375Q23.8625 111.26875 23.05 112.72188Q22.253124 114.15938 21.815624 115.69063Q21.4875 116.76875 21.409374 118.05L20.315624 118.05Q20.33125 117.03438 20.70625 115.59688Q21.096874 114.15938 21.8 112.83125Q22.51875 111.50313 23.33125 110.58125L19.1125 110.58125ZM26.05 115.8L27.159374 115.70625Q27.284374 116.51875 27.721874 116.925Q28.175 117.33125 28.815624 117.33125Q29.565624 117.33125 30.096874 116.75313Q30.628124 116.175 30.628124 115.2375Q30.628124 114.33125 30.1125 113.81563Q29.6125 113.28438 28.784374 113.28438Q28.284374 113.28438 27.8625 113.51875Q27.45625 113.75313 27.221874 114.1125L26.2375 113.9875L27.065624 109.58125L31.346874 109.58125L31.346874 110.58125L27.909374 110.58125L27.45625 112.89375Q28.221874 112.34688 29.065624 112.34688Q30.190624 112.34688 30.95625 113.12813Q31.7375 113.90938 31.7375 115.14375Q31.7375 116.3 31.065624 117.15938Q30.2375 118.19063 28.815624 118.19063Q27.64375 118.19063 26.89375 117.53438Q26.159374 116.87813 26.05 115.8ZM33.253124 111.51875Q33.253124 110.59688 33.70625 109.95625Q34.175 109.31563 35.05 109.31563Q35.8625 109.31563 36.39375 109.89375Q36.925 110.47188 36.925 111.58125Q36.925 112.675 36.378124 113.26875Q35.846874 113.84688 35.065624 113.84688Q34.284374 113.84688 33.76875 113.26875Q33.253124 112.69063 33.253124 111.51875ZM35.08125 110.03438Q34.690624 110.03438 34.425 110.37813Q34.175 110.72188 34.175 111.62813Q34.175 112.45625 34.425 112.8Q34.690624 113.12813 35.08125 113.12813Q35.4875 113.12813 35.7375 112.78438Q36.003124 112.44063 36.003124 111.55Q36.003124 110.70625 35.7375 110.37813Q35.471874 110.03438 35.08125 110.03438ZM35.08125 118.3625L39.784374 109.31563L40.64375 109.31563L35.95625 118.3625L35.08125 118.3625ZM38.8 116.03438Q38.8 115.1125 39.253124 114.47188Q39.721874 113.83125 40.6125 113.83125Q41.425 113.83125 41.95625 114.40938Q42.4875 114.97188 42.4875 116.09688Q42.4875 117.19063 41.940624 117.78438Q41.409374 118.3625 40.6125 118.3625Q39.846874 118.3625 39.315624 117.78438Q38.8 117.20625 38.8 116.03438ZM40.64375 114.55Q40.2375 114.55 39.971874 114.89375Q39.721874 115.2375 39.721874 116.14375Q39.721874 116.95625 39.9875 117.3Q40.253124 117.64375 40.64375 117.64375Q41.034374 117.64375 41.3 117.3Q41.565624 116.95625 41.565624 116.05Q41.565624 115.22188 41.3 114.89375Q41.034374 114.55 40.64375 114.55Z" fill-rule="nonzero"/><path fill="#000000" d="M77.41257 317.45L76.36569 317.45L76.36569 310.73126Q75.97507 311.09064 75.35007 311.46564Q74.74069 311.825 74.25632 311.9969L74.25632 310.98126Q75.13132 310.5594 75.78757 309.98126Q76.45944 309.3875 76.74069 308.825L77.41257 308.825L77.41257 317.45Z" fill-rule="nonzero"/><path fill="#000000" d="M118.83339 316.4344L118.83339 317.45L113.14589 317.45Q113.14589 317.075 113.27089 316.71564Q113.48964 316.1375 113.95839 315.575Q114.442764 315.0125 115.349014 314.27814Q116.755264 313.1219 117.23964 312.45Q117.73964 311.77814 117.73964 311.1844Q117.73964 310.5594 117.286514 310.1375Q116.83339 309.7 116.11464 309.7Q115.349014 309.7 114.89589 310.15314Q114.442764 310.60626 114.42714 311.41876L113.349014 311.3094Q113.45839 310.09064 114.17714 309.46564Q114.911514 308.825 116.14589 308.825Q117.380264 308.825 118.099014 309.5125Q118.817764 310.2 118.817764 311.21564Q118.817764 311.73126 118.599014 312.23126Q118.39589 312.71564 117.89589 313.27814Q117.411514 313.825 116.286514 314.77814Q115.33339 315.575 115.05214 315.8719Q114.786514 316.15314 114.61464 316.4344L118.83339 316.4344Z" fill-rule="nonzero"/><path fill="#000000" d="M153.12921 315.1844L154.19171 315.04376Q154.36359 315.9344 154.80109 316.34064Q155.23859 316.73126 155.86359 316.73126Q156.61359 316.73126 157.12921 316.21564Q157.64484 315.7 157.64484 314.9344Q157.64484 314.21564 157.16046 313.7469Q156.69171 313.2625 155.95734 313.2625Q155.66046 313.2625 155.20734 313.3875L155.33234 312.45Q155.44171 312.46564 155.50421 312.46564Q156.17609 312.46564 156.70734 312.1219Q157.25421 311.7625 157.25421 311.02814Q157.25421 310.45 156.86359 310.075Q156.47296 309.6844 155.84796 309.6844Q155.23859 309.6844 154.81671 310.075Q154.41046 310.46564 154.30109 311.23126L153.23859 311.04376Q153.42609 309.9969 154.11359 309.41876Q154.80109 308.825 155.81671 308.825Q156.51984 308.825 157.11359 309.1375Q157.70734 309.4344 158.01984 309.95Q158.33234 310.46564 158.33234 311.0594Q158.33234 311.60626 158.03546 312.075Q157.73859 312.52814 157.16046 312.79376Q157.91046 312.96564 158.33234 313.52814Q158.75421 314.075 158.75421 314.91876Q158.75421 316.04376 157.92609 316.825Q157.11359 317.60626 155.86359 317.60626Q154.73859 317.60626 153.98859 316.9344Q153.23859 316.2469 153.12921 315.1844Z" fill-rule="nonzero"/><path fill="#000000" d="M196.34691 317.45L196.34691 315.3875L192.62816 315.3875L192.62816 314.41876L196.55003 308.85626L197.40941 308.85626L197.40941 314.41876L198.56566 314.41876L198.56566 315.3875L197.40941 315.3875L197.40941 317.45L196.34691 317.45ZM196.34691 314.41876L196.34691 310.5594L193.65941 314.41876L196.34691 314.41876Z" fill-rule="nonzero"/><path fill="#000000" d="M232.8146 315.2L233.92398 315.10626Q234.04898 315.91876 234.48648 316.325Q234.9396 316.73126 235.58023 316.73126Q236.33023 316.73126 236.86148 316.15314Q237.39273 315.575 237.39273 314.6375Q237.39273 313.73126 236.8771 313.21564Q236.3771 312.6844 235.54898 312.6844Q235.04898 312.6844 234.6271 312.91876Q234.22086 313.15314 233.98648 313.5125L233.0021 313.3875L233.83023 308.98126L238.11148 308.98126L238.11148 309.98126L234.67398 309.98126L234.22086 312.29376Q234.98648 311.7469 235.83023 311.7469Q236.95523 311.7469 237.72086 312.52814Q238.5021 313.3094 238.5021 314.54376Q238.5021 315.7 237.83023 316.5594Q237.0021 317.59064 235.58023 317.59064Q234.40836 317.59064 233.65836 316.9344Q232.92398 316.27814 232.8146 315.2Z" fill-rule="nonzero"/><path fill="#000000" d="M278.12607 310.96564L277.0792 311.04376Q276.93857 310.41876 276.68857 310.1375Q276.25107 309.6844 275.62607 309.6844Q275.12607 309.6844 274.73544 309.96564Q274.25107 310.34064 273.9542 311.04376Q273.67294 311.73126 273.65732 313.0125Q274.03232 312.4344 274.5792 312.15314Q275.1417 311.8719 275.75107 311.8719Q276.79794 311.8719 277.53232 312.65314Q278.28232 313.4344 278.28232 314.65314Q278.28232 315.46564 277.92294 316.16876Q277.5792 316.85626 276.96982 317.23126Q276.36044 317.59064 275.59482 317.59064Q274.2667 317.59064 273.43857 316.6219Q272.61044 315.65314 272.61044 313.4344Q272.61044 310.9344 273.53232 309.8094Q274.3292 308.825 275.68857 308.825Q276.7042 308.825 277.34482 309.40314Q278.00107 309.96564 278.12607 310.96564ZM273.8292 314.66876Q273.8292 315.21564 274.04794 315.71564Q274.28232 316.2 274.68857 316.46564Q275.11044 316.73126 275.5792 316.73126Q276.23544 316.73126 276.71982 316.2Q277.2042 315.65314 277.2042 314.73126Q277.2042 313.84064 276.71982 313.325Q276.25107 312.8094 275.53232 312.8094Q274.81357 312.8094 274.31357 313.325Q273.8292 313.84064 273.8292 314.66876Z" fill-rule="nonzero"/><path fill="#000000" d="M312.5625 309.98126L312.5625 308.96564L318.125 308.96564L318.125 309.79376Q317.3125 310.66876 316.5 312.1219Q315.70312 313.5594 315.26562 315.09064Q314.9375 316.16876 314.85938 317.45L313.76562 317.45Q313.78125 316.4344 314.15625 314.9969Q314.54688 313.5594 315.25 312.23126Q315.96875 310.90314 316.78125 309.98126L312.5625 309.98126Z" fill-rule="nonzero"/><path fill="#000000" d="M353.96768 312.79376Q353.31143 312.54376 352.9833 312.10626Q352.6708 311.65314 352.6708 311.04376Q352.6708 310.10626 353.34268 309.46564Q354.03018 308.825 355.13956 308.825Q356.26456 308.825 356.95206 309.48126Q357.63956 310.1375 357.63956 311.075Q357.63956 311.66876 357.32706 312.10626Q357.01456 312.54376 356.37393 312.79376Q357.1708 313.04376 357.57706 313.6219Q357.9833 314.2 357.9833 314.9969Q357.9833 316.09064 357.20206 316.84064Q356.43643 317.59064 355.15518 317.59064Q353.88956 317.59064 353.1083 316.84064Q352.32706 316.09064 352.32706 314.96564Q352.32706 314.1219 352.74893 313.5594Q353.18643 312.9969 353.96768 312.79376ZM353.74893 310.9969Q353.74893 311.60626 354.13956 311.9969Q354.5458 312.3875 355.1708 312.3875Q355.78018 312.3875 356.1708 312.0125Q356.56143 311.6219 356.56143 311.0594Q356.56143 310.48126 356.15518 310.09064Q355.74893 309.6844 355.15518 309.6844Q354.5458 309.6844 354.13956 310.075Q353.74893 310.46564 353.74893 310.9969ZM353.4208 314.96564Q353.4208 315.41876 353.62393 315.84064Q353.84268 316.2625 354.26456 316.4969Q354.68643 316.73126 355.1708 316.73126Q355.9208 316.73126 356.40518 316.2469Q356.90518 315.7625 356.90518 315.0125Q356.90518 314.2469 356.40518 313.7469Q355.90518 313.2469 355.13956 313.2469Q354.38956 313.2469 353.90518 313.7469Q353.4208 314.23126 353.4208 314.96564Z" fill-rule="nonzero"/><path fill="#000000" d="M392.34164 315.46564L393.35727 315.3719Q393.48227 316.09064 393.84164 316.41876Q394.21664 316.73126 394.77914 316.73126Q395.26352 316.73126 395.6229 316.5125Q395.9979 316.27814 396.23227 315.91876Q396.46664 315.54376 396.6229 314.91876Q396.77914 314.27814 396.77914 313.6219Q396.77914 313.54376 396.77914 313.40314Q396.46664 313.90314 395.91977 314.23126Q395.3729 314.54376 394.73227 314.54376Q393.65414 314.54376 392.91977 313.77814Q392.1854 312.9969 392.1854 311.73126Q392.1854 310.41876 392.95102 309.6219Q393.73227 308.825 394.88852 308.825Q395.71664 308.825 396.40414 309.27814Q397.10727 309.73126 397.46664 310.575Q397.82602 311.40314 397.82602 312.98126Q397.82602 314.6219 397.46664 315.60626Q397.1229 316.575 396.40414 317.09064Q395.70102 317.59064 394.76352 317.59064Q393.7479 317.59064 393.10727 317.04376Q392.46664 316.48126 392.34164 315.46564ZM396.65414 311.66876Q396.65414 310.7625 396.16977 310.23126Q395.70102 309.7 395.01352 309.7Q394.3104 309.7 393.77914 310.27814Q393.26352 310.84064 393.26352 311.7625Q393.26352 312.575 393.76352 313.09064Q394.26352 313.60626 394.98227 313.60626Q395.71664 313.60626 396.1854 313.09064Q396.65414 312.575 396.65414 311.66876Z" fill-rule="nonzero"/><path fill="#000000" d="M432.49683 317.45L431.44995 317.45L431.44995 310.73126Q431.05933 311.09064 430.43433 311.46564Q429.82495 311.825 429.34058 311.9969L429.34058 310.98126Q430.21558 310.5594 430.87183 309.98126Q431.5437 309.3875 431.82495 308.825L432.49683 308.825L432.49683 317.45ZM435.52808 313.21564Q435.52808 311.6844 435.84058 310.7625Q436.15308 309.825 436.76245 309.325Q437.38745 308.825 438.32495 308.825Q439.01245 308.825 439.52808 309.10626Q440.05933 309.3875 440.40308 309.91876Q440.74683 310.4344 440.93433 311.1844Q441.12183 311.9344 441.12183 313.21564Q441.12183 314.73126 440.80933 315.65314Q440.51245 316.575 439.88745 317.09064Q439.27808 317.59064 438.32495 317.59064Q437.09058 317.59064 436.37183 316.7Q435.52808 315.6375 435.52808 313.21564ZM436.6062 313.21564Q436.6062 315.325 437.1062 316.02814Q437.6062 316.73126 438.32495 316.73126Q439.05933 316.73126 439.5437 316.02814Q440.0437 315.325 440.0437 313.21564Q440.0437 311.09064 439.5437 310.40314Q439.05933 309.7 438.30933 309.7Q437.59058 309.7 437.15308 310.3094Q436.6062 311.09064 436.6062 313.21564Z" fill-rule="nonzero"/><path fill="#000000" d="M472.33954 317.45L471.29266 317.45L471.29266 310.73126Q470.90204 311.09064 470.27704 311.46564Q469.66766 311.825 469.1833 311.9969L469.1833 310.98126Q470.0583 310.5594 470.71454 309.98126Q471.3864 309.3875 471.66766 308.825L472.33954 308.825L472.33954 317.45ZM479.33954 317.45L478.29266 317.45L478.29266 310.73126Q477.90204 311.09064 477.27704 311.46564Q476.66766 311.825 476.1833 311.9969L476.1833 310.98126Q477.0583 310.5594 477.71454 309.98126Q478.3864 309.3875 478.66766 308.825L479.33954 308.825L479.33954 317.45Z" fill-rule="nonzero"/><path fill="#000000" d="M512.18225 317.45L511.13535 317.45L511.13535 310.73126Q510.74472 311.09064 510.11972 311.46564Q509.51035 311.825 509.02597 311.9969L509.02597 310.98126Q509.90097 310.5594 510.55722 309.98126Q511.2291 309.3875 511.51035 308.825L512.18225 308.825L512.18225 317.45ZM520.7604 316.4344L520.7604 317.45L515.0729 317.45Q515.0729 317.075 515.1979 316.71564Q515.4166 316.1375 515.8854 315.575Q516.36975 315.0125 517.276 314.27814Q518.68225 313.1219 519.1666 312.45Q519.6666 311.77814 519.6666 311.1844Q519.6666 310.5594 519.2135 310.1375Q518.7604 309.7 518.0416 309.7Q517.276 309.7 516.8229 310.15314Q516.36975 310.60626 516.3541 311.41876L515.276 311.3094Q515.3854 310.09064 516.1041 309.46564Q516.8385 308.825 518.0729 308.825Q519.30725 308.825 520.026 309.5125Q520.74475 310.2 520.74475 311.21564Q520.74475 311.73126 520.526 312.23126Q520.3229 312.71564 519.8229 313.27814Q519.3385 313.825 518.2135 314.77814Q517.2604 315.575 516.9791 315.8719Q516.7135 316.15314 516.5416 316.4344L520.7604 316.4344Z" fill-rule="nonzero"/><path fill="#000000" d="M552.0249 317.45L550.978 317.45L550.978 310.73126Q550.5874 311.09064 549.9624 311.46564Q549.353 311.825 548.86865 311.9969L548.86865 310.98126Q549.74365 310.5594 550.3999 309.98126Q551.0718 309.3875 551.353 308.825L552.0249 308.825L552.0249 317.45ZM555.05615 315.1844L556.11865 315.04376Q556.2905 315.9344 556.728 316.34064Q557.1655 316.73126 557.7905 316.73126Q558.5405 316.73126 559.05615 316.21564Q559.5718 315.7 559.5718 314.9344Q559.5718 314.21564 559.0874 313.7469Q558.61865 313.2625 557.8843 313.2625Q557.5874 313.2625 557.1343 313.3875L557.2593 312.45Q557.36865 312.46564 557.43115 312.46564Q558.103 312.46564 558.6343 312.1219Q559.18115 311.7625 559.18115 311.02814Q559.18115 310.45 558.7905 310.075Q558.3999 309.6844 557.7749 309.6844Q557.1655 309.6844 556.74365 310.075Q556.3374 310.46564 556.228 311.23126L555.1655 311.04376Q555.353 309.9969 556.0405 309.41876Q556.728 308.825 557.74365 308.825Q558.4468 308.825 559.0405 309.1375Q559.6343 309.4344 559.9468 309.95Q560.2593 310.46564 560.2593 311.0594Q560.2593 311.60626 559.9624 312.075Q559.6655 312.52814 559.0874 312.79376Q559.8374 312.96564 560.2593 313.52814Q560.68115 314.075 560.68115 314.91876Q560.68115 316.04376 559.853 316.825Q559.0405 317.60626 557.7905 317.60626Q556.6655 317.60626 555.9155 316.9344Q555.1655 316.2469 555.05615 315.1844Z" fill-rule="nonzero"/><path fill="#f4cccc" d="M253.5 20.55C253.5 19.997715 253.94771 19.55 254.5 19.55L264.5 19.55C265.05228 19.55 265.5 19.997715 265.5 20.55L265.5 30.55C265.5 31.102285 265.05228 31.55 264.5 31.55L254.5 31.55C253.94771 31.55 253.5 31.102285 253.5 30.55Z" fill-rule="nonzero"/><path fill="#1a1a1a" d="M274.42188 29.55L274.42188 20.95625L275.57812 20.95625L280.09375 27.70625L280.09375 20.95625L281.1875 20.95625L281.1875 29.55L280.01562 29.55L275.5 22.8L275.5 29.55L274.42188 29.55ZM282.90625 26.440624Q282.90625 24.70625 283.85938 23.878124Q284.65625 23.190624 285.8125 23.190624Q287.09375 23.190624 287.90625 24.034374Q288.73438 24.8625 288.73438 26.346874Q288.73438 27.55 288.375 28.2375Q288.01562 28.925 287.3125 29.315624Q286.625 29.690624 285.8125 29.690624Q284.51562 29.690624 283.70312 28.8625Q282.90625 28.01875 282.90625 26.440624ZM283.98438 26.440624Q283.98438 27.628124 284.5 28.221874Q285.03125 28.815624 285.8125 28.815624Q286.60938 28.815624 287.125 28.221874Q287.64062 27.628124 287.64062 26.409374Q287.64062 25.253124 287.10938 24.659374Q286.59375 24.065624 285.8125 24.065624Q285.03125 24.065624 284.5 24.659374Q283.98438 25.2375 283.98438 26.440624Z" fill-rule="nonzero"/><path fill="#6aa84f" d="M305.5 20.55C305.5 19.997715 305.94772 19.55 306.5 19.55L316.5 19.55C317.05228 19.55 317.5 19.997715 317.5 20.55L317.5 30.55C317.5 31.102285 317.05228 31.55 316.5 31.55L306.5 31.55C305.94772 31.55 305.5 31.102285 305.5 30.55Z" fill-rule="nonzero"/><path fill="#1a1a1a" d="M328.84375 29.55L328.84375 25.909374L325.53125 20.95625L326.92188 20.95625L328.60938 23.55Q329.07812 24.26875 329.48438 25.003124Q329.875 24.33125 330.42188 23.4875L332.09375 20.95625L333.40625 20.95625L329.98438 25.909374L329.98438 29.55L328.84375 29.55ZM338.54688 27.55L339.64062 27.675Q339.39062 28.628124 338.6875 29.159374Q337.98438 29.690624 336.90625 29.690624Q335.54688 29.690624 334.73438 28.846874Q333.9375 28.003124 333.9375 26.4875Q333.9375 24.925 334.75 24.065624Q335.5625 23.190624 336.84375 23.190624Q338.09375 23.190624 338.875 24.034374Q339.67188 24.878124 339.67188 26.425Q339.67188 26.51875 339.67188 26.70625L335.03125 26.70625Q335.09375 27.7375 335.60938 28.284374Q336.125 28.815624 336.90625 28.815624Q337.48438 28.815624 337.89062 28.51875Q338.3125 28.20625 338.54688 27.55ZM335.09375 25.846874L338.5625 25.846874Q338.5 25.05 338.17188 24.659374Q337.65625 24.05 336.85938 24.05Q336.125 24.05 335.625 24.534374Q335.14062 25.01875 335.09375 25.846874ZM340.875 27.690624L341.90625 27.534374Q342.0 28.159374 342.39062 28.4875Q342.79688 28.815624 343.53125 28.815624Q344.25 28.815624 344.59375 28.534374Q344.95312 28.2375 344.95312 27.83125Q344.95312 27.471874 344.64062 27.26875Q344.42188 27.128124 343.5625 26.909374Q342.40625 26.6125 341.95312 26.409374Q341.51562 26.190624 341.28125 25.815624Q341.04688 25.440624 341.04688 24.971874Q341.04688 24.565624 341.23438 24.20625Q341.42188 23.846874 341.75 23.6125Q342.0 23.440624 342.42188 23.315624Q342.84375 23.190624 343.34375 23.190624Q344.0625 23.190624 344.60938 23.409374Q345.17188 23.6125 345.4375 23.971874Q345.70312 24.33125 345.79688 24.925L344.76562 25.065624Q344.70312 24.596874 344.35938 24.33125Q344.03125 24.05 343.40625 24.05Q342.6875 24.05 342.375 24.3Q342.0625 24.534374 342.0625 24.8625Q342.0625 25.065624 342.1875 25.221874Q342.32812 25.39375 342.59375 25.503124Q342.75 25.565624 343.53125 25.76875Q344.65625 26.08125 345.09375 26.26875Q345.53125 26.45625 345.78125 26.815624Q346.03125 27.175 346.03125 27.721874Q346.03125 28.253124 345.71875 28.721874Q345.42188 29.175 344.84375 29.440624Q344.26562 29.690624 343.53125 29.690624Q342.3125 29.690624 341.67188 29.190624Q341.04688 28.675 340.875 27.690624Z" fill-rule="nonzero"/></svg>