<svg version="1.1" viewBox="0.0 0.0 600.0 371.0" fill="none" stroke="none" stroke-linecap="square" stroke-miterlimit="10" width="600" height="371" xmlns:xlink="http://www.w3.org/1999/xlink" xmlns="http://www.w3.org/2000/svg"><path fill="#ffffff" d="M0 0L600.0 0L600.0 371.0L0 371.0L0 0Z" fill-rule="nonzero"/><path stroke="#333333" stroke-width="1.0" stroke-linecap="butt" d="M49.5 300.5L581.5 300.5" fill-rule="nonzero"/><path stroke="#45818e" stroke-width="1.0" stroke-linecap="butt" d="M49.5 238.5L581.5 238.5" fill-rule="nonzero"/><path stroke="#45818e" stroke-width="1.0" stroke-linecap="butt" d="M49.5 176.5L581.5 176.5" fill-rule="nonzero"/><path stroke="#45818e" stroke-width="1.0" stroke-linecap="butt" d="M49.5 114.5L581.5 114.5" fill-rule="nonzero"/><clipPath id="id_0"><path d="M49.55 51.916668L581.45 51.916668L581.45 300.45L49.55 300.45L49.55 51.916668Z" clip-rule="nonzero"/></clipPath><path stroke="#000000" stroke-width="0.0" stroke-linecap="butt" stroke-opacity="0.0" clip-path="url(#id_0)" d="M89.0 300.0L63.0 300.0L63.0 273.0L89.0 273.0Z" fill-rule="nonzero"/><path fill="#6aa84f" clip-path="url(#id_0)" d="M89.0 300.0L63.0 300.0L63.0 273.0L89.0 273.0Z" fill-rule="nonzero"/><path stroke="#000000" stroke-width="0.0" stroke-linecap="butt" stroke-opacity="0.0" clip-path="url(#id_0)" d="M129.0 300.0L103.0 300.0L103.0 246.0L129.0 246.0Z" fill-rule="nonzero"/><path fill="#6aa84f" clip-path="url(#id_0)" d="M129.0 300.0L103.0 300.0L103.0 246.0L129.0 246.0Z" fill-rule="nonzero"/><path stroke="#000000" stroke-width="0.0" stroke-linecap="butt" stroke-opacity="0.0" clip-path="url(#id_0)" d="M169.0 300.0L143.0 300.0L143.0 193.0L169.0 193.0Z" fill-rule="nonzero"/><path fill="#6aa84f" clip-path="url(#id_0)" d="M169.0 300.0L143.0 300.0L143.0 193.0L169.0 193.0Z" fill-rule="nonzero"/><path stroke="#000000" stroke-width="0.0" stroke-linecap="butt" stroke-opacity="0.0" clip-path="url(#id_0)" d="M209.0 300.0L183.0 300.0L183.0 260.0L209.0 260.0Z" fill-rule="nonzero"/><path fill="#6aa84f" clip-path="url(#id_0)" d="M209.0 300.0L183.0 300.0L183.0 260.0L209.0 260.0Z" fill-rule="nonzero"/><path stroke="#000000" stroke-width="0.0" stroke-linecap="butt" stroke-opacity="0.0" clip-path="url(#id_0)" d="M249.0 300.0L223.0 300.0L223.0 234.0L249.0 234.0Z" fill-rule="nonzero"/><path fill="#6aa84f" clip-path="url(#id_0)" d="M249.0 300.0L223.0 300.0L223.0 234.0L249.0 234.0Z" fill-rule="nonzero"/><path stroke="#000000" stroke-width="0.0" stroke-linecap="butt" stroke-opacity="0.0" clip-path="url(#id_0)" d="M289.0 300.0L263.0 300.0L263.0 248.0L289.0 248.0Z" fill-rule="nonzero"/><path fill="#6aa84f" clip-path="url(#id_0)" d="M289.0 300.0L263.0 300.0L263.0 248.0L289.0 248.0Z" fill-rule="nonzero"/><path stroke="#000000" stroke-width="0.0" stroke-linecap="butt" stroke-opacity="0.0" clip-path="url(#id_0)" d="M329.0 300.0L303.0 300.0L303.0 235.0L329.0 235.0Z" fill-rule="nonzero"/><path fill="#6aa84f" clip-path="url(#id_0)" d="M329.0 300.0L303.0 300.0L303.0 235.0L329.0 235.0Z" fill-rule="nonzero"/><path stroke="#000000" stroke-width="0.0" stroke-linecap="butt" stroke-opacity="0.0" clip-path="url(#id_0)" d="M368.0 300.0L342.0 300.0L342.0 247.0L368.0 247.0Z" fill-rule="nonzero"/><path fill="#6aa84f" clip-path="url(#id_0)" d="M368.0 300.0L342.0 300.0L342.0 247.0L368.0 247.0Z" fill-rule="nonzero"/><path stroke="#000000" stroke-width="0.0" stroke-linecap="butt" stroke-opacity="0.0" clip-path="url(#id_0)" d="M408.0 300.0L382.0 300.0L382.0 240.0L408.0 240.0Z" fill-rule="nonzero"/><path fill="#6aa84f" clip-path="url(#id_0)" d="M408.0 300.0L382.0 300.0L382.0 240.0L408.0 240.0Z" fill-rule="nonzero"/><path stroke="#000000" stroke-width="0.0" stroke-linecap="butt" stroke-opacity="0.0" clip-path="url(#id_0)" d="M448.0 300.0L422.0 300.0L422.0 125.0L448.0 125.0Z" fill-rule="nonzero"/><path fill="#6aa84f" clip-path="url(#id_0)" d="M448.0 300.0L422.0 300.0L422.0 125.0L448.0 125.0Z" fill-rule="nonzero"/><path stroke="#000000" stroke-width="0.0" stroke-linecap="butt" stroke-opacity="0.0" clip-path="url(#id_0)" d="M488.0 300.0L462.0 300.0L462.0 202.0L488.0 202.0Z" fill-rule="nonzero"/><path fill="#6aa84f" clip-path="url(#id_0)" d="M488.0 300.0L462.0 300.0L462.0 202.0L488.0 202.0Z" fill-rule="nonzero"/><path stroke="#000000" stroke-width="0.0" stroke-linecap="butt" stroke-opacity="0.0" clip-path="url(#id_0)" d="M528.0 300.0L502.0 300.0L502.0 117.0L528.0 117.0Z" fill-rule="nonzero"/><path fill="#6aa84f" clip-path="url(#id_0)" d="M528.0 300.0L502.0 300.0L502.0 117.0L528.0 117.0Z" fill-rule="nonzero"/><path stroke="#000000" stroke-width="0.0" stroke-linecap="butt" stroke-opacity="0.0" clip-path="url(#id_0)" d="M568.0 300.0L542.0 300.0L542.0 154.0L568.0 154.0Z" fill-rule="nonzero"/><path fill="#6aa84f" clip-path="url(#id_0)" d="M568.0 300.0L542.0 300.0L542.0 154.0L568.0 154.0Z" fill-rule="nonzero"/><path stroke="#000000" stroke-width="0.0" stroke-linecap="butt" stroke-opacity="0.0" clip-path="url(#id_0)" d="M89.0 273.0L63.0 273.0L63.0 54.0C63.0 52.89543 63.89543 52.0 65.0 52.0L87.0 52.0C88.10457 52.0 89.0 52.89543 89.0 54.0Z" fill-rule="nonzero"/><path fill="#f4cccc" clip-path="url(#id_0)" d="M89.0 273.0L63.0 273.0L63.0 54.0C63.0 52.89543 63.89543 52.0 65.0 52.0L87.0 52.0C88.10457 52.0 89.0 52.89543 89.0 54.0Z" fill-rule="nonzero"/><path stroke="#000000" stroke-width="0.0" stroke-linecap="butt" stroke-opacity="0.0" clip-path="url(#id_0)" d="M129.0 246.0L103.0 246.0L103.0 54.0C103.0 52.89543 103.89543 52.0 105.0 52.0L127.0 52.0C128.10457 52.0 129.0 52.89543 129.0 54.0Z" fill-rule="nonzero"/><path fill="#f4cccc" clip-path="url(#id_0)" d="M129.0 246.0L103.0 246.0L103.0 54.0C103.0 52.89543 103.89543 52.0 105.0 52.0L127.0 52.0C128.10457 52.0 129.0 52.89543 129.0 54.0Z" fill-rule="nonzero"/><path stroke="#000000" stroke-width="0.0" stroke-linecap="butt" stroke-opacity="0.0" clip-path="url(#id_0)" d="M169.0 193.0L143.0 193.0L143.0 54.0C143.0 52.89543 143.89543 52.0 145.0 52.0L167.0 52.0C168.10457 52.0 169.0 52.89543 169.0 54.0Z" fill-rule="nonzero"/><path fill="#f4cccc" clip-path="url(#id_0)" d="M169.0 193.0L143.0 193.0L143.0 54.0C143.0 52.89543 143.89543 52.0 145.0 52.0L167.0 52.0C168.10457 52.0 169.0 52.89543 169.0 54.0Z" fill-rule="nonzero"/><path stroke="#000000" stroke-width="0.0" stroke-linecap="butt" stroke-opacity="0.0" clip-path="url(#id_0)" d="M209.0 260.0L183.0 260.0L183.0 54.0C183.0 52.89543 183.89543 52.0 185.0 52.0L207.0 52.0C208.10457 52.0 209.0 52.89543 209.0 54.0Z" fill-rule="nonzero"/><path fill="#f4cccc" clip-path="url(#id_0)" d="M209.0 260.0L183.0 260.0L183.0 54.0C183.0 52.89543 183.89543 52.0 185.0 52.0L207.0 52.0C208.10457 52.0 209.0 52.89543 209.0 54.0Z" fill-rule="nonzero"/><path stroke="#000000" stroke-width="0.0" stroke-linecap="butt" stroke-opacity="0.0" clip-path="url(#id_0)" d="M249.0 234.0L223.0 234.0L223.0 54.0C223.0 52.89543 223.89543 52.0 225.0 52.0L247.0 52.0C248.10457 52.0 249.0 52.89543 249.0 54.0Z" fill-rule="nonzero"/><path fill="#f4cccc" clip-path="url(#id_0)" d="M249.0 234.0L223.0 234.0L223.0 54.0C223.0 52.89543 223.89543 52.0 225.0 52.0L247.0 52.0C248.10457 52.0 249.0 52.89543 249.0 54.0Z" fill-rule="nonzero"/><path stroke="#000000" stroke-width="0.0" stroke-linecap="butt" stroke-opacity="0.0" clip-path="url(#id_0)" d="M289.0 248.0L263.0 248.0L263.0 54.0C263.0 52.89543 263.89542 52.0 265.0 52.0L287.0 52.0C288.10458 52.0 289.0 52.89543 289.0 54.0Z" fill-rule="nonzero"/><path fill="#f4cccc" clip-path="url(#id_0)" d="M289.0 248.0L263.0 248.0L263.0 54.0C263.0 52.89543 263.89542 52.0 265.0 52.0L287.0 52.0C288.10458 52.0 289.0 52.89543 289.0 54.0Z" fill-rule="nonzero"/><path stroke="#000000" stroke-width="0.0" stroke-linecap="butt" stroke-opacity="0.0" clip-path="url(#id_0)" d="M329.0 235.0L303.0 235.0L303.0 54.0C303.0 52.89543 303.89542 52.0 305.0 52.0L327.0 52.0C328.10458 52.0 329.0 52.89543 329.0 54.0Z" fill-rule="nonzero"/><path fill="#f4cccc" clip-path="url(#id_0)" d="M329.0 235.0L303.0 235.0L303.0 54.0C303.0 52.89543 303.89542 52.0 305.0 52.0L327.0 52.0C328.10458 52.0 329.0 52.89543 329.0 54.0Z" fill-rule="nonzero"/><path stroke="#000000" stroke-width="0.0" stroke-linecap="butt" stroke-opacity="0.0" clip-path="url(#id_0)" d="M368.0 247.0L342.0 247.0L342.0 54.0C342.0 52.89543 342.89542 52.0 344.0 52.0L366.0 52.0C367.10458 52.0 368.0 52.89543 368.0 54.0Z" fill-rule="nonzero"/><path fill="#f4cccc" clip-path="url(#id_0)" d="M368.0 247.0L342.0 247.0L342.0 54.0C342.0 52.89543 342.89542 52.0 344.0 52.0L366.0 52.0C367.10458 52.0 368.0 52.89543 368.0 54.0Z" fill-rule="nonzero"/><path stroke="#000000" stroke-width="0.0" stroke-linecap="butt" stroke-opacity="0.0" clip-path="url(#id_0)" d="M408.0 240.0L382.0 240.0L382.0 54.0C382.0 52.89543 382.89542 52.0 384.0 52.0L406.0 52.0C407.10458 52.0 408.0 52.89543 408.0 54.0Z" fill-rule="nonzero"/><path fill="#f4cccc" clip-path="url(#id_0)" d="M408.0 240.0L382.0 240.0L382.0 54.0C382.0 52.89543 382.89542 52.0 384.0 52.0L406.0 52.0C407.10458 52.0 408.0 52.89543 408.0 54.0Z" fill-rule="nonzero"/><path stroke="#000000" stroke-width="0.0" stroke-linecap="butt" stroke-opacity="0.0" clip-path="url(#id_0)" d="M448.0 125.0L422.0 125.0L422.0 54.0C422.0 52.89543 422.89542 52.0 424.0 52.0L446.0 52.0C447.10458 52.0 448.0 52.89543 448.0 54.0Z" fill-rule="nonzero"/><path fill="#f4cccc" clip-path="url(#id_0)" d="M448.0 125.0L422.0 125.0L422.0 54.0C422.0 52.89543 422.89542 52.0 424.0 52.0L446.0 52.0C447.10458 52.0 448.0 52.89543 448.0 54.0Z" fill-rule="nonzero"/><path stroke="#000000" stroke-width="0.0" stroke-linecap="butt" stroke-opacity="0.0" clip-path="url(#id_0)" d="M488.0 202.0L462.0 202.0L462.0 54.0C462.0 52.89543 462.89542 52.0 464.0 52.0L486.0 52.0C487.10458 52.0 488.0 52.89543 488.0 54.0Z" fill-rule="nonzero"/><path fill="#f4cccc" clip-path="url(#id_0)" d="M488.0 202.0L462.0 202.0L462.0 54.0C462.0 52.89543 462.89542 52.0 464.0 52.0L486.0 52.0C487.10458 52.0 488.0 52.89543 488.0 54.0Z" fill-rule="nonzero"/><path stroke="#000000" stroke-width="0.0" stroke-linecap="butt" stroke-opacity="0.0" clip-path="url(#id_0)" d="M528.0 117.0L502.0 117.0L502.0 54.0C502.0 52.89543 502.89542 52.0 504.0 52.0L526.0 52.0C527.10455 52.0 528.0 52.89543 528.0 54.0Z" fill-rule="nonzero"/><path fill="#f4cccc" clip-path="url(#id_0)" d="M528.0 117.0L502.0 117.0L502.0 54.0C502.0 52.89543 502.89542 52.0 504.0 52.0L526.0 52.0C527.10455 52.0 528.0 52.89543 528.0 54.0Z" fill-rule="nonzero"/><path stroke="#000000" stroke-width="0.0" stroke-linecap="butt" stroke-opacity="0.0" clip-path="url(#id_0)" d="M568.0 154.0L542.0 154.0L542.0 54.0C542.0 52.89543 542.89545 52.0 544.0 52.0L566.0 52.0C567.10455 52.0 568.0 52.89543 568.0 54.0Z" fill-rule="nonzero"/><path fill="#f4cccc" clip-path="url(#id_0)" d="M568.0 154.0L542.0 154.0L542.0 54.0C542.0 52.89543 542.89545 52.0 544.0 52.0L566.0 52.0C567.10455 52.0 568.0 52.89543 568.0 54.0Z" fill-rule="nonzero"/><path fill="#000000" d="M180.5625 346.4344L181.6875 346.73126Q181.32812 348.1219 180.40625 348.85626Q179.48438 349.59064 178.14062 349.59064Q176.75 349.59064 175.875 349.02814Q175.0 348.46564 174.54688 347.40314Q174.09375 346.325 174.09375 345.09064Q174.09375 343.7469 174.60938 342.7469Q175.125 341.7469 176.0625 341.23126Q177.01562 340.71564 178.15625 340.71564Q179.4375 340.71564 180.3125 341.3719Q181.20312 342.02814 181.54688 343.21564L180.42188 343.48126Q180.125 342.54376 179.54688 342.1219Q178.98438 341.6844 178.125 341.6844Q177.14062 341.6844 176.46875 342.16876Q175.8125 342.6375 175.53125 343.4344Q175.26562 344.23126 175.26562 345.09064Q175.26562 346.1844 175.57812 346.9969Q175.90625 347.8094 176.57812 348.21564Q177.25 348.6219 178.04688 348.6219Q179.0 348.6219 179.65625 348.075Q180.32812 347.52814 180.5625 346.4344ZM182.90625 346.34064Q182.90625 344.60626 183.85938 343.77814Q184.65625 343.09064 185.8125 343.09064Q187.09375 343.09064 187.90625 343.9344Q188.73438 344.7625 188.73438 346.2469Q188.73438 347.45 188.375 348.1375Q188.01562 348.825 187.3125 349.21564Q186.625 349.59064 185.8125 349.59064Q184.51562 349.59064 183.70312 348.7625Q182.90625 347.91876 182.90625 346.34064ZM183.98438 346.34064Q183.98438 347.52814 184.5 348.1219Q185.03125 348.71564 185.8125 348.71564Q186.60938 348.71564 187.125 348.1219Q187.64062 347.52814 187.64062 346.3094Q187.64062 345.15314 187.10938 344.5594Q186.59375 343.96564 185.8125 343.96564Q185.03125 343.96564 184.5 344.5594Q183.98438 345.1375 183.98438 346.34064ZM190.29688 349.45L190.29688 343.23126L191.23438 343.23126L191.23438 344.10626Q191.53125 343.6375 192.01562 343.3719Q192.5 343.09064 193.125 343.09064Q193.8125 343.09064 194.25 343.3719Q194.70312 343.65314 194.875 344.16876Q195.625 343.09064 196.79688 343.09064Q197.73438 343.09064 198.21875 343.60626Q198.71875 344.10626 198.71875 345.1844L198.71875 349.45L197.67188 349.45L197.67188 345.52814Q197.67188 344.90314 197.5625 344.6219Q197.46875 344.34064 197.20312 344.16876Q196.9375 343.9969 196.5625 343.9969Q195.90625 343.9969 195.46875 344.4344Q195.04688 344.8719 195.04688 345.84064L195.04688 349.45L193.98438 349.45L193.98438 345.40314Q193.98438 344.7 193.71875 344.35626Q193.46875 343.9969 192.89062 343.9969Q192.4375 343.9969 192.0625 344.23126Q191.6875 344.46564 191.51562 344.91876Q191.34375 345.3719 191.34375 346.21564L191.34375 349.45L190.29688 349.45ZM200.29688 349.45L200.29688 343.23126L201.23438 343.23126L201.23438 344.10626Q201.53125 343.6375 202.01562 343.3719Q202.5 343.09064 203.125 343.09064Q203.8125 343.09064 204.25 343.3719Q204.70312 343.65314 204.875 344.16876Q205.625 343.09064 206.79688 343.09064Q207.73438 343.09064 208.21875 343.60626Q208.71875 344.10626 208.71875 345.1844L208.71875 349.45L207.67188 349.45L207.67188 345.52814Q207.67188 344.90314 207.5625 344.6219Q207.46875 344.34064 207.20312 344.16876Q206.9375 343.9969 206.5625 343.9969Q205.90625 343.9969 205.46875 344.4344Q205.04688 344.8719 205.04688 345.84064L205.04688 349.45L203.98438 349.45L203.98438 345.40314Q203.98438 344.7 203.71875 344.35626Q203.46875 343.9969 202.89062 343.9969Q202.4375 343.9969 202.0625 344.23126Q201.6875 344.46564 201.51562 344.91876Q201.34375 345.3719 201.34375 346.21564L201.34375 349.45L200.29688 349.45ZM214.375 349.45L214.375 348.52814Q213.64062 349.59064 212.39062 349.59064Q211.84375 349.59064 211.35938 349.3875Q210.89062 349.16876 210.65625 348.85626Q210.42188 348.52814 210.32812 348.0594Q210.26562 347.7625 210.26562 347.075L210.26562 343.23126L211.32812 343.23126L211.32812 346.6844Q211.32812 347.4969 211.39062 347.79376Q211.48438 348.2 211.79688 348.45Q212.125 348.6844 212.60938 348.6844Q213.07812 348.6844 213.48438 348.45Q213.90625 348.2 214.07812 347.77814Q214.26562 347.35626 214.26562 346.5594L214.26562 343.23126L215.3125 343.23126L215.3125 349.45L214.375 349.45ZM217.29688 349.45L217.29688 343.23126L218.23438 343.23126L218.23438 344.10626Q218.92188 343.09064 220.21875 343.09064Q220.78125 343.09064 221.25 343.29376Q221.73438 343.4969 221.96875 343.825Q222.20312 344.15314 222.29688 344.59064Q222.34375 344.8875 222.34375 345.6219L222.34375 349.45L221.29688 349.45L221.29688 345.66876Q221.29688 345.0125 221.17188 344.7Q221.04688 344.3875 220.73438 344.2Q220.42188 343.9969 220.0 343.9969Q219.32812 343.9969 218.82812 344.4344Q218.34375 344.85626 218.34375 346.04376L218.34375 349.45L217.29688 349.45ZM224.29688 342.075L224.29688 340.85626L225.35938 340.85626L225.35938 342.075L224.29688 342.075ZM224.29688 349.45L224.29688 343.23126L225.35938 343.23126L225.35938 349.45L224.29688 349.45ZM229.59375 348.5125L229.75 349.4344Q229.29688 349.52814 228.95312 349.52814Q228.375 349.52814 228.0625 349.35626Q227.75 349.16876 227.60938 348.8719Q227.48438 348.575 227.48438 347.6219L227.48438 344.04376L226.71875 344.04376L226.71875 343.23126L227.48438 343.23126L227.48438 341.6844L228.53125 341.0594L228.53125 343.23126L229.59375 343.23126L229.59375 344.04376L228.53125 344.04376L228.53125 347.6844Q228.53125 348.1375 228.57812 348.2625Q228.64062 348.3875 228.76562 348.46564Q228.89062 348.54376 229.125 348.54376Q229.3125 348.54376 229.59375 348.5125ZM230.25 351.84064L230.125 350.85626Q230.46875 350.95 230.73438 350.95Q231.07812 350.95 231.28125 350.825Q231.5 350.71564 231.64062 350.5125Q231.73438 350.34064 231.96875 349.71564Q231.98438 349.6375 232.0625 349.46564L229.6875 343.23126L230.82812 343.23126L232.125 346.825Q232.375 347.5125 232.57812 348.27814Q232.76562 347.54376 233.01562 346.85626L234.34375 343.23126L235.39062 343.23126L233.03125 349.5594Q232.64062 350.575 232.4375 350.96564Q232.15625 351.4969 231.78125 351.73126Q231.42188 351.98126 230.92188 351.98126Q230.625 351.98126 230.25 351.84064ZM238.48438 349.45L241.78125 340.85626L243.0 340.85626L246.51562 349.45L245.23438 349.45L244.21875 346.84064L240.64062 346.84064L239.6875 349.45L238.48438 349.45ZM240.96875 345.91876L243.875 345.91876L242.98438 343.54376Q242.5625 342.46564 242.375 341.7625Q242.20312 342.59064 241.90625 343.40314L240.96875 345.91876ZM251.32812 349.45L251.32812 348.66876Q250.73438 349.59064 249.59375 349.59064Q248.84375 349.59064 248.21875 349.1844Q247.59375 348.7625 247.25 348.02814Q246.90625 347.29376 246.90625 346.34064Q246.90625 345.41876 247.21875 344.65314Q247.53125 343.8875 248.15625 343.4969Q248.78125 343.09064 249.54688 343.09064Q250.10938 343.09064 250.54688 343.325Q250.98438 343.5594 251.26562 343.9344L251.26562 340.85626L252.3125 340.85626L252.3125 349.45L251.32812 349.45ZM248.0 346.34064Q248.0 347.54376 248.5 348.1375Q249.0 348.71564 249.6875 348.71564Q250.375 348.71564 250.85938 348.15314Q251.34375 347.59064 251.34375 346.4344Q251.34375 345.15314 250.84375 344.5594Q250.35938 343.96564 249.64062 343.96564Q248.9375 343.96564 248.46875 344.54376Q248.0 345.10626 248.0 346.34064ZM256.01562 349.45L253.65625 343.23126L254.76562 343.23126L256.10938 346.95Q256.3125 347.5594 256.5 348.2Q256.64062 347.71564 256.89062 347.02814L258.28125 343.23126L259.35938 343.23126L257.0 349.45L256.01562 349.45ZM260.29688 342.075L260.29688 340.85626L261.35938 340.85626L261.35938 342.075L260.29688 342.075ZM260.29688 349.45L260.29688 343.23126L261.35938 343.23126L261.35938 349.45L260.29688 349.45ZM262.875 347.59064L263.90625 347.4344Q264.0 348.0594 264.39062 348.3875Q264.79688 348.71564 265.53125 348.71564Q266.25 348.71564 266.59375 348.4344Q266.95312 348.1375 266.95312 347.73126Q266.95312 347.3719 266.64062 347.16876Q266.42188 347.02814 265.5625 346.8094Q264.40625 346.5125 263.95312 346.3094Q263.51562 346.09064 263.28125 345.71564Q263.04688 345.34064 263.04688 344.8719Q263.04688 344.46564 263.23438 344.10626Q263.42188 343.7469 263.75 343.5125Q264.0 343.34064 264.42188 343.21564Q264.84375 343.09064 265.34375 343.09064Q266.0625 343.09064 266.60938 343.3094Q267.17188 343.5125 267.4375 343.8719Q267.70312 344.23126 267.79688 344.825L266.76562 344.96564Q266.70312 344.4969 266.35938 344.23126Q266.03125 343.95 265.40625 343.95Q264.6875 343.95 264.375 344.2Q264.0625 344.4344 264.0625 344.7625Q264.0625 344.96564 264.1875 345.1219Q264.32812 345.29376 264.59375 345.40314Q264.75 345.46564 265.53125 345.66876Q266.65625 345.98126 267.09375 346.16876Q267.53125 346.35626 267.78125 346.71564Q268.03125 347.075 268.03125 347.6219Q268.03125 348.15314 267.71875 348.6219Q267.42188 349.075 266.84375 349.34064Q266.26562 349.59064 265.53125 349.59064Q264.3125 349.59064 263.67188 349.09064Q263.04688 348.575 262.875 347.59064ZM268.90625 346.34064Q268.90625 344.60626 269.85938 343.77814Q270.65625 343.09064 271.8125 343.09064Q273.09375 343.09064 273.90625 343.9344Q274.73438 344.7625 274.73438 346.2469Q274.73438 347.45 274.375 348.1375Q274.01562 348.825 273.3125 349.21564Q272.625 349.59064 271.8125 349.59064Q270.51562 349.59064 269.70312 348.7625Q268.90625 347.91876 268.90625 346.34064ZM269.98438 346.34064Q269.98438 347.52814 270.5 348.1219Q271.03125 348.71564 271.8125 348.71564Q272.60938 348.71564 273.125 348.1219Q273.64062 347.52814 273.64062 346.3094Q273.64062 345.15314 273.10938 344.5594Q272.59375 343.96564 271.8125 343.96564Q271.03125 343.96564 270.5 344.5594Q269.98438 345.1375 269.98438 346.34064ZM276.28125 349.45L276.28125 343.23126L277.23438 343.23126L277.23438 344.16876Q277.59375 343.5125 277.89062 343.3094Q278.20312 343.09064 278.57812 343.09064Q279.10938 343.09064 279.65625 343.41876L279.29688 344.40314Q278.90625 344.16876 278.53125 344.16876Q278.17188 344.16876 277.89062 344.3875Q277.625 344.59064 277.51562 344.96564Q277.32812 345.52814 277.32812 346.1844L277.32812 349.45L276.28125 349.45ZM280.25 351.84064L280.125 350.85626Q280.46875 350.95 280.73438 350.95Q281.07812 350.95 281.28125 350.825Q281.5 350.71564 281.64062 350.5125Q281.73438 350.34064 281.96875 349.71564Q281.98438 349.6375 282.0625 349.46564L279.6875 343.23126L280.82812 343.23126L282.125 346.825Q282.375 347.5125 282.57812 348.27814Q282.76562 347.54376 283.01562 346.85626L284.34375 343.23126L285.39062 343.23126L283.03125 349.5594Q282.64062 350.575 282.4375 350.96564Q282.15625 351.4969 281.78125 351.73126Q281.42188 351.98126 280.92188 351.98126Q280.625 351.98126 280.25 351.84064ZM289.42188 349.45L289.42188 340.85626L292.67188 340.85626Q293.51562 340.85626 293.96875 340.9344Q294.60938 341.04376 295.03125 341.34064Q295.46875 341.6375 295.71875 342.16876Q295.98438 342.7 295.98438 343.34064Q295.98438 344.4344 295.28125 345.2Q294.59375 345.95 292.76562 345.95L290.5625 345.95L290.5625 349.45L289.42188 349.45ZM290.5625 344.95L292.78125 344.95Q293.89062 344.95 294.34375 344.54376Q294.8125 344.1219 294.8125 343.3719Q294.8125 342.84064 294.53125 342.46564Q294.26562 342.075 293.82812 341.95Q293.53125 341.8719 292.76562 341.8719L290.5625 341.8719L290.5625 344.95ZM301.35938 348.6844Q300.76562 349.1844 300.21875 349.3875Q299.6875 349.59064 299.0625 349.59064Q298.03125 349.59064 297.48438 349.09064Q296.9375 348.59064 296.9375 347.8094Q296.9375 347.35626 297.14062 346.98126Q297.34375 346.59064 297.6875 346.3719Q298.03125 346.1375 298.45312 346.02814Q298.75 345.9344 299.39062 345.85626Q300.65625 345.71564 301.26562 345.4969Q301.26562 345.27814 301.26562 345.23126Q301.26562 344.575 300.96875 344.3094Q300.5625 343.96564 299.76562 343.96564Q299.03125 343.96564 298.67188 344.23126Q298.3125 344.48126 298.14062 345.1375L297.10938 344.9969Q297.25 344.34064 297.57812 343.9344Q297.90625 343.52814 298.51562 343.3094Q299.125 343.09064 299.92188 343.09064Q300.71875 343.09064 301.21875 343.27814Q301.71875 343.46564 301.95312 343.7469Q302.1875 344.02814 302.28125 344.46564Q302.32812 344.73126 302.32812 345.4344L302.32812 346.84064Q302.32812 348.3094 302.39062 348.7Q302.46875 349.09064 302.67188 349.45L301.5625 349.45Q301.40625 349.1219 301.35938 348.6844ZM301.26562 346.325Q300.6875 346.5594 299.54688 346.73126Q298.89062 346.825 298.625 346.95Q298.35938 347.0594 298.20312 347.27814Q298.0625 347.4969 298.0625 347.77814Q298.0625 348.2 298.375 348.48126Q298.70312 348.7625 299.3125 348.7625Q299.92188 348.7625 300.39062 348.4969Q300.875 348.23126 301.09375 347.7625Q301.26562 347.40314 301.26562 346.71564L301.26562 346.325ZM304.29688 349.45L304.29688 343.23126L305.23438 343.23126L305.23438 344.10626Q305.92188 343.09064 307.21875 343.09064Q307.78125 343.09064 308.25 343.29376Q308.73438 343.4969 308.96875 343.825Q309.20312 344.15314 309.29688 344.59064Q309.34375 344.8875 309.34375 345.6219L309.34375 349.45L308.29688 349.45L308.29688 345.66876Q308.29688 345.0125 308.17188 344.7Q308.04688 344.3875 307.73438 344.2Q307.42188 343.9969 307.0 343.9969Q306.32812 343.9969 305.82812 344.4344Q305.34375 344.85626 305.34375 346.04376L305.34375 349.45L304.29688 349.45ZM315.54688 347.45L316.64062 347.575Q316.39062 348.52814 315.6875 349.0594Q314.98438 349.59064 313.90625 349.59064Q312.54688 349.59064 311.73438 348.7469Q310.9375 347.90314 310.9375 346.3875Q310.9375 344.825 311.75 343.96564Q312.5625 343.09064 313.84375 343.09064Q315.09375 343.09064 315.875 343.9344Q316.67188 344.77814 316.67188 346.325Q316.67188 346.41876 316.67188 346.60626L312.03125 346.60626Q312.09375 347.6375 312.60938 348.1844Q313.125 348.71564 313.90625 348.71564Q314.48438 348.71564 314.89062 348.41876Q315.3125 348.10626 315.54688 347.45ZM312.09375 345.7469L315.5625 345.7469Q315.5 344.95 315.17188 344.5594Q314.65625 343.95 313.85938 343.95Q313.125 343.95 312.625 344.4344Q312.14062 344.91876 312.09375 345.7469ZM318.26562 349.45L318.26562 340.85626L319.32812 340.85626L319.32812 349.45L318.26562 349.45ZM326.875 349.45L323.54688 340.85626L324.78125 340.85626L327.01562 347.10626Q327.28125 347.85626 327.46875 348.5125Q327.67188 347.8094 327.9375 347.10626L330.25 340.85626L331.40625 340.85626L328.04688 349.45L326.875 349.45ZM332.29688 342.075L332.29688 340.85626L333.35938 340.85626L333.35938 342.075L332.29688 342.075ZM332.29688 349.45L332.29688 343.23126L333.35938 343.23126L333.35938 349.45L332.29688 349.45ZM334.875 347.59064L335.90625 347.4344Q336.0 348.0594 336.39062 348.3875Q336.79688 348.71564 337.53125 348.71564Q338.25 348.71564 338.59375 348.4344Q338.95312 348.1375 338.95312 347.73126Q338.95312 347.3719 338.64062 347.16876Q338.42188 347.02814 337.5625 346.8094Q336.40625 346.5125 335.95312 346.3094Q335.51562 346.09064 335.28125 345.71564Q335.04688 345.34064 335.04688 344.8719Q335.04688 344.46564 335.23438 344.10626Q335.42188 343.7469 335.75 343.5125Q336.0 343.34064 336.42188 343.21564Q336.84375 343.09064 337.34375 343.09064Q338.0625 343.09064 338.60938 343.3094Q339.17188 343.5125 339.4375 343.8719Q339.70312 344.23126 339.79688 344.825L338.76562 344.96564Q338.70312 344.4969 338.35938 344.23126Q338.03125 343.95 337.40625 343.95Q336.6875 343.95 336.375 344.2Q336.0625 344.4344 336.0625 344.7625Q336.0625 344.96564 336.1875 345.1219Q336.32812 345.29376 336.59375 345.40314Q336.75 345.46564 337.53125 345.66876Q338.65625 345.98126 339.09375 346.16876Q339.53125 346.35626 339.78125 346.71564Q340.03125 347.075 340.03125 347.6219Q340.03125 348.15314 339.71875 348.6219Q339.42188 349.075 338.84375 349.34064Q338.26562 349.59064 337.53125 349.59064Q336.3125 349.59064 335.67188 349.09064Q335.04688 348.575 334.875 347.59064ZM345.375 349.45L345.375 348.52814Q344.64062 349.59064 343.39062 349.59064Q342.84375 349.59064 342.35938 349.3875Q341.89062 349.16876 341.65625 348.85626Q341.42188 348.52814 341.32812 348.0594Q341.26562 347.7625 341.26562 347.075L341.26562 343.23126L342.32812 343.23126L342.32812 346.6844Q342.32812 347.4969 342.39062 347.79376Q342.48438 348.2 342.79688 348.45Q343.125 348.6844 343.60938 348.6844Q344.07812 348.6844 344.48438 348.45Q344.90625 348.2 345.07812 347.77814Q345.26562 347.35626 345.26562 346.5594L345.26562 343.23126L346.3125 343.23126L346.3125 349.45L345.375 349.45ZM352.35938 348.6844Q351.76562 349.1844 351.21875 349.3875Q350.6875 349.59064 350.0625 349.59064Q349.03125 349.59064 348.48438 349.09064Q347.9375 348.59064 347.9375 347.8094Q347.9375 347.35626 348.14062 346.98126Q348.34375 346.59064 348.6875 346.3719Q349.03125 346.1375 349.45312 346.02814Q349.75 345.9344 350.39062 345.85626Q351.65625 345.71564 352.26562 345.4969Q352.26562 345.27814 352.26562 345.23126Q352.26562 344.575 351.96875 344.3094Q351.5625 343.96564 350.76562 343.96564Q350.03125 343.96564 349.67188 344.23126Q349.3125 344.48126 349.14062 345.1375L348.10938 344.9969Q348.25 344.34064 348.57812 343.9344Q348.90625 343.52814 349.51562 343.3094Q350.125 343.09064 350.92188 343.09064Q351.71875 343.09064 352.21875 343.27814Q352.71875 343.46564 352.95312 343.7469Q353.1875 344.02814 353.28125 344.46564Q353.32812 344.73126 353.32812 345.4344L353.32812 346.84064Q353.32812 348.3094 353.39062 348.7Q353.46875 349.09064 353.67188 349.45L352.5625 349.45Q352.40625 349.1219 352.35938 348.6844ZM352.26562 346.325Q351.6875 346.5594 350.54688 346.73126Q349.89062 346.825 349.625 346.95Q349.35938 347.0594 349.20312 347.27814Q349.0625 347.4969 349.0625 347.77814Q349.0625 348.2 349.375 348.48126Q349.70312 348.7625 350.3125 348.7625Q350.92188 348.7625 351.39062 348.4969Q351.875 348.23126 352.09375 347.7625Q352.26562 347.40314 352.26562 346.71564L352.26562 346.325ZM355.26562 349.45L355.26562 340.85626L356.32812 340.85626L356.32812 349.45L355.26562 349.45ZM358.29688 342.075L358.29688 340.85626L359.35938 340.85626L359.35938 342.075L358.29688 342.075ZM358.29688 349.45L358.29688 343.23126L359.35938 343.23126L359.35938 349.45L358.29688 349.45ZM360.73438 349.45L360.73438 348.59064L364.70312 344.04376Q364.01562 344.075 363.5 344.075L360.96875 344.075L360.96875 343.23126L366.0625 343.23126L366.0625 343.91876L362.6875 347.8719L362.03125 348.59064Q362.75 348.54376 363.35938 348.54376L366.25 348.54376L366.25 349.45L360.73438 349.45ZM371.54688 347.45L372.64062 347.575Q372.39062 348.52814 371.6875 349.0594Q370.98438 349.59064 369.90625 349.59064Q368.54688 349.59064 367.73438 348.7469Q366.9375 347.90314 366.9375 346.3875Q366.9375 344.825 367.75 343.96564Q368.5625 343.09064 369.84375 343.09064Q371.09375 343.09064 371.875 343.9344Q372.67188 344.77814 372.67188 346.325Q372.67188 346.41876 372.67188 346.60626L368.03125 346.60626Q368.09375 347.6375 368.60938 348.1844Q369.125 348.71564 369.90625 348.71564Q370.48438 348.71564 370.89062 348.41876Q371.3125 348.10626 371.54688 347.45ZM368.09375 345.7469L371.5625 345.7469Q371.5 344.95 371.17188 344.5594Q370.65625 343.95 369.85938 343.95Q369.125 343.95 368.625 344.4344Q368.14062 344.91876 368.09375 345.7469ZM378.32812 349.45L378.32812 348.66876Q377.73438 349.59064 376.59375 349.59064Q375.84375 349.59064 375.21875 349.1844Q374.59375 348.7625 374.25 348.02814Q373.90625 347.29376 373.90625 346.34064Q373.90625 345.41876 374.21875 344.65314Q374.53125 343.8875 375.15625 343.4969Q375.78125 343.09064 376.54688 343.09064Q377.10938 343.09064 377.54688 343.325Q377.98438 343.5594 378.26562 343.9344L378.26562 340.85626L379.3125 340.85626L379.3125 349.45L378.32812 349.45ZM375.0 346.34064Q375.0 347.54376 375.5 348.1375Q376.0 348.71564 376.6875 348.71564Q377.375 348.71564 377.85938 348.15314Q378.34375 347.59064 378.34375 346.4344Q378.34375 345.15314 377.84375 344.5594Q377.35938 343.96564 376.64062 343.96564Q375.9375 343.96564 375.46875 344.54376Q375.0 345.10626 375.0 346.34064ZM386.3125 351.98126Q385.4375 350.8719 384.82812 349.40314Q384.23438 347.91876 384.23438 346.34064Q384.23438 344.95 384.67188 343.66876Q385.20312 342.1844 386.3125 340.71564L387.0625 340.71564Q386.35938 341.9344 386.125 342.45Q385.76562 343.2625 385.5625 344.1375Q385.3125 345.23126 385.3125 346.34064Q385.3125 349.16876 387.0625 351.98126L386.3125 351.98126ZM388.42188 349.45L388.42188 340.85626L389.57812 340.85626L394.09375 347.60626L394.09375 340.85626L395.1875 340.85626L395.1875 349.45L394.01562 349.45L389.5 342.7L389.5 349.45L388.42188 349.45ZM396.90625 346.34064Q396.90625 344.60626 397.85938 343.77814Q398.65625 343.09064 399.8125 343.09064Q401.09375 343.09064 401.90625 343.9344Q402.73438 344.7625 402.73438 346.2469Q402.73438 347.45 402.375 348.1375Q402.01562 348.825 401.3125 349.21564Q400.625 349.59064 399.8125 349.59064Q398.51562 349.59064 397.70312 348.7625Q396.90625 347.91876 396.90625 346.34064ZM397.98438 346.34064Q397.98438 347.52814 398.5 348.1219Q399.03125 348.71564 399.8125 348.71564Q400.60938 348.71564 401.125 348.1219Q401.64062 347.52814 401.64062 346.3094Q401.64062 345.15314 401.10938 344.5594Q400.59375 343.96564 399.8125 343.96564Q399.03125 343.96564 398.5 344.5594Q397.98438 345.1375 397.98438 346.34064ZM406.48438 349.45L409.78125 340.85626L411.0 340.85626L414.51562 349.45L413.23438 349.45L412.21875 346.84064L408.64062 346.84064L407.6875 349.45L406.48438 349.45ZM408.96875 345.91876L411.875 345.91876L410.98438 343.54376Q410.5625 342.46564 410.375 341.7625Q410.20312 342.59064 409.90625 343.40314L408.96875 345.91876ZM416.26562 349.45L415.28125 349.45L415.28125 340.85626L416.34375 340.85626L416.34375 343.91876Q417.01562 343.09064 418.04688 343.09064Q418.625 343.09064 419.125 343.325Q419.64062 343.54376 419.96875 343.96564Q420.3125 344.3875 420.5 344.98126Q420.6875 345.575 420.6875 346.2469Q420.6875 347.84064 419.89062 348.71564Q419.09375 349.59064 418.0 349.59064Q416.89062 349.59064 416.26562 348.66876L416.26562 349.45ZM416.25 346.29376Q416.25 347.40314 416.5625 347.90314Q417.0625 348.71564 417.90625 348.71564Q418.59375 348.71564 419.09375 348.1219Q419.60938 347.52814 419.60938 346.325Q419.60938 345.10626 419.125 344.52814Q418.64062 343.95 417.95312 343.95Q417.26562 343.95 416.75 344.5594Q416.25 345.15314 416.25 346.29376ZM421.875 347.59064L422.90625 347.4344Q423.0 348.0594 423.39062 348.3875Q423.79688 348.71564 424.53125 348.71564Q425.25 348.71564 425.59375 348.4344Q425.95312 348.1375 425.95312 347.73126Q425.95312 347.3719 425.64062 347.16876Q425.42188 347.02814 424.5625 346.8094Q423.40625 346.5125 422.95312 346.3094Q422.51562 346.09064 422.28125 345.71564Q422.04688 345.34064 422.04688 344.8719Q422.04688 344.46564 422.23438 344.10626Q422.42188 343.7469 422.75 343.5125Q423.0 343.34064 423.42188 343.21564Q423.84375 343.09064 424.34375 343.09064Q425.0625 343.09064 425.60938 343.3094Q426.17188 343.5125 426.4375 343.8719Q426.70312 344.23126 426.79688 344.825L425.76562 344.96564Q425.70312 344.4969 425.35938 344.23126Q425.03125 343.95 424.40625 343.95Q423.6875 343.95 423.375 344.2Q423.0625 344.4344 423.0625 344.7625Q423.0625 344.96564 423.1875 345.1219Q423.32812 345.29376 423.59375 345.40314Q423.75 345.46564 424.53125 345.66876Q425.65625 345.98126 426.09375 346.16876Q426.53125 346.35626 426.78125 346.71564Q427.03125 347.075 427.03125 347.6219Q427.03125 348.15314 426.71875 348.6219Q426.42188 349.075 425.84375 349.34064Q425.26562 349.59064 424.53125 349.59064Q423.3125 349.59064 422.67188 349.09064Q422.04688 348.575 421.875 347.59064ZM430.59375 348.5125L430.75 349.4344Q430.29688 349.52814 429.95312 349.52814Q429.375 349.52814 429.0625 349.35626Q428.75 349.16876 428.60938 348.8719Q428.48438 348.575 428.48438 347.6219L428.48438 344.04376L427.71875 344.04376L427.71875 343.23126L428.48438 343.23126L428.48438 341.6844L429.53125 341.0594L429.53125 343.23126L430.59375 343.23126L430.59375 344.04376L429.53125 344.04376L429.53125 347.6844Q429.53125 348.1375 429.57812 348.2625Q429.64062 348.3875 429.76562 348.46564Q429.89062 348.54376 430.125 348.54376Q430.3125 348.54376 430.59375 348.5125ZM435.35938 348.6844Q434.76562 349.1844 434.21875 349.3875Q433.6875 349.59064 433.0625 349.59064Q432.03125 349.59064 431.48438 349.09064Q430.9375 348.59064 430.9375 347.8094Q430.9375 347.35626 431.14062 346.98126Q431.34375 346.59064 431.6875 346.3719Q432.03125 346.1375 432.45312 346.02814Q432.75 345.9344 433.39062 345.85626Q434.65625 345.71564 435.26562 345.4969Q435.26562 345.27814 435.26562 345.23126Q435.26562 344.575 434.96875 344.3094Q434.5625 343.96564 433.76562 343.96564Q433.03125 343.96564 432.67188 344.23126Q432.3125 344.48126 432.14062 345.1375L431.10938 344.9969Q431.25 344.34064 431.57812 343.9344Q431.90625 343.52814 432.51562 343.3094Q433.125 343.09064 433.92188 343.09064Q434.71875 343.09064 435.21875 343.27814Q435.71875 343.46564 435.95312 343.7469Q436.1875 344.02814 436.28125 344.46564Q436.32812 344.73126 436.32812 345.4344L436.32812 346.84064Q436.32812 348.3094 436.39062 348.7Q436.46875 349.09064 436.67188 349.45L435.5625 349.45Q435.40625 349.1219 435.35938 348.6844ZM435.26562 346.325Q434.6875 346.5594 433.54688 346.73126Q432.89062 346.825 432.625 346.95Q432.35938 347.0594 432.20312 347.27814Q432.0625 347.4969 432.0625 347.77814Q432.0625 348.2 432.375 348.48126Q432.70312 348.7625 433.3125 348.7625Q433.92188 348.7625 434.39062 348.4969Q434.875 348.23126 435.09375 347.7625Q435.26562 347.40314 435.26562 346.71564L435.26562 346.325ZM438.29688 342.075L438.29688 340.85626L439.35938 340.85626L439.35938 342.075L438.29688 342.075ZM438.29688 349.45L438.29688 343.23126L439.35938 343.23126L439.35938 349.45L438.29688 349.45ZM441.29688 349.45L441.29688 343.23126L442.23438 343.23126L442.23438 344.10626Q442.92188 343.09064 444.21875 343.09064Q444.78125 343.09064 445.25 343.29376Q445.73438 343.4969 445.96875 343.825Q446.20312 344.15314 446.29688 344.59064Q446.34375 344.8875 446.34375 345.6219L446.34375 349.45L445.29688 349.45L445.29688 345.66876Q445.29688 345.0125 445.17188 344.7Q445.04688 344.3875 444.73438 344.2Q444.42188 343.9969 444.0 343.9969Q443.32812 343.9969 442.82812 344.4344Q442.34375 344.85626 442.34375 346.04376L442.34375 349.45L441.29688 349.45ZM447.875 347.59064L448.90625 347.4344Q449.0 348.0594 449.39062 348.3875Q449.79688 348.71564 450.53125 348.71564Q451.25 348.71564 451.59375 348.4344Q451.95312 348.1375 451.95312 347.73126Q451.95312 347.3719 451.64062 347.16876Q451.42188 347.02814 450.5625 346.8094Q449.40625 346.5125 448.95312 346.3094Q448.51562 346.09064 448.28125 345.71564Q448.04688 345.34064 448.04688 344.8719Q448.04688 344.46564 448.23438 344.10626Q448.42188 343.7469 448.75 343.5125Q449.0 343.34064 449.42188 343.21564Q449.84375 343.09064 450.34375 343.09064Q451.0625 343.09064 451.60938 343.3094Q452.17188 343.5125 452.4375 343.8719Q452.70312 344.23126 452.79688 344.825L451.76562 344.96564Q451.70312 344.4969 451.35938 344.23126Q451.03125 343.95 450.40625 343.95Q449.6875 343.95 449.375 344.2Q449.0625 344.4344 449.0625 344.7625Q449.0625 344.96564 449.1875 345.1219Q449.32812 345.29376 449.59375 345.40314Q449.75 345.46564 450.53125 345.66876Q451.65625 345.98126 452.09375 346.16876Q452.53125 346.35626 452.78125 346.71564Q453.03125 347.075 453.03125 347.6219Q453.03125 348.15314 452.71875 348.6219Q452.42188 349.075 451.84375 349.34064Q451.26562 349.59064 450.53125 349.59064Q449.3125 349.59064 448.67188 349.09064Q448.04688 348.575 447.875 347.59064ZM454.98438 351.98126L454.23438 351.98126Q455.98438 349.16876 455.98438 346.34064Q455.98438 345.2469 455.73438 344.15314Q455.53125 343.27814 455.17188 342.46564Q454.9375 341.95 454.23438 340.71564L454.98438 340.71564Q456.07812 342.1844 456.60938 343.66876Q457.0625 344.95 457.0625 346.34064Q457.0625 347.91876 456.45312 349.40314Q455.84375 350.8719 454.98438 351.98126Z" fill-rule="nonzero"/><path fill="#000000" d="M26.05 300.21564Q26.05 298.6844 26.3625 297.7625Q26.675 296.825 27.284374 296.325Q27.909374 295.825 28.846874 295.825Q29.534374 295.825 30.05 296.10626Q30.58125 296.3875 30.925 296.91876Q31.26875 297.4344 31.45625 298.1844Q31.64375 298.9344 31.64375 300.21564Q31.64375 301.73126 31.33125 302.65314Q31.034374 303.575 30.409374 304.09064Q29.8 304.59064 28.846874 304.59064Q27.6125 304.59064 26.89375 303.7Q26.05 302.6375 26.05 300.21564ZM27.128124 300.21564Q27.128124 302.325 27.628124 303.02814Q28.128124 303.73126 28.846874 303.73126Q29.58125 303.73126 30.065624 303.02814Q30.565624 302.325 30.565624 300.21564Q30.565624 298.09064 30.065624 297.40314Q29.58125 296.7 28.83125 296.7Q28.1125 296.7 27.675 297.3094Q27.128124 298.09064 27.128124 300.21564ZM33.253124 297.91876Q33.253124 296.9969 33.70625 296.35626Q34.175 295.71564 35.05 295.71564Q35.8625 295.71564 36.39375 296.29376Q36.925 296.8719 36.925 297.98126Q36.925 299.075 36.378124 299.66876Q35.846874 300.2469 35.065624 300.2469Q34.284374 300.2469 33.76875 299.66876Q33.253124 299.09064 33.253124 297.91876ZM35.08125 296.4344Q34.690624 296.4344 34.425 296.77814Q34.175 297.1219 34.175 298.02814Q34.175 298.85626 34.425 299.2Q34.690624 299.52814 35.08125 299.52814Q35.4875 299.52814 35.7375 299.1844Q36.003124 298.84064 36.003124 297.95Q36.003124 297.10626 35.7375 296.77814Q35.471874 296.4344 35.08125 296.4344ZM35.08125 304.7625L39.784374 295.71564L40.64375 295.71564L35.95625 304.7625L35.08125 304.7625ZM38.8 302.4344Q38.8 301.5125 39.253124 300.8719Q39.721874 300.23126 40.6125 300.23126Q41.425 300.23126 41.95625 300.8094Q42.4875 301.3719 42.4875 302.4969Q42.4875 303.59064 41.940624 304.1844Q41.409374 304.7625 40.6125 304.7625Q39.846874 304.7625 39.315624 304.1844Q38.8 303.60626 38.8 302.4344ZM40.64375 300.95Q40.2375 300.95 39.971874 301.29376Q39.721874 301.6375 39.721874 302.54376Q39.721874 303.35626 39.9875 303.7Q40.253124 304.04376 40.64375 304.04376Q41.034374 304.04376 41.3 303.7Q41.565624 303.35626 41.565624 302.45Q41.565624 301.6219 41.3 301.29376Q41.034374 300.95 40.64375 300.95Z" fill-rule="nonzero"/><path fill="#000000" d="M24.596874 241.30104L24.596874 242.31667L18.909374 242.31667Q18.909374 241.94167 19.034374 241.58229Q19.253124 241.00417 19.721874 240.44167Q20.20625 239.87917 21.1125 239.14479Q22.51875 237.98854 23.003124 237.31667Q23.503124 236.64479 23.503124 236.05104Q23.503124 235.42604 23.05 235.00417Q22.596874 234.56667 21.878124 234.56667Q21.1125 234.56667 20.659374 235.01979Q20.20625 235.47292 20.190624 236.28542L19.1125 236.17604Q19.221874 234.95729 19.940624 234.33229Q20.675 233.69167 21.909374 233.69167Q23.14375 233.69167 23.8625 234.37917Q24.58125 235.06667 24.58125 236.08229Q24.58125 236.59792 24.3625 237.09792Q24.159374 237.58229 23.659374 238.14479Q23.175 238.69167 22.05 239.64479Q21.096874 240.44167 20.815624 240.73854Q20.55 241.01979 20.378124 241.30104L24.596874 241.30104ZM26.05 240.06667L27.159374 239.97292Q27.284374 240.78542 27.721874 241.19167Q28.175 241.59792 28.815624 241.59792Q29.565624 241.59792 30.096874 241.01979Q30.628124 240.44167 30.628124 239.50417Q30.628124 238.59792 30.1125 238.08229Q29.6125 237.55104 28.784374 237.55104Q28.284374 237.55104 27.8625 237.78542Q27.45625 238.01979 27.221874 238.37917L26.2375 238.25417L27.065624 233.84792L31.346874 233.84792L31.346874 234.84792L27.909374 234.84792L27.45625 237.16042Q28.221874 236.61354 29.065624 236.61354Q30.190624 236.61354 30.95625 237.39479Q31.7375 238.17604 31.7375 239.41042Q31.7375 240.56667 31.065624 241.42604Q30.2375 242.45729 28.815624 242.45729Q27.64375 242.45729 26.89375 241.80104Q26.159374 241.14479 26.05 240.06667ZM33.253124 235.78542Q33.253124 234.86354 33.70625 234.22292Q34.175 233.58229 35.05 233.58229Q35.8625 233.58229 36.39375 234.16042Q36.925 234.73854 36.925 235.84792Q36.925 236.94167 36.378124 237.53542Q35.846874 238.11354 35.065624 238.11354Q34.284374 238.11354 33.76875 237.53542Q33.253124 236.95729 33.253124 235.78542ZM35.08125 234.30104Q34.690624 234.30104 34.425 234.64479Q34.175 234.98854 34.175 235.89479Q34.175 236.72292 34.425 237.06667Q34.690624 237.39479 35.08125 237.39479Q35.4875 237.39479 35.7375 237.05104Q36.003124 236.70729 36.003124 235.81667Q36.003124 234.97292 35.7375 234.64479Q35.471874 234.30104 35.08125 234.30104ZM35.08125 242.62917L39.784374 233.58229L40.64375 233.58229L35.95625 242.62917L35.08125 242.62917ZM38.8 240.30104Q38.8 239.37917 39.253124 238.73854Q39.721874 238.09792 40.6125 238.09792Q41.425 238.09792 41.95625 238.67604Q42.4875 239.23854 42.4875 240.36354Q42.4875 241.45729 41.940624 242.05104Q41.409374 242.62917 40.6125 242.62917Q39.846874 242.62917 39.315624 242.05104Q38.8 241.47292 38.8 240.30104ZM40.64375 238.81667Q40.2375 238.81667 39.971874 239.16042Q39.721874 239.50417 39.721874 240.41042Q39.721874 241.22292 39.9875 241.56667Q40.253124 241.91042 40.64375 241.91042Q41.034374 241.91042 41.3 241.56667Q41.565624 241.22292 41.565624 240.31667Q41.565624 239.48854 41.3 239.16042Q41.034374 238.81667 40.64375 238.81667Z" fill-rule="nonzero"/><path fill="#000000" d="M19.05 177.93333L20.159374 177.83958Q20.284374 178.65208 20.721874 179.05833Q21.175 179.46458 21.815624 179.46458Q22.565624 179.46458 23.096874 178.88646Q23.628124 178.30833 23.628124 177.37083Q23.628124 176.46458 23.1125 175.94896Q22.6125 175.41771 21.784374 175.41771Q21.284374 175.41771 20.8625 175.65208Q20.45625 175.88646 20.221874 176.24583L19.2375 176.12083L20.065624 171.71458L24.346874 171.71458L24.346874 172.71458L20.909374 172.71458L20.45625 175.02708Q21.221874 174.48021 22.065624 174.48021Q23.190624 174.48021 23.95625 175.26146Q24.7375 176.04271 24.7375 177.27708Q24.7375 178.43333 24.065624 179.29271Q23.2375 180.32396 21.815624 180.32396Q20.64375 180.32396 19.89375 179.66771Q19.159374 179.01146 19.05 177.93333ZM26.05 175.94896Q26.05 174.41771 26.3625 173.49583Q26.675 172.55833 27.284374 172.05833Q27.909374 171.55833 28.846874 171.55833Q29.534374 171.55833 30.05 171.83958Q30.58125 172.12083 30.925 172.65208Q31.26875 173.16771 31.45625 173.91771Q31.64375 174.66771 31.64375 175.94896Q31.64375 177.46458 31.33125 178.38646Q31.034374 179.30833 30.409374 179.82396Q29.8 180.32396 28.846874 180.32396Q27.6125 180.32396 26.89375 179.43333Q26.05 178.37083 26.05 175.94896ZM27.128124 175.94896Q27.128124 178.05833 27.628124 178.76146Q28.128124 179.46458 28.846874 179.46458Q29.58125 179.46458 30.065624 178.76146Q30.565624 178.05833 30.565624 175.94896Q30.565624 173.82396 30.065624 173.13646Q29.58125 172.43333 28.83125 172.43333Q28.1125 172.43333 27.675 173.04271Q27.128124 173.82396 27.128124 175.94896ZM33.253124 173.65208Q33.253124 172.73021 33.70625 172.08958Q34.175 171.44896 35.05 171.44896Q35.8625 171.44896 36.39375 172.02708Q36.925 172.60521 36.925 173.71458Q36.925 174.80833 36.378124 175.40208Q35.846874 175.98021 35.065624 175.98021Q34.284374 175.98021 33.76875 175.40208Q33.253124 174.82396 33.253124 173.65208ZM35.08125 172.16771Q34.690624 172.16771 34.425 172.51146Q34.175 172.85521 34.175 173.76146Q34.175 174.58958 34.425 174.93333Q34.690624 175.26146 35.08125 175.26146Q35.4875 175.26146 35.7375 174.91771Q36.003124 174.57396 36.003124 173.68333Q36.003124 172.83958 35.7375 172.51146Q35.471874 172.16771 35.08125 172.16771ZM35.08125 180.49583L39.784374 171.44896L40.64375 171.44896L35.95625 180.49583L35.08125 180.49583ZM38.8 178.16771Q38.8 177.24583 39.253124 176.60521Q39.721874 175.96458 40.6125 175.96458Q41.425 175.96458 41.95625 176.54271Q42.4875 177.10521 42.4875 178.23021Q42.4875 179.32396 41.940624 179.91771Q41.409374 180.49583 40.6125 180.49583Q39.846874 180.49583 39.315624 179.91771Q38.8 179.33958 38.8 178.16771ZM40.64375 176.68333Q40.2375 176.68333 39.971874 177.02708Q39.721874 177.37083 39.721874 178.27708Q39.721874 179.08958 39.9875 179.43333Q40.253124 179.77708 40.64375 179.77708Q41.034374 179.77708 41.3 179.43333Q41.565624 179.08958 41.565624 178.18333Q41.565624 177.35521 41.3 177.02708Q41.034374 176.68333 40.64375 176.68333Z" fill-rule="nonzero"/><path fill="#000000" d="M19.1125 110.58125L19.1125 109.56563L24.675 109.56563L24.675 110.39375Q23.8625 111.26875 23.05 112.72188Q22.253124 114.15938 21.815624 115.69063Q21.4875 116.76875 21.409374 118.05L20.315624 118.05Q20.33125 117.03438 20.70625 115.59688Q21.096874 114.15938 21.8 112.83125Q22.51875 111.50313 23.33125 110.58125L19.1125 110.58125ZM26.05 115.8L27.159374 115.70625Q27.284374 116.51875 27.721874 116.925Q28.175 117.33125 28.815624 117.33125Q29.565624 117.33125 30.096874 116.75313Q30.628124 116.175 30.628124 115.2375Q30.628124 114.33125 30.1125 113.81563Q29.6125 113.28438 28.784374 113.28438Q28.284374 113.28438 27.8625 113.51875Q27.45625 113.75313 27.221874 114.1125L26.2375 113.9875L27.065624 109.58125L31.346874 109.58125L31.346874 110.58125L27.909374 110.58125L27.45625 112.89375Q28.221874 112.34688 29.065624 112.34688Q30.190624 112.34688 30.95625 113.12813Q31.7375 113.90938 31.7375 115.14375Q31.7375 116.3 31.065624 117.15938Q30.2375 118.19063 28.815624 118.19063Q27.64375 118.19063 26.89375 117.53438Q26.159374 116.87813 26.05 115.8ZM33.253124 111.51875Q33.253124 110.59688 33.70625 109.95625Q34.175 109.31563 35.05 109.31563Q35.8625 109.31563 36.39375 109.89375Q36.925 110.47188 36.925 111.58125Q36.925 112.675 36.378124 113.26875Q35.846874 113.84688 35.065624 113.84688Q34.284374 113.84688 33.76875 113.26875Q33.253124 112.69063 33.253124 111.51875ZM35.08125 110.03438Q34.690624 110.03438 34.425 110.37813Q34.175 110.72188 34.175 111.62813Q34.175 112.45625 34.425 112.8Q34.690624 113.12813 35.08125 113.12813Q35.4875 113.12813 35.7375 112.78438Q36.003124 112.44063 36.003124 111.55Q36.003124 110.70625 35.7375 110.37813Q35.471874 110.03438 35.08125 110.03438ZM35.08125 118.3625L39.784374 109.31563L40.64375 109.31563L35.95625 118.3625L35.08125 118.3625ZM38.8 116.03438Q38.8 115.1125 39.253124 114.47188Q39.721874 113.83125 40.6125 113.83125Q41.425 113.83125 41.95625 114.40938Q42.4875 114.97188 42.4875 116.09688Q42.4875 117.19063 41.940624 117.78438Q41.409374 118.3625 40.6125 118.3625Q39.846874 118.3625 39.315624 117.78438Q38.8 117.20625 38.8 116.03438ZM40.64375 114.55Q40.2375 114.55 39.971874 114.89375Q39.721874 115.2375 39.721874 116.14375Q39.721874 116.95625 39.9875 117.3Q40.253124 117.64375 40.64375 117.64375Q41.034374 117.64375 41.3 117.3Q41.565624 116.95625 41.565624 116.05Q41.565624 115.22188 41.3 114.89375Q41.034374 114.55 40.64375 114.55Z" fill-rule="nonzero"/><path fill="#000000" d="M77.41257 317.45L76.36569 317.45L76.36569 310.73126Q75.97507 311.09064 75.35007 311.46564Q74.74069 311.825 74.25632 311.9969L74.25632 310.98126Q75.13132 310.5594 75.78757 309.98126Q76.45944 309.3875 76.74069 308.825L77.41257 308.825L77.41257 317.45Z" fill-rule="nonzero"/><path fill="#000000" d="M118.83339 316.4344L118.83339 317.45L113.14589 317.45Q113.14589 317.075 113.27089 316.71564Q113.48964 316.1375 113.95839 315.575Q114.442764 315.0125 115.349014 314.27814Q116.755264 313.1219 117.23964 312.45Q117.73964 311.77814 117.73964 311.1844Q117.73964 310.5594 117.286514 310.1375Q116.83339 309.7 116.11464 309.7Q115.349014 309.7 114.89589 310.15314Q114.442764 310.60626 114.42714 311.41876L113.349014 311.3094Q113.45839 310.09064 114.17714 309.46564Q114.911514 308.825 116.14589 308.825Q117.380264 308.825 118.099014 309.5125Q118.817764 310.2 118.817764 311.21564Q118.817764 311.73126 118.599014 312.23126Q118.39589 312.71564 117.89589 313.27814Q117.411514 313.825 116.286514 314.77814Q115.33339 315.575 115.05214 315.8719Q114.786514 316.15314 114.61464 316.4344L118.83339 316.4344Z" fill-rule="nonzero"/><path fill="#000000" d="M153.12921 315.1844L154.19171 315.04376Q154.36359 315.9344 154.80109 316.34064Q155.23859 316.73126 155.86359 316.73126Q156.61359 316.73126 157.12921 316.21564Q157.64484 315.7 157.64484 314.9344Q157.64484 314.21564 157.16046 313.7469Q156.69171 313.2625 155.95734 313.2625Q155.66046 313.2625 155.20734 313.3875L155.33234 312.45Q155.44171 312.46564 155.50421 312.46564Q156.17609 312.46564 156.70734 312.1219Q157.25421 311.7625 157.25421 311.02814Q157.25421 310.45 156.86359 310.075Q156.47296 309.6844 155.84796 309.6844Q155.23859 309.6844 154.81671 310.075Q154.41046 310.46564 154.30109 311.23126L153.23859 311.04376Q153.42609 309.9969 154.11359 309.41876Q154.80109 308.825 155.81671 308.825Q156.51984 308.825 157.11359 309.1375Q157.70734 309.4344 158.01984 309.95Q158.33234 310.46564 158.33234 311.0594Q158.33234 311.60626 158.03546 312.075Q157.73859 312.52814 157.16046 312.79376Q157.91046 312.96564 158.33234 313.52814Q158.75421 314.075 158.75421 314.91876Q158.75421 316.04376 157.92609 316.825Q157.11359 317.60626 155.86359 317.60626Q154.73859 317.60626 153.98859 316.9344Q153.23859 316.2469 153.12921 315.1844Z" fill-rule="nonzero"/><path fill="#000000" d="M196.34691 317.45L196.34691 315.3875L192.62816 315.3875L192.62816 314.41876L196.55003 308.85626L197.40941 308.85626L197.40941 314.41876L198.56566 314.41876L198.56566 315.3875L197.40941 315.3875L197.40941 317.45L196.34691 317.45ZM196.34691 314.41876L196.34691 310.5594L193.65941 314.41876L196.34691 314.41876Z" fill-rule="nonzero"/><path fill="#000000" d="M232.8146 315.2L233.92398 315.10626Q234.04898 315.91876 234.48648 316.325Q234.9396 316.73126 235.58023 316.73126Q236.33023 316.73126 236.86148 316.15314Q237.39273 315.575 237.39273 314.6375Q237.39273 313.73126 236.8771 313.21564Q236.3771 312.6844 235.54898 312.6844Q235.04898 312.6844 234.6271 312.91876Q234.22086 313.15314 233.98648 313.5125L233.0021 313.3875L233.83023 308.98126L238.11148 308.98126L238.11148 309.98126L234.67398 309.98126L234.22086 312.29376Q234.98648 311.7469 235.83023 311.7469Q236.95523 311.7469 237.72086 312.52814Q238.5021 313.3094 238.5021 314.54376Q238.5021 315.7 237.83023 316.5594Q237.0021 317.59064 235.58023 317.59064Q234.40836 317.59064 233.65836 316.9344Q232.92398 316.27814 232.8146 315.2Z" fill-rule="nonzero"/><path fill="#000000" d="M278.12607 310.96564L277.0792 311.04376Q276.93857 310.41876 276.68857 310.1375Q276.25107 309.6844 275.62607 309.6844Q275.12607 309.6844 274.73544 309.96564Q274.25107 310.34064 273.9542 311.04376Q273.67294 311.73126 273.65732 313.0125Q274.03232 312.4344 274.5792 312.15314Q275.1417 311.8719 275.75107 311.8719Q276.79794 311.8719 277.53232 312.65314Q278.28232 313.4344 278.28232 314.65314Q278.28232 315.46564 277.92294 316.16876Q277.5792 316.85626 276.96982 317.23126Q276.36044 317.59064 275.59482 317.59064Q274.2667 317.59064 273.43857 316.6219Q272.61044 315.65314 272.61044 313.4344Q272.61044 310.9344 273.53232 309.8094Q274.3292 308.825 275.68857 308.825Q276.7042 308.825 277.34482 309.40314Q278.00107 309.96564 278.12607 310.96564ZM273.8292 314.66876Q273.8292 315.21564 274.04794 315.71564Q274.28232 316.2 274.68857 316.46564Q275.11044 316.73126 275.5792 316.73126Q276.23544 316.73126 276.71982 316.2Q277.2042 315.65314 277.2042 314.73126Q277.2042 313.84064 276.71982 313.325Q276.25107 312.8094 275.53232 312.8094Q274.81357 312.8094 274.31357 313.325Q273.8292 313.84064 273.8292 314.66876Z" fill-rule="nonzero"/><path fill="#000000" d="M312.5625 309.98126L312.5625 308.96564L318.125 308.96564L318.125 309.79376Q317.3125 310.66876 316.5 312.1219Q315.70312 313.5594 315.26562 315.09064Q314.9375 316.16876 314.85938 317.45L313.76562 317.45Q313.78125 316.4344 314.15625 314.9969Q314.54688 313.5594 315.25 312.23126Q315.96875 310.90314 316.78125 309.98126L312.5625 309.98126Z" fill-rule="nonzero"/><path fill="#000000" d="M353.96768 312.79376Q353.31143 312.54376 352.9833 312.10626Q352.6708 311.65314 352.6708 311.04376Q352.6708 310.10626 353.34268 309.46564Q354.03018 308.825 355.13956 308.825Q356.26456 308.825 356.95206 309.48126Q357.63956 310.1375 357.63956 311.075Q357.63956 311.66876 357.32706 312.10626Q357.01456 312.54376 356.37393 312.79376Q357.1708 313.04376 357.57706 313.6219Q357.9833 314.2 357.9833 314.9969Q357.9833 316.09064 357.20206 316.84064Q356.43643 317.59064 355.15518 317.59064Q353.88956 317.59064 353.1083 316.84064Q352.32706 316.09064 352.32706 314.96564Q352.32706 314.1219 352.74893 313.5594Q353.18643 312.9969 353.96768 312.79376ZM353.74893 310.9969Q353.74893 311.60626 354.13956 311.9969Q354.5458 312.3875 355.1708 312.3875Q355.78018 312.3875 356.1708 312.0125Q356.56143 311.6219 356.56143 311.0594Q356.56143 310.48126 356.15518 310.09064Q355.74893 309.6844 355.15518 309.6844Q354.5458 309.6844 354.13956 310.075Q353.74893 310.46564 353.74893 310.9969ZM353.4208 314.96564Q353.4208 315.41876 353.62393 315.84064Q353.84268 316.2625 354.26456 316.4969Q354.68643 316.73126 355.1708 316.73126Q355.9208 316.73126 356.40518 316.2469Q356.90518 315.7625 356.90518 315.0125Q356.90518 314.2469 356.40518 313.7469Q355.90518 313.2469 355.13956 313.2469Q354.38956 313.2469 353.90518 313.7469Q353.4208 314.23126 353.4208 314.96564Z" fill-rule="nonzero"/><path fill="#000000" d="M392.34164 315.46564L393.35727 315.3719Q393.48227 316.09064 393.84164 316.41876Q394.21664 316.73126 394.77914 316.73126Q395.26352 316.73126 395.6229 316.5125Q395.9979 316.27814 396.23227 315.91876Q396.46664 315.54376 396.6229 314.91876Q396.77914 314.27814 396.77914 313.6219Q396.77914 313.54376 396.77914 313.40314Q396.46664 313.90314 395.91977 314.23126Q395.3729 314.54376 394.73227 314.54376Q393.65414 314.54376 392.91977 313.77814Q392.1854 312.9969 392.1854 311.73126Q392.1854 310.41876 392.95102 309.6219Q393.73227 308.825 394.88852 308.825Q395.71664 308.825 396.40414 309.27814Q397.10727 309.73126 397.46664 310.575Q397.82602 311.40314 397.82602 312.98126Q397.82602 314.6219 397.46664 315.60626Q397.1229 316.575 396.40414 317.09064Q395.70102 317.59064 394.76352 317.59064Q393.7479 317.59064 393.10727 317.04376Q392.46664 316.48126 392.34164 315.46564ZM396.65414 311.66876Q396.65414 310.7625 396.16977 310.23126Q395.70102 309.7 395.01352 309.7Q394.3104 309.7 393.77914 310.27814Q393.26352 310.84064 393.26352 311.7625Q393.26352 312.575 393.76352 313.09064Q394.26352 313.60626 394.98227 313.60626Q395.71664 313.60626 396.1854 313.09064Q396.65414 312.575 396.65414 311.66876Z" fill-rule="nonzero"/><path fill="#000000" d="M432.49683 317.45L431.44995 317.45L431.44995 310.73126Q431.05933 311.09064 430.43433 311.46564Q429.82495 311.825 429.34058 311.9969L429.34058 310.98126Q430.21558 310.5594 430.87183 309.98126Q431.5437 309.3875 431.82495 308.825L432.49683 308.825L432.49683 317.45ZM435.52808 313.21564Q435.52808 311.6844 435.84058 310.7625Q436.15308 309.825 436.76245 309.325Q437.38745 308.825 438.32495 308.825Q439.01245 308.825 439.52808 309.10626Q440.05933 309.3875 440.40308 309.91876Q440.74683 310.4344 440.93433 311.1844Q441.12183 311.9344 441.12183 313.21564Q441.12183 314.73126 440.80933 315.65314Q440.51245 316.575 439.88745 317.09064Q439.27808 317.59064 438.32495 317.59064Q437.09058 317.59064 436.37183 316.7Q435.52808 315.6375 435.52808 313.21564ZM436.6062 313.21564Q436.6062 315.325 437.1062 316.02814Q437.6062 316.73126 438.32495 316.73126Q439.05933 316.73126 439.5437 316.02814Q440.0437 315.325 440.0437 313.21564Q440.0437 311.09064 439.5437 310.40314Q439.05933 309.7 438.30933 309.7Q437.59058 309.7 437.15308 310.3094Q436.6062 311.09064 436.6062 313.21564Z" fill-rule="nonzero"/><path fill="#000000" d="M472.33954 317.45L471.29266 317.45L471.29266 310.73126Q470.90204 311.09064 470.27704 311.46564Q469.66766 311.825 469.1833 311.9969L469.1833 310.98126Q470.0583 310.5594 470.71454 309.98126Q471.3864 309.3875 471.66766 308.825L472.33954 308.825L472.33954 317.45ZM479.33954 317.45L478.29266 317.45L478.29266 310.73126Q477.90204 311.09064 477.27704 311.46564Q476.66766 311.825 476.1833 311.9969L476.1833 310.98126Q477.0583 310.5594 477.71454 309.98126Q478.3864 309.3875 478.66766 308.825L479.33954 308.825L479.33954 317.45Z" fill-rule="nonzero"/><path fill="#000000" d="M512.18225 317.45L511.13535 317.45L511.13535 310.73126Q510.74472 311.09064 510.11972 311.46564Q509.51035 311.825 509.02597 311.9969L509.02597 310.98126Q509.90097 310.5594 510.55722 309.98126Q511.2291 309.3875 511.51035 308.825L512.18225 308.825L512.18225 317.45ZM520.7604 316.4344L520.7604 317.45L515.0729 317.45Q515.0729 317.075 515.1979 316.71564Q515.4166 316.1375 515.8854 315.575Q516.36975 315.0125 517.276 314.27814Q518.68225 313.1219 519.1666 312.45Q519.6666 311.77814 519.6666 311.1844Q519.6666 310.5594 519.2135 310.1375Q518.7604 309.7 518.0416 309.7Q517.276 309.7 516.8229 310.15314Q516.36975 310.60626 516.3541 311.41876L515.276 311.3094Q515.3854 310.09064 516.1041 309.46564Q516.8385 308.825 518.0729 308.825Q519.30725 308.825 520.026 309.5125Q520.74475 310.2 520.74475 311.21564Q520.74475 311.73126 520.526 312.23126Q520.3229 312.71564 519.8229 313.27814Q519.3385 313.825 518.2135 314.77814Q517.2604 315.575 516.9791 315.8719Q516.7135 316.15314 516.5416 316.4344L520.7604 316.4344Z" fill-rule="nonzero"/><path fill="#000000" d="M552.0249 317.45L550.978 317.45L550.978 310.73126Q550.5874 311.09064 549.9624 311.46564Q549.353 311.825 548.86865 311.9969L548.86865 310.98126Q549.74365 310.5594 550.3999 309.98126Q551.0718 309.3875 551.353 308.825L552.0249 308.825L552.0249 317.45ZM555.05615 315.1844L556.11865 315.04376Q556.2905 315.9344 556.728 316.34064Q557.1655 316.73126 557.7905 316.73126Q558.5405 316.73126 559.05615 316.21564Q559.5718 315.7 559.5718 314.9344Q559.5718 314.21564 559.0874 313.7469Q558.61865 313.2625 557.8843 313.2625Q557.5874 313.2625 557.1343 313.3875L557.2593 312.45Q557.36865 312.46564 557.43115 312.46564Q558.103 312.46564 558.6343 312.1219Q559.18115 311.7625 559.18115 311.02814Q559.18115 310.45 558.7905 310.075Q558.3999 309.6844 557.7749 309.6844Q557.1655 309.6844 556.74365 310.075Q556.3374 310.46564 556.228 311.23126L555.1655 311.04376Q555.353 309.9969 556.0405 309.41876Q556.728 308.825 557.74365 308.825Q558.4468 308.825 559.0405 309.1375Q559.6343 309.4344 559.9468 309.95Q560.2593 310.46564 560.2593 311.0594Q560.2593 311.60626 559.9624 312.075Q559.6655 312.52814 559.0874 312.79376Q559.8374 312.96564 560.2593 313.52814Q560.68115 314.075 560.68115 314.91876Q560.68115 316.04376 559.853 316.825Q559.0405 317.60626 557.7905 317.60626Q556.6655 317.60626 555.9155 316.9344Q555.1655 316.2469 555.05615 315.1844Z" fill-rule="nonzero"/><path fill="#f4cccc" d="M253.5 20.55C253.5 19.997715 253.94771 19.55 254.5 19.55L264.5 19.55C265.05228 19.55 265.5 19.997715 265.5 20.55L265.5 30.55C265.5 31.102285 265.05228 31.55 264.5 31.55L254.5 31.55C253.94771 31.55 253.5 31.102285 253.5 30.55Z" fill-rule="nonzero"/><path fill="#1a1a1a" d="M274.42188 29.55L274.42188 20.95625L275.57812 20.95625L280.09375 27.70625L280.09375 20.95625L281.1875 20.95625L281.1875 29.55L280.01562 29.55L275.5 22.8L275.5 29.55L274.42188 29.55ZM282.90625 26.440624Q282.90625 24.70625 283.85938 23.878124Q284.65625 23.190624 285.8125 23.190624Q287.09375 23.190624 287.90625 24.034374Q288.73438 24.8625 288.73438 26.346874Q288.73438 27.55 288.375 28.2375Q288.01562 28.925 287.3125 29.315624Q286.625 29.690624 285.8125 29.690624Q284.51562 29.690624 283.70312 28.8625Q282.90625 28.01875 282.90625 26.440624ZM283.98438 26.440624Q283.98438 27.628124 284.5 28.221874Q285.03125 28.815624 285.8125 28.815624Q286.60938 28.815624 287.125 28.221874Q287.64062 27.628124 287.64062 26.409374Q287.64062 25.253124 287.10938 24.659374Q286.59375 24.065624 285.8125 24.065624Q285.03125 24.065624 284.5 24.659374Q283.98438 25.2375 283.98438 26.440624Z" fill-rule="nonzero"/><path fill="#6aa84f" d="M305.5 20.55C305.5 19.997715 305.94772 19.55 306.5 19.55L316.5 19.55C317.05228 19.55 317.5 19.997715 317.5 20.55L317.5 30.55C317.5 31.102285 317.05228 31.55 316.5 31.55L306.5 31.55C305.94772 31.55 305.5 31.102285 305.5 30.55Z" fill-rule="nonzero"/><path fill="#1a1a1a" d="M328.84375 29.55L328.84375 25.909374L325.53125 20.95625L326.92188 20.95625L328.60938 23.55Q329.07812 24.26875 329.48438 25.003124Q329.875 24.33125 330.42188 23.4875L332.09375 20.95625L333.40625 20.95625L329.98438 25.909374L329.98438 29.55L328.84375 29.55ZM338.54688 27.55L339.64062 27.675Q339.39062 28.628124 338.6875 29.159374Q337.98438 29.690624 336.90625 29.690624Q335.54688 29.690624 334.73438 28.846874Q333.9375 28.003124 333.9375 26.4875Q333.9375 24.925 334.75 24.065624Q335.5625 23.190624 336.84375 23.190624Q338.09375 23.190624 338.875 24.034374Q339.67188 24.878124 339.67188 26.425Q339.67188 26.51875 339.67188 26.70625L335.03125 26.70625Q335.09375 27.7375 335.60938 28.284374Q336.125 28.815624 336.90625 28.815624Q337.48438 28.815624 337.89062 28.51875Q338.3125 28.20625 338.54688 27.55ZM335.09375 25.846874L338.5625 25.846874Q338.5 25.05 338.17188 24.659374Q337.65625 24.05 336.85938 24.05Q336.125 24.05 335.625 24.534374Q335.14062 25.01875 335.09375 25.846874ZM340.875 27.690624L341.90625 27.534374Q342.0 28.159374 342.39062 28.4875Q342.79688 28.815624 343.53125 28.815624Q344.25 28.815624 344.59375 28.534374Q344.95312 28.2375 344.95312 27.83125Q344.95312 27.471874 344.64062 27.26875Q344.42188 27.128124 343.5625 26.909374Q342.40625 26.6125 341.95312 26.409374Q341.51562 26.190624 341.28125 25.815624Q341.04688 25.440624 341.04688 24.971874Q341.04688 24.565624 341.23438 24.20625Q341.42188 23.846874 341.75 23.6125Q342.0 23.440624 342.42188 23.315624Q342.84375 23.190624 343.34375 23.190624Q344.0625 23.190624 344.60938 23.409374Q345.17188 23.6125 345.4375 23.971874Q345.70312 24.33125 345.79688 24.925L344.76562 25.065624Q344.70312 24.596874 344.35938 24.33125Q344.03125 24.05 343.40625 24.05Q342.6875 24.05 342.375 24.3Q342.0625 24.534374 342.0625 24.8625Q342.0625 25.065624 342.1875 25.221874Q342.32812 25.39375 342.59375 25.503124Q342.75 25.565624 343.53125 25.76875Q344.65625 26.08125 345.09375 26.26875Q345.53125 26.45625 345.78125 26.815624Q346.03125 27.175 346.03125 27.721874Q346.03125 28.253124 345.71875 28.721874Q345.42188 29.175 344.84375 29.440624Q344.26562 29.690624 343.53125 29.690624Q342.3125 29.690624 341.67188 29.190624Q341.04688 28.675 340.875 27.690624Z" fill-rule="nonzero"/></svg>