<svg version="1.1" viewBox="0.0 0.0 600.0 371.0" fill="none" stroke="none" stroke-linecap="square" stroke-miterlimit="10" width="600" height="371" xmlns:xlink="http://www.w3.org/1999/xlink" xmlns="http://www.w3.org/2000/svg"><path fill="#ffffff" d="M0 0L600.0 0L600.0 371.0L0 371.0L0 0Z" fill-rule="nonzero"/><path stroke="#333333" stroke-width="1.0" stroke-linecap="butt" d="M49.5 300.5L581.5 300.5" fill-rule="nonzero"/><path stroke="#45818e" stroke-width="1.0" stroke-linecap="butt" d="M49.5 238.5L581.5 238.5" fill-rule="nonzero"/><path stroke="#45818e" stroke-width="1.0" stroke-linecap="butt" d="M49.5 176.5L581.5 176.5" fill-rule="nonzero"/><path stroke="#45818e" stroke-width="1.0" stroke-linecap="butt" d="M49.5 114.5L581.5 114.5" fill-rule="nonzero"/><clipPath id="id_0"><path d="M49.55 51.916668L581.45 51.916668L581.45 300.45L49.55 300.45L49.55 51.916668Z" clip-rule="nonzero"/></clipPath><path stroke="#000000" stroke-width="0.0" stroke-linecap="butt" stroke-opacity="0.0" clip-path="url(#id_0)" d="M89.0 300.0L63.0 300.0L63.0 237.0L89.0 237.0Z" fill-rule="nonzero"/><path fill="#6aa84f" clip-path="url(#id_0)" d="M89.0 300.0L63.0 300.0L63.0 237.0L89.0 237.0Z" fill-rule="nonzero"/><path stroke="#000000" stroke-width="0.0" stroke-linecap="butt" stroke-opacity="0.0" clip-path="url(#id_0)" d="M129.0 300.0L103.0 300.0L103.0 255.0L129.0 255.0Z" fill-rule="nonzero"/><path fill="#6aa84f" clip-path="url(#id_0)" d="M129.0 300.0L103.0 300.0L103.0 255.0L129.0 255.0Z" fill-rule="nonzero"/><path stroke="#000000" stroke-width="0.0" stroke-linecap="butt" stroke-opacity="0.0" clip-path="url(#id_0)" d="M169.0 300.0L143.0 300.0L143.0 209.0L169.0 209.0Z" fill-rule="nonzero"/><path fill="#6aa84f" clip-path="url(#id_0)" d="M169.0 300.0L143.0 300.0L143.0 209.0L169.0 209.0Z" fill-rule="nonzero"/><path stroke="#000000" stroke-width="0.0" stroke-linecap="butt" stroke-opacity="0.0" clip-path="url(#id_0)" d="M209.0 300.0L183.0 300.0L183.0 255.0L209.0 255.0Z" fill-rule="nonzero"/><path fill="#6aa84f" clip-path="url(#id_0)" d="M209.0 300.0L183.0 300.0L183.0 255.0L209.0 255.0Z" fill-rule="nonzero"/><path stroke="#000000" stroke-width="0.0" stroke-linecap="butt" stroke-opacity="0.0" clip-path="url(#id_0)" d="M249.0 300.0L223.0 300.0L223.0 262.0L249.0 262.0Z" fill-rule="nonzero"/><path fill="#6aa84f" clip-path="url(#id_0)" d="M249.0 300.0L223.0 300.0L223.0 262.0L249.0 262.0Z" fill-rule="nonzero"/><path stroke="#000000" stroke-width="0.0" stroke-linecap="butt" stroke-opacity="0.0" clip-path="url(#id_0)" d="M289.0 300.0L263.0 300.0L263.0 258.0L289.0 258.0Z" fill-rule="nonzero"/><path fill="#6aa84f" clip-path="url(#id_0)" d="M289.0 300.0L263.0 300.0L263.0 258.0L289.0 258.0Z" fill-rule="nonzero"/><path stroke="#000000" stroke-width="0.0" stroke-linecap="butt" stroke-opacity="0.0" clip-path="url(#id_0)" d="M329.0 300.0L303.0 300.0L303.0 272.0L329.0 272.0Z" fill-rule="nonzero"/><path fill="#6aa84f" clip-path="url(#id_0)" d="M329.0 300.0L303.0 300.0L303.0 272.0L329.0 272.0Z" fill-rule="nonzero"/><path stroke="#000000" stroke-width="0.0" stroke-linecap="butt" stroke-opacity="0.0" clip-path="url(#id_0)" d="M368.0 300.0L342.0 300.0L342.0 227.0L368.0 227.0Z" fill-rule="nonzero"/><path fill="#6aa84f" clip-path="url(#id_0)" d="M368.0 300.0L342.0 300.0L342.0 227.0L368.0 227.0Z" fill-rule="nonzero"/><path stroke="#000000" stroke-width="0.0" stroke-linecap="butt" stroke-opacity="0.0" clip-path="url(#id_0)" d="M408.0 300.0L382.0 300.0L382.0 262.0L408.0 262.0Z" fill-rule="nonzero"/><path fill="#6aa84f" clip-path="url(#id_0)" d="M408.0 300.0L382.0 300.0L382.0 262.0L408.0 262.0Z" fill-rule="nonzero"/><path stroke="#000000" stroke-width="0.0" stroke-linecap="butt" stroke-opacity="0.0" clip-path="url(#id_0)" d="M448.0 300.0L422.0 300.0L422.0 227.0L448.0 227.0Z" fill-rule="nonzero"/><path fill="#6aa84f" clip-path="url(#id_0)" d="M448.0 300.0L422.0 300.0L422.0 227.0L448.0 227.0Z" fill-rule="nonzero"/><path stroke="#000000" stroke-width="0.0" stroke-linecap="butt" stroke-opacity="0.0" clip-path="url(#id_0)" d="M488.0 300.0L462.0 300.0L462.0 251.0L488.0 251.0Z" fill-rule="nonzero"/><path fill="#6aa84f" clip-path="url(#id_0)" d="M488.0 300.0L462.0 300.0L462.0 251.0L488.0 251.0Z" fill-rule="nonzero"/><path stroke="#000000" stroke-width="0.0" stroke-linecap="butt" stroke-opacity="0.0" clip-path="url(#id_0)" d="M528.0 300.0L502.0 300.0L502.0 185.0L528.0 185.0Z" fill-rule="nonzero"/><path fill="#6aa84f" clip-path="url(#id_0)" d="M528.0 300.0L502.0 300.0L502.0 185.0L528.0 185.0Z" fill-rule="nonzero"/><path stroke="#000000" stroke-width="0.0" stroke-linecap="butt" stroke-opacity="0.0" clip-path="url(#id_0)" d="M568.0 300.0L542.0 300.0L542.0 181.0L568.0 181.0Z" fill-rule="nonzero"/><path fill="#6aa84f" clip-path="url(#id_0)" d="M568.0 300.0L542.0 300.0L542.0 181.0L568.0 181.0Z" fill-rule="nonzero"/><path stroke="#000000" stroke-width="0.0" stroke-linecap="butt" stroke-opacity="0.0" clip-path="url(#id_0)" d="M89.0 237.0L63.0 237.0L63.0 206.0L89.0 206.0Z" fill-rule="nonzero"/><path fill="#fff2cc" clip-path="url(#id_0)" d="M89.0 237.0L63.0 237.0L63.0 206.0L89.0 206.0Z" fill-rule="nonzero"/><path stroke="#000000" stroke-width="0.0" stroke-linecap="butt" stroke-opacity="0.0" clip-path="url(#id_0)" d="M129.0 255.0L103.0 255.0L103.0 216.0L129.0 216.0Z" fill-rule="nonzero"/><path fill="#fff2cc" clip-path="url(#id_0)" d="M129.0 255.0L103.0 255.0L103.0 216.0L129.0 216.0Z" fill-rule="nonzero"/><path stroke="#000000" stroke-width="0.0" stroke-linecap="butt" stroke-opacity="0.0" clip-path="url(#id_0)" d="M169.0 209.0L143.0 209.0L143.0 157.0L169.0 157.0Z" fill-rule="nonzero"/><path fill="#fff2cc" clip-path="url(#id_0)" d="M169.0 209.0L143.0 209.0L143.0 157.0L169.0 157.0Z" fill-rule="nonzero"/><path stroke="#000000" stroke-width="0.0" stroke-linecap="butt" stroke-opacity="0.0" clip-path="url(#id_0)" d="M209.0 255.0L183.0 255.0L183.0 209.0L209.0 209.0Z" fill-rule="nonzero"/><path fill="#fff2cc" clip-path="url(#id_0)" d="M209.0 255.0L183.0 255.0L183.0 209.0L209.0 209.0Z" fill-rule="nonzero"/><path stroke="#000000" stroke-width="0.0" stroke-linecap="butt" stroke-opacity="0.0" clip-path="url(#id_0)" d="M249.0 262.0L223.0 262.0L223.0 213.0L249.0 213.0Z" fill-rule="nonzero"/><path fill="#fff2cc" clip-path="url(#id_0)" d="M249.0 262.0L223.0 262.0L223.0 213.0L249.0 213.0Z" fill-rule="nonzero"/><path stroke="#000000" stroke-width="0.0" stroke-linecap="butt" stroke-opacity="0.0" clip-path="url(#id_0)" d="M289.0 258.0L263.0 258.0L263.0 206.0L289.0 206.0Z" fill-rule="nonzero"/><path fill="#fff2cc" clip-path="url(#id_0)" d="M289.0 258.0L263.0 258.0L263.0 206.0L289.0 206.0Z" fill-rule="nonzero"/><path stroke="#000000" stroke-width="0.0" stroke-linecap="butt" stroke-opacity="0.0" clip-path="url(#id_0)" d="M329.0 272.0L303.0 272.0L303.0 192.0L329.0 192.0Z" fill-rule="nonzero"/><path fill="#fff2cc" clip-path="url(#id_0)" d="M329.0 272.0L303.0 272.0L303.0 192.0L329.0 192.0Z" fill-rule="nonzero"/><path stroke="#000000" stroke-width="0.0" stroke-linecap="butt" stroke-opacity="0.0" clip-path="url(#id_0)" d="M368.0 227.0L342.0 227.0L342.0 153.0L368.0 153.0Z" fill-rule="nonzero"/><path fill="#fff2cc" clip-path="url(#id_0)" d="M368.0 227.0L342.0 227.0L342.0 153.0L368.0 153.0Z" fill-rule="nonzero"/><path stroke="#000000" stroke-width="0.0" stroke-linecap="butt" stroke-opacity="0.0" clip-path="url(#id_0)" d="M408.0 262.0L382.0 262.0L382.0 202.0L408.0 202.0Z" fill-rule="nonzero"/><path fill="#fff2cc" clip-path="url(#id_0)" d="M408.0 262.0L382.0 262.0L382.0 202.0L408.0 202.0Z" fill-rule="nonzero"/><path stroke="#000000" stroke-width="0.0" stroke-linecap="butt" stroke-opacity="0.0" clip-path="url(#id_0)" d="M448.0 227.0L422.0 227.0L422.0 132.0L448.0 132.0Z" fill-rule="nonzero"/><path fill="#fff2cc" clip-path="url(#id_0)" d="M448.0 227.0L422.0 227.0L422.0 132.0L448.0 132.0Z" fill-rule="nonzero"/><path stroke="#000000" stroke-width="0.0" stroke-linecap="butt" stroke-opacity="0.0" clip-path="url(#id_0)" d="M488.0 251.0L462.0 251.0L462.0 167.0L488.0 167.0Z" fill-rule="nonzero"/><path fill="#fff2cc" clip-path="url(#id_0)" d="M488.0 251.0L462.0 251.0L462.0 167.0L488.0 167.0Z" fill-rule="nonzero"/><path stroke="#000000" stroke-width="0.0" stroke-linecap="butt" stroke-opacity="0.0" clip-path="url(#id_0)" d="M528.0 185.0L502.0 185.0L502.0 101.0L528.0 101.0Z" fill-rule="nonzero"/><path fill="#fff2cc" clip-path="url(#id_0)" d="M528.0 185.0L502.0 185.0L502.0 101.0L528.0 101.0Z" fill-rule="nonzero"/><path stroke="#000000" stroke-width="0.0" stroke-linecap="butt" stroke-opacity="0.0" clip-path="url(#id_0)" d="M568.0 181.0L542.0 181.0L542.0 132.0L568.0 132.0Z" fill-rule="nonzero"/><path fill="#fff2cc" clip-path="url(#id_0)" d="M568.0 181.0L542.0 181.0L542.0 132.0L568.0 132.0Z" fill-rule="nonzero"/><path stroke="#000000" stroke-width="0.0" stroke-linecap="butt" stroke-opacity="0.0" clip-path="url(#id_0)" d="M89.0 206.0L63.0 206.0L63.0 54.0C63.0 52.89543 63.89543 52.0 65.0 52.0L87.0 52.0C88.10457 52.0 89.0 52.89543 89.0 54.0Z" fill-rule="nonzero"/><path fill="#f4cccc" clip-path="url(#id_0)" d="M89.0 206.0L63.0 206.0L63.0 54.0C63.0 52.89543 63.89543 52.0 65.0 52.0L87.0 52.0C88.10457 52.0 89.0 52.89543 89.0 54.0Z" fill-rule="nonzero"/><path stroke="#000000" stroke-width="0.0" stroke-linecap="butt" stroke-opacity="0.0" clip-path="url(#id_0)" d="M129.0 216.0L103.0 216.0L103.0 54.0C103.0 52.89543 103.89543 52.0 105.0 52.0L127.0 52.0C128.10457 52.0 129.0 52.89543 129.0 54.0Z" fill-rule="nonzero"/><path fill="#f4cccc" clip-path="url(#id_0)" d="M129.0 216.0L103.0 216.0L103.0 54.0C103.0 52.89543 103.89543 52.0 105.0 52.0L127.0 52.0C128.10457 52.0 129.0 52.89543 129.0 54.0Z" fill-rule="nonzero"/><path stroke="#000000" stroke-width="0.0" stroke-linecap="butt" stroke-opacity="0.0" clip-path="url(#id_0)" d="M169.0 157.0L143.0 157.0L143.0 54.0C143.0 52.89543 143.89543 52.0 145.0 52.0L167.0 52.0C168.10457 52.0 169.0 52.89543 169.0 54.0Z" fill-rule="nonzero"/><path fill="#f4cccc" clip-path="url(#id_0)" d="M169.0 157.0L143.0 157.0L143.0 54.0C143.0 52.89543 143.89543 52.0 145.0 52.0L167.0 52.0C168.10457 52.0 169.0 52.89543 169.0 54.0Z" fill-rule="nonzero"/><path stroke="#000000" stroke-width="0.0" stroke-linecap="butt" stroke-opacity="0.0" clip-path="url(#id_0)" d="M209.0 209.0L183.0 209.0L183.0 54.0C183.0 52.89543 183.89543 52.0 185.0 52.0L207.0 52.0C208.10457 52.0 209.0 52.89543 209.0 54.0Z" fill-rule="nonzero"/><path fill="#f4cccc" clip-path="url(#id_0)" d="M209.0 209.0L183.0 209.0L183.0 54.0C183.0 52.89543 183.89543 52.0 185.0 52.0L207.0 52.0C208.10457 52.0 209.0 52.89543 209.0 54.0Z" fill-rule="nonzero"/><path stroke="#000000" stroke-width="0.0" stroke-linecap="butt" stroke-opacity="0.0" clip-path="url(#id_0)" d="M249.0 213.0L223.0 213.0L223.0 54.0C223.0 52.89543 223.89543 52.0 225.0 52.0L247.0 52.0C248.10457 52.0 249.0 52.89543 249.0 54.0Z" fill-rule="nonzero"/><path fill="#f4cccc" clip-path="url(#id_0)" d="M249.0 213.0L223.0 213.0L223.0 54.0C223.0 52.89543 223.89543 52.0 225.0 52.0L247.0 52.0C248.10457 52.0 249.0 52.89543 249.0 54.0Z" fill-rule="nonzero"/><path stroke="#000000" stroke-width="0.0" stroke-linecap="butt" stroke-opacity="0.0" clip-path="url(#id_0)" d="M289.0 206.0L263.0 206.0L263.0 54.0C263.0 52.89543 263.89542 52.0 265.0 52.0L287.0 52.0C288.10458 52.0 289.0 52.89543 289.0 54.0Z" fill-rule="nonzero"/><path fill="#f4cccc" clip-path="url(#id_0)" d="M289.0 206.0L263.0 206.0L263.0 54.0C263.0 52.89543 263.89542 52.0 265.0 52.0L287.0 52.0C288.10458 52.0 289.0 52.89543 289.0 54.0Z" fill-rule="nonzero"/><path stroke="#000000" stroke-width="0.0" stroke-linecap="butt" stroke-opacity="0.0" clip-path="url(#id_0)" d="M329.0 192.0L303.0 192.0L303.0 54.0C303.0 52.89543 303.89542 52.0 305.0 52.0L327.0 52.0C328.10458 52.0 329.0 52.89543 329.0 54.0Z" fill-rule="nonzero"/><path fill="#f4cccc" clip-path="url(#id_0)" d="M329.0 192.0L303.0 192.0L303.0 54.0C303.0 52.89543 303.89542 52.0 305.0 52.0L327.0 52.0C328.10458 52.0 329.0 52.89543 329.0 54.0Z" fill-rule="nonzero"/><path stroke="#000000" stroke-width="0.0" stroke-linecap="butt" stroke-opacity="0.0" clip-path="url(#id_0)" d="M368.0 153.0L342.0 153.0L342.0 54.0C342.0 52.89543 342.89542 52.0 344.0 52.0L366.0 52.0C367.10458 52.0 368.0 52.89543 368.0 54.0Z" fill-rule="nonzero"/><path fill="#f4cccc" clip-path="url(#id_0)" d="M368.0 153.0L342.0 153.0L342.0 54.0C342.0 52.89543 342.89542 52.0 344.0 52.0L366.0 52.0C367.10458 52.0 368.0 52.89543 368.0 54.0Z" fill-rule="nonzero"/><path stroke="#000000" stroke-width="0.0" stroke-linecap="butt" stroke-opacity="0.0" clip-path="url(#id_0)" d="M408.0 202.0L382.0 202.0L382.0 54.0C382.0 52.89543 382.89542 52.0 384.0 52.0L406.0 52.0C407.10458 52.0 408.0 52.89543 408.0 54.0Z" fill-rule="nonzero"/><path fill="#f4cccc" clip-path="url(#id_0)" d="M408.0 202.0L382.0 202.0L382.0 54.0C382.0 52.89543 382.89542 52.0 384.0 52.0L406.0 52.0C407.10458 52.0 408.0 52.89543 408.0 54.0Z" fill-rule="nonzero"/><path stroke="#000000" stroke-width="0.0" stroke-linecap="butt" stroke-opacity="0.0" clip-path="url(#id_0)" d="M448.0 132.0L422.0 132.0L422.0 54.0C422.0 52.89543 422.89542 52.0 424.0 52.0L446.0 52.0C447.10458 52.0 448.0 52.89543 448.0 54.0Z" fill-rule="nonzero"/><path fill="#f4cccc" clip-path="url(#id_0)" d="M448.0 132.0L422.0 132.0L422.0 54.0C422.0 52.89543 422.89542 52.0 424.0 52.0L446.0 52.0C447.10458 52.0 448.0 52.89543 448.0 54.0Z" fill-rule="nonzero"/><path stroke="#000000" stroke-width="0.0" stroke-linecap="butt" stroke-opacity="0.0" clip-path="url(#id_0)" d="M488.0 167.0L462.0 167.0L462.0 54.0C462.0 52.89543 462.89542 52.0 464.0 52.0L486.0 52.0C487.10458 52.0 488.0 52.89543 488.0 54.0Z" fill-rule="nonzero"/><path fill="#f4cccc" clip-path="url(#id_0)" d="M488.0 167.0L462.0 167.0L462.0 54.0C462.0 52.89543 462.89542 52.0 464.0 52.0L486.0 52.0C487.10458 52.0 488.0 52.89543 488.0 54.0Z" fill-rule="nonzero"/><path stroke="#000000" stroke-width="0.0" stroke-linecap="butt" stroke-opacity="0.0" clip-path="url(#id_0)" d="M528.0 101.0L502.0 101.0L502.0 54.0C502.0 52.89543 502.89542 52.0 504.0 52.0L526.0 52.0C527.10455 52.0 528.0 52.89543 528.0 54.0Z" fill-rule="nonzero"/><path fill="#f4cccc" clip-path="url(#id_0)" d="M528.0 101.0L502.0 101.0L502.0 54.0C502.0 52.89543 502.89542 52.0 504.0 52.0L526.0 52.0C527.10455 52.0 528.0 52.89543 528.0 54.0Z" fill-rule="nonzero"/><path stroke="#000000" stroke-width="0.0" stroke-linecap="butt" stroke-opacity="0.0" clip-path="url(#id_0)" d="M568.0 132.0L542.0 132.0L542.0 54.0C542.0 52.89543 542.89545 52.0 544.0 52.0L566.0 52.0C567.10455 52.0 568.0 52.89543 568.0 54.0Z" fill-rule="nonzero"/><path fill="#f4cccc" clip-path="url(#id_0)" d="M568.0 132.0L542.0 132.0L542.0 54.0C542.0 52.89543 542.89545 52.0 544.0 52.0L566.0 52.0C567.10455 52.0 568.0 52.89543 568.0 54.0Z" fill-rule="nonzero"/><path fill="#000000" d="M242.48438 349.45L242.48438 340.85626L248.28125 340.85626L248.28125 341.8719L243.625 341.8719L243.625 344.52814L247.65625 344.52814L247.65625 345.54376L243.625 345.54376L243.625 349.45L242.48438 349.45ZM248.90625 346.34064Q248.90625 344.60626 249.85938 343.77814Q250.65625 343.09064 251.8125 343.09064Q253.09375 343.09064 253.90625 343.9344Q254.73438 344.7625 254.73438 346.2469Q254.73438 347.45 254.375 348.1375Q254.01562 348.825 253.3125 349.21564Q252.625 349.59064 251.8125 349.59064Q250.51562 349.59064 249.70312 348.7625Q248.90625 347.91876 248.90625 346.34064ZM249.98438 346.34064Q249.98438 347.52814 250.5 348.1219Q251.03125 348.71564 251.8125 348.71564Q252.60938 348.71564 253.125 348.1219Q253.64062 347.52814 253.64062 346.3094Q253.64062 345.15314 253.10938 344.5594Q252.59375 343.96564 251.8125 343.96564Q251.03125 343.96564 250.5 344.5594Q249.98438 345.1375 249.98438 346.34064ZM256.28125 349.45L256.28125 343.23126L257.23438 343.23126L257.23438 344.16876Q257.59375 343.5125 257.89062 343.3094Q258.20312 343.09064 258.57812 343.09064Q259.10938 343.09064 259.65625 343.41876L259.29688 344.40314Q258.90625 344.16876 258.53125 344.16876Q258.17188 344.16876 257.89062 344.3875Q257.625 344.59064 257.51562 344.96564Q257.32812 345.52814 257.32812 346.1844L257.32812 349.45L256.28125 349.45ZM264.375 349.45L264.375 348.52814Q263.64062 349.59064 262.39062 349.59064Q261.84375 349.59064 261.35938 349.3875Q260.89062 349.16876 260.65625 348.85626Q260.42188 348.52814 260.32812 348.0594Q260.26562 347.7625 260.26562 347.075L260.26562 343.23126L261.32812 343.23126L261.32812 346.6844Q261.32812 347.4969 261.39062 347.79376Q261.48438 348.2 261.79688 348.45Q262.125 348.6844 262.60938 348.6844Q263.07812 348.6844 263.48438 348.45Q263.90625 348.2 264.07812 347.77814Q264.26562 347.35626 264.26562 346.5594L264.26562 343.23126L265.3125 343.23126L265.3125 349.45L264.375 349.45ZM267.29688 349.45L267.29688 343.23126L268.23438 343.23126L268.23438 344.10626Q268.53125 343.6375 269.01562 343.3719Q269.5 343.09064 270.125 343.09064Q270.8125 343.09064 271.25 343.3719Q271.70312 343.65314 271.875 344.16876Q272.625 343.09064 273.79688 343.09064Q274.73438 343.09064 275.21875 343.60626Q275.71875 344.10626 275.71875 345.1844L275.71875 349.45L274.67188 349.45L274.67188 345.52814Q274.67188 344.90314 274.5625 344.6219Q274.46875 344.34064 274.20312 344.16876Q273.9375 343.9969 273.5625 343.9969Q272.90625 343.9969 272.46875 344.4344Q272.04688 344.8719 272.04688 345.84064L272.04688 349.45L270.98438 349.45L270.98438 345.40314Q270.98438 344.7 270.71875 344.35626Q270.46875 343.9969 269.89062 343.9969Q269.4375 343.9969 269.0625 344.23126Q268.6875 344.46564 268.51562 344.91876Q268.34375 345.3719 268.34375 346.21564L268.34375 349.45L267.29688 349.45ZM280.42188 349.45L280.42188 340.85626L283.67188 340.85626Q284.51562 340.85626 284.96875 340.9344Q285.60938 341.04376 286.03125 341.34064Q286.46875 341.6375 286.71875 342.16876Q286.98438 342.7 286.98438 343.34064Q286.98438 344.4344 286.28125 345.2Q285.59375 345.95 283.76562 345.95L281.5625 345.95L281.5625 349.45L280.42188 349.45ZM281.5625 344.95L283.78125 344.95Q284.89062 344.95 285.34375 344.54376Q285.8125 344.1219 285.8125 343.3719Q285.8125 342.84064 285.53125 342.46564Q285.26562 342.075 284.82812 341.95Q284.53125 341.8719 283.76562 341.8719L281.5625 341.8719L281.5625 344.95ZM287.90625 346.34064Q287.90625 344.60626 288.85938 343.77814Q289.65625 343.09064 290.8125 343.09064Q292.09375 343.09064 292.90625 343.9344Q293.73438 344.7625 293.73438 346.2469Q293.73438 347.45 293.375 348.1375Q293.01562 348.825 292.3125 349.21564Q291.625 349.59064 290.8125 349.59064Q289.51562 349.59064 288.70312 348.7625Q287.90625 347.91876 287.90625 346.34064ZM288.98438 346.34064Q288.98438 347.52814 289.5 348.1219Q290.03125 348.71564 290.8125 348.71564Q291.60938 348.71564 292.125 348.1219Q292.64062 347.52814 292.64062 346.3094Q292.64062 345.15314 292.10938 344.5594Q291.59375 343.96564 290.8125 343.96564Q290.03125 343.96564 289.5 344.5594Q288.98438 345.1375 288.98438 346.34064ZM295.26562 349.45L295.26562 340.85626L296.32812 340.85626L296.32812 349.45L295.26562 349.45ZM298.26562 349.45L298.26562 340.85626L299.32812 340.85626L299.32812 349.45L298.26562 349.45ZM304.42188 349.45L304.42188 340.85626L307.39062 340.85626Q308.39062 340.85626 308.92188 340.98126Q309.65625 341.15314 310.17188 341.59064Q310.85938 342.16876 311.1875 343.075Q311.53125 343.96564 311.53125 345.10626Q311.53125 346.09064 311.29688 346.84064Q311.07812 347.59064 310.71875 348.09064Q310.35938 348.59064 309.92188 348.8719Q309.5 349.15314 308.90625 349.3094Q308.3125 349.45 307.53125 349.45L304.42188 349.45ZM305.5625 348.4344L307.39062 348.4344Q308.25 348.4344 308.73438 348.27814Q309.21875 348.1219 309.5 347.825Q309.90625 347.4344 310.125 346.7469Q310.35938 346.0594 310.35938 345.09064Q310.35938 343.7469 309.90625 343.02814Q309.46875 342.29376 308.84375 342.04376Q308.375 341.8719 307.375 341.8719L305.5625 341.8719L305.5625 348.4344ZM317.35938 348.6844Q316.76562 349.1844 316.21875 349.3875Q315.6875 349.59064 315.0625 349.59064Q314.03125 349.59064 313.48438 349.09064Q312.9375 348.59064 312.9375 347.8094Q312.9375 347.35626 313.14062 346.98126Q313.34375 346.59064 313.6875 346.3719Q314.03125 346.1375 314.45312 346.02814Q314.75 345.9344 315.39062 345.85626Q316.65625 345.71564 317.26562 345.4969Q317.26562 345.27814 317.26562 345.23126Q317.26562 344.575 316.96875 344.3094Q316.5625 343.96564 315.76562 343.96564Q315.03125 343.96564 314.67188 344.23126Q314.3125 344.48126 314.14062 345.1375L313.10938 344.9969Q313.25 344.34064 313.57812 343.9344Q313.90625 343.52814 314.51562 343.3094Q315.125 343.09064 315.92188 343.09064Q316.71875 343.09064 317.21875 343.27814Q317.71875 343.46564 317.95312 343.7469Q318.1875 344.02814 318.28125 344.46564Q318.32812 344.73126 318.32812 345.4344L318.32812 346.84064Q318.32812 348.3094 318.39062 348.7Q318.46875 349.09064 318.67188 349.45L317.5625 349.45Q317.40625 349.1219 317.35938 348.6844ZM317.26562 346.325Q316.6875 346.5594 315.54688 346.73126Q314.89062 346.825 314.625 346.95Q314.35938 347.0594 314.20312 347.27814Q314.0625 347.4969 314.0625 347.77814Q314.0625 348.2 314.375 348.48126Q314.70312 348.7625 315.3125 348.7625Q315.92188 348.7625 316.39062 348.4969Q316.875 348.23126 317.09375 347.7625Q317.26562 347.40314 317.26562 346.71564L317.26562 346.325ZM322.59375 348.5125L322.75 349.4344Q322.29688 349.52814 321.95312 349.52814Q321.375 349.52814 321.0625 349.35626Q320.75 349.16876 320.60938 348.8719Q320.48438 348.575 320.48438 347.6219L320.48438 344.04376L319.71875 344.04376L319.71875 343.23126L320.48438 343.23126L320.48438 341.6844L321.53125 341.0594L321.53125 343.23126L322.59375 343.23126L322.59375 344.04376L321.53125 344.04376L321.53125 347.6844Q321.53125 348.1375 321.57812 348.2625Q321.64062 348.3875 321.76562 348.46564Q321.89062 348.54376 322.125 348.54376Q322.3125 348.54376 322.59375 348.5125ZM327.35938 348.6844Q326.76562 349.1844 326.21875 349.3875Q325.6875 349.59064 325.0625 349.59064Q324.03125 349.59064 323.48438 349.09064Q322.9375 348.59064 322.9375 347.8094Q322.9375 347.35626 323.14062 346.98126Q323.34375 346.59064 323.6875 346.3719Q324.03125 346.1375 324.45312 346.02814Q324.75 345.9344 325.39062 345.85626Q326.65625 345.71564 327.26562 345.4969Q327.26562 345.27814 327.26562 345.23126Q327.26562 344.575 326.96875 344.3094Q326.5625 343.96564 325.76562 343.96564Q325.03125 343.96564 324.67188 344.23126Q324.3125 344.48126 324.14062 345.1375L323.10938 344.9969Q323.25 344.34064 323.57812 343.9344Q323.90625 343.52814 324.51562 343.3094Q325.125 343.09064 325.92188 343.09064Q326.71875 343.09064 327.21875 343.27814Q327.71875 343.46564 327.95312 343.7469Q328.1875 344.02814 328.28125 344.46564Q328.32812 344.73126 328.32812 345.4344L328.32812 346.84064Q328.32812 348.3094 328.39062 348.7Q328.46875 349.09064 328.67188 349.45L327.5625 349.45Q327.40625 349.1219 327.35938 348.6844ZM327.26562 346.325Q326.6875 346.5594 325.54688 346.73126Q324.89062 346.825 324.625 346.95Q324.35938 347.0594 324.20312 347.27814Q324.0625 347.4969 324.0625 347.77814Q324.0625 348.2 324.375 348.48126Q324.70312 348.7625 325.3125 348.7625Q325.92188 348.7625 326.39062 348.4969Q326.875 348.23126 327.09375 347.7625Q327.26562 347.40314 327.26562 346.71564L327.26562 346.325ZM335.875 349.45L332.54688 340.85626L333.78125 340.85626L336.01562 347.10626Q336.28125 347.85626 336.46875 348.5125Q336.67188 347.8094 336.9375 347.10626L339.25 340.85626L340.40625 340.85626L337.04688 349.45L335.875 349.45ZM341.29688 342.075L341.29688 340.85626L342.35938 340.85626L342.35938 342.075L341.29688 342.075ZM341.29688 349.45L341.29688 343.23126L342.35938 343.23126L342.35938 349.45L341.29688 349.45ZM343.875 347.59064L344.90625 347.4344Q345.0 348.0594 345.39062 348.3875Q345.79688 348.71564 346.53125 348.71564Q347.25 348.71564 347.59375 348.4344Q347.95312 348.1375 347.95312 347.73126Q347.95312 347.3719 347.64062 347.16876Q347.42188 347.02814 346.5625 346.8094Q345.40625 346.5125 344.95312 346.3094Q344.51562 346.09064 344.28125 345.71564Q344.04688 345.34064 344.04688 344.8719Q344.04688 344.46564 344.23438 344.10626Q344.42188 343.7469 344.75 343.5125Q345.0 343.34064 345.42188 343.21564Q345.84375 343.09064 346.34375 343.09064Q347.0625 343.09064 347.60938 343.3094Q348.17188 343.5125 348.4375 343.8719Q348.70312 344.23126 348.79688 344.825L347.76562 344.96564Q347.70312 344.4969 347.35938 344.23126Q347.03125 343.95 346.40625 343.95Q345.6875 343.95 345.375 344.2Q345.0625 344.4344 345.0625 344.7625Q345.0625 344.96564 345.1875 345.1219Q345.32812 345.29376 345.59375 345.40314Q345.75 345.46564 346.53125 345.66876Q347.65625 345.98126 348.09375 346.16876Q348.53125 346.35626 348.78125 346.71564Q349.03125 347.075 349.03125 347.6219Q349.03125 348.15314 348.71875 348.6219Q348.42188 349.075 347.84375 349.34064Q347.26562 349.59064 346.53125 349.59064Q345.3125 349.59064 344.67188 349.09064Q344.04688 348.575 343.875 347.59064ZM354.375 349.45L354.375 348.52814Q353.64062 349.59064 352.39062 349.59064Q351.84375 349.59064 351.35938 349.3875Q350.89062 349.16876 350.65625 348.85626Q350.42188 348.52814 350.32812 348.0594Q350.26562 347.7625 350.26562 347.075L350.26562 343.23126L351.32812 343.23126L351.32812 346.6844Q351.32812 347.4969 351.39062 347.79376Q351.48438 348.2 351.79688 348.45Q352.125 348.6844 352.60938 348.6844Q353.07812 348.6844 353.48438 348.45Q353.90625 348.2 354.07812 347.77814Q354.26562 347.35626 354.26562 346.5594L354.26562 343.23126L355.3125 343.23126L355.3125 349.45L354.375 349.45ZM361.35938 348.6844Q360.76562 349.1844 360.21875 349.3875Q359.6875 349.59064 359.0625 349.59064Q358.03125 349.59064 357.48438 349.09064Q356.9375 348.59064 356.9375 347.8094Q356.9375 347.35626 357.14062 346.98126Q357.34375 346.59064 357.6875 346.3719Q358.03125 346.1375 358.45312 346.02814Q358.75 345.9344 359.39062 345.85626Q360.65625 345.71564 361.26562 345.4969Q361.26562 345.27814 361.26562 345.23126Q361.26562 344.575 360.96875 344.3094Q360.5625 343.96564 359.76562 343.96564Q359.03125 343.96564 358.67188 344.23126Q358.3125 344.48126 358.14062 345.1375L357.10938 344.9969Q357.25 344.34064 357.57812 343.9344Q357.90625 343.52814 358.51562 343.3094Q359.125 343.09064 359.92188 343.09064Q360.71875 343.09064 361.21875 343.27814Q361.71875 343.46564 361.95312 343.7469Q362.1875 344.02814 362.28125 344.46564Q362.32812 344.73126 362.32812 345.4344L362.32812 346.84064Q362.32812 348.3094 362.39062 348.7Q362.46875 349.09064 362.67188 349.45L361.5625 349.45Q361.40625 349.1219 361.35938 348.6844ZM361.26562 346.325Q360.6875 346.5594 359.54688 346.73126Q358.89062 346.825 358.625 346.95Q358.35938 347.0594 358.20312 347.27814Q358.0625 347.4969 358.0625 347.77814Q358.0625 348.2 358.375 348.48126Q358.70312 348.7625 359.3125 348.7625Q359.92188 348.7625 360.39062 348.4969Q360.875 348.23126 361.09375 347.7625Q361.26562 347.40314 361.26562 346.71564L361.26562 346.325ZM364.26562 349.45L364.26562 340.85626L365.32812 340.85626L365.32812 349.45L364.26562 349.45ZM367.29688 342.075L367.29688 340.85626L368.35938 340.85626L368.35938 342.075L367.29688 342.075ZM367.29688 349.45L367.29688 343.23126L368.35938 343.23126L368.35938 349.45L367.29688 349.45ZM369.73438 349.45L369.73438 348.59064L373.70312 344.04376Q373.01562 344.075 372.5 344.075L369.96875 344.075L369.96875 343.23126L375.0625 343.23126L375.0625 343.91876L371.6875 347.8719L371.03125 348.59064Q371.75 348.54376 372.35938 348.54376L375.25 348.54376L375.25 349.45L369.73438 349.45ZM380.54688 347.45L381.64062 347.575Q381.39062 348.52814 380.6875 349.0594Q379.98438 349.59064 378.90625 349.59064Q377.54688 349.59064 376.73438 348.7469Q375.9375 347.90314 375.9375 346.3875Q375.9375 344.825 376.75 343.96564Q377.5625 343.09064 378.84375 343.09064Q380.09375 343.09064 380.875 343.9344Q381.67188 344.77814 381.67188 346.325Q381.67188 346.41876 381.67188 346.60626L377.03125 346.60626Q377.09375 347.6375 377.60938 348.1844Q378.125 348.71564 378.90625 348.71564Q379.48438 348.71564 379.89062 348.41876Q380.3125 348.10626 380.54688 347.45ZM377.09375 345.7469L380.5625 345.7469Q380.5 344.95 380.17188 344.5594Q379.65625 343.95 378.85938 343.95Q378.125 343.95 377.625 344.4344Q377.14062 344.91876 377.09375 345.7469ZM387.32812 349.45L387.32812 348.66876Q386.73438 349.59064 385.59375 349.59064Q384.84375 349.59064 384.21875 349.1844Q383.59375 348.7625 383.25 348.02814Q382.90625 347.29376 382.90625 346.34064Q382.90625 345.41876 383.21875 344.65314Q383.53125 343.8875 384.15625 343.4969Q384.78125 343.09064 385.54688 343.09064Q386.10938 343.09064 386.54688 343.325Q386.98438 343.5594 387.26562 343.9344L387.26562 340.85626L388.3125 340.85626L388.3125 349.45L387.32812 349.45ZM384.0 346.34064Q384.0 347.54376 384.5 348.1375Q385.0 348.71564 385.6875 348.71564Q386.375 348.71564 386.85938 348.15314Q387.34375 347.59064 387.34375 346.4344Q387.34375 345.15314 386.84375 344.5594Q386.35938 343.96564 385.64062 343.96564Q384.9375 343.96564 384.46875 344.54376Q384.0 345.10626 384.0 346.34064Z" fill-rule="nonzero"/><path fill="#000000" d="M26.05 300.21564Q26.05 298.6844 26.3625 297.7625Q26.675 296.825 27.284374 296.325Q27.909374 295.825 28.846874 295.825Q29.534374 295.825 30.05 296.10626Q30.58125 296.3875 30.925 296.91876Q31.26875 297.4344 31.45625 298.1844Q31.64375 298.9344 31.64375 300.21564Q31.64375 301.73126 31.33125 302.65314Q31.034374 303.575 30.409374 304.09064Q29.8 304.59064 28.846874 304.59064Q27.6125 304.59064 26.89375 303.7Q26.05 302.6375 26.05 300.21564ZM27.128124 300.21564Q27.128124 302.325 27.628124 303.02814Q28.128124 303.73126 28.846874 303.73126Q29.58125 303.73126 30.065624 303.02814Q30.565624 302.325 30.565624 300.21564Q30.565624 298.09064 30.065624 297.40314Q29.58125 296.7 28.83125 296.7Q28.1125 296.7 27.675 297.3094Q27.128124 298.09064 27.128124 300.21564ZM33.253124 297.91876Q33.253124 296.9969 33.70625 296.35626Q34.175 295.71564 35.05 295.71564Q35.8625 295.71564 36.39375 296.29376Q36.925 296.8719 36.925 297.98126Q36.925 299.075 36.378124 299.66876Q35.846874 300.2469 35.065624 300.2469Q34.284374 300.2469 33.76875 299.66876Q33.253124 299.09064 33.253124 297.91876ZM35.08125 296.4344Q34.690624 296.4344 34.425 296.77814Q34.175 297.1219 34.175 298.02814Q34.175 298.85626 34.425 299.2Q34.690624 299.52814 35.08125 299.52814Q35.4875 299.52814 35.7375 299.1844Q36.003124 298.84064 36.003124 297.95Q36.003124 297.10626 35.7375 296.77814Q35.471874 296.4344 35.08125 296.4344ZM35.08125 304.7625L39.784374 295.71564L40.64375 295.71564L35.95625 304.7625L35.08125 304.7625ZM38.8 302.4344Q38.8 301.5125 39.253124 300.8719Q39.721874 300.23126 40.6125 300.23126Q41.425 300.23126 41.95625 300.8094Q42.4875 301.3719 42.4875 302.4969Q42.4875 303.59064 41.940624 304.1844Q41.409374 304.7625 40.6125 304.7625Q39.846874 304.7625 39.315624 304.1844Q38.8 303.60626 38.8 302.4344ZM40.64375 300.95Q40.2375 300.95 39.971874 301.29376Q39.721874 301.6375 39.721874 302.54376Q39.721874 303.35626 39.9875 303.7Q40.253124 304.04376 40.64375 304.04376Q41.034374 304.04376 41.3 303.7Q41.565624 303.35626 41.565624 302.45Q41.565624 301.6219 41.3 301.29376Q41.034374 300.95 40.64375 300.95Z" fill-rule="nonzero"/><path fill="#000000" d="M24.596874 241.30104L24.596874 242.31667L18.909374 242.31667Q18.909374 241.94167 19.034374 241.58229Q19.253124 241.00417 19.721874 240.44167Q20.20625 239.87917 21.1125 239.14479Q22.51875 237.98854 23.003124 237.31667Q23.503124 236.64479 23.503124 236.05104Q23.503124 235.42604 23.05 235.00417Q22.596874 234.56667 21.878124 234.56667Q21.1125 234.56667 20.659374 235.01979Q20.20625 235.47292 20.190624 236.28542L19.1125 236.17604Q19.221874 234.95729 19.940624 234.33229Q20.675 233.69167 21.909374 233.69167Q23.14375 233.69167 23.8625 234.37917Q24.58125 235.06667 24.58125 236.08229Q24.58125 236.59792 24.3625 237.09792Q24.159374 237.58229 23.659374 238.14479Q23.175 238.69167 22.05 239.64479Q21.096874 240.44167 20.815624 240.73854Q20.55 241.01979 20.378124 241.30104L24.596874 241.30104ZM26.05 240.06667L27.159374 239.97292Q27.284374 240.78542 27.721874 241.19167Q28.175 241.59792 28.815624 241.59792Q29.565624 241.59792 30.096874 241.01979Q30.628124 240.44167 30.628124 239.50417Q30.628124 238.59792 30.1125 238.08229Q29.6125 237.55104 28.784374 237.55104Q28.284374 237.55104 27.8625 237.78542Q27.45625 238.01979 27.221874 238.37917L26.2375 238.25417L27.065624 233.84792L31.346874 233.84792L31.346874 234.84792L27.909374 234.84792L27.45625 237.16042Q28.221874 236.61354 29.065624 236.61354Q30.190624 236.61354 30.95625 237.39479Q31.7375 238.17604 31.7375 239.41042Q31.7375 240.56667 31.065624 241.42604Q30.2375 242.45729 28.815624 242.45729Q27.64375 242.45729 26.89375 241.80104Q26.159374 241.14479 26.05 240.06667ZM33.253124 235.78542Q33.253124 234.86354 33.70625 234.22292Q34.175 233.58229 35.05 233.58229Q35.8625 233.58229 36.39375 234.16042Q36.925 234.73854 36.925 235.84792Q36.925 236.94167 36.378124 237.53542Q35.846874 238.11354 35.065624 238.11354Q34.284374 238.11354 33.76875 237.53542Q33.253124 236.95729 33.253124 235.78542ZM35.08125 234.30104Q34.690624 234.30104 34.425 234.64479Q34.175 234.98854 34.175 235.89479Q34.175 236.72292 34.425 237.06667Q34.690624 237.39479 35.08125 237.39479Q35.4875 237.39479 35.7375 237.05104Q36.003124 236.70729 36.003124 235.81667Q36.003124 234.97292 35.7375 234.64479Q35.471874 234.30104 35.08125 234.30104ZM35.08125 242.62917L39.784374 233.58229L40.64375 233.58229L35.95625 242.62917L35.08125 242.62917ZM38.8 240.30104Q38.8 239.37917 39.253124 238.73854Q39.721874 238.09792 40.6125 238.09792Q41.425 238.09792 41.95625 238.67604Q42.4875 239.23854 42.4875 240.36354Q42.4875 241.45729 41.940624 242.05104Q41.409374 242.62917 40.6125 242.62917Q39.846874 242.62917 39.315624 242.05104Q38.8 241.47292 38.8 240.30104ZM40.64375 238.81667Q40.2375 238.81667 39.971874 239.16042Q39.721874 239.50417 39.721874 240.41042Q39.721874 241.22292 39.9875 241.56667Q40.253124 241.91042 40.64375 241.91042Q41.034374 241.91042 41.3 241.56667Q41.565624 241.22292 41.565624 240.31667Q41.565624 239.48854 41.3 239.16042Q41.034374 238.81667 40.64375 238.81667Z" fill-rule="nonzero"/><path fill="#000000" d="M19.05 177.93333L20.159374 177.83958Q20.284374 178.65208 20.721874 179.05833Q21.175 179.46458 21.815624 179.46458Q22.565624 179.46458 23.096874 178.88646Q23.628124 178.30833 23.628124 177.37083Q23.628124 176.46458 23.1125 175.94896Q22.6125 175.41771 21.784374 175.41771Q21.284374 175.41771 20.8625 175.65208Q20.45625 175.88646 20.221874 176.24583L19.2375 176.12083L20.065624 171.71458L24.346874 171.71458L24.346874 172.71458L20.909374 172.71458L20.45625 175.02708Q21.221874 174.48021 22.065624 174.48021Q23.190624 174.48021 23.95625 175.26146Q24.7375 176.04271 24.7375 177.27708Q24.7375 178.43333 24.065624 179.29271Q23.2375 180.32396 21.815624 180.32396Q20.64375 180.32396 19.89375 179.66771Q19.159374 179.01146 19.05 177.93333ZM26.05 175.94896Q26.05 174.41771 26.3625 173.49583Q26.675 172.55833 27.284374 172.05833Q27.909374 171.55833 28.846874 171.55833Q29.534374 171.55833 30.05 171.83958Q30.58125 172.12083 30.925 172.65208Q31.26875 173.16771 31.45625 173.91771Q31.64375 174.66771 31.64375 175.94896Q31.64375 177.46458 31.33125 178.38646Q31.034374 179.30833 30.409374 179.82396Q29.8 180.32396 28.846874 180.32396Q27.6125 180.32396 26.89375 179.43333Q26.05 178.37083 26.05 175.94896ZM27.128124 175.94896Q27.128124 178.05833 27.628124 178.76146Q28.128124 179.46458 28.846874 179.46458Q29.58125 179.46458 30.065624 178.76146Q30.565624 178.05833 30.565624 175.94896Q30.565624 173.82396 30.065624 173.13646Q29.58125 172.43333 28.83125 172.43333Q28.1125 172.43333 27.675 173.04271Q27.128124 173.82396 27.128124 175.94896ZM33.253124 173.65208Q33.253124 172.73021 33.70625 172.08958Q34.175 171.44896 35.05 171.44896Q35.8625 171.44896 36.39375 172.02708Q36.925 172.60521 36.925 173.71458Q36.925 174.80833 36.378124 175.40208Q35.846874 175.98021 35.065624 175.98021Q34.284374 175.98021 33.76875 175.40208Q33.253124 174.82396 33.253124 173.65208ZM35.08125 172.16771Q34.690624 172.16771 34.425 172.51146Q34.175 172.85521 34.175 173.76146Q34.175 174.58958 34.425 174.93333Q34.690624 175.26146 35.08125 175.26146Q35.4875 175.26146 35.7375 174.91771Q36.003124 174.57396 36.003124 173.68333Q36.003124 172.83958 35.7375 172.51146Q35.471874 172.16771 35.08125 172.16771ZM35.08125 180.49583L39.784374 171.44896L40.64375 171.44896L35.95625 180.49583L35.08125 180.49583ZM38.8 178.16771Q38.8 177.24583 39.253124 176.60521Q39.721874 175.96458 40.6125 175.96458Q41.425 175.96458 41.95625 176.54271Q42.4875 177.10521 42.4875 178.23021Q42.4875 179.32396 41.940624 179.91771Q41.409374 180.49583 40.6125 180.49583Q39.846874 180.49583 39.315624 179.91771Q38.8 179.33958 38.8 178.16771ZM40.64375 176.68333Q40.2375 176.68333 39.971874 177.02708Q39.721874 177.37083 39.721874 178.27708Q39.721874 179.08958 39.9875 179.43333Q40.253124 179.77708 40.64375 179.77708Q41.034374 179.77708 41.3 179.43333Q41.565624 179.08958 41.565624 178.18333Q41.565624 177.35521 41.3 177.02708Q41.034374 176.68333 40.64375 176.68333Z" fill-rule="nonzero"/><path fill="#000000" d="M19.1125 110.58125L19.1125 109.56563L24.675 109.56563L24.675 110.39375Q23.8625 111.26875 23.05 112.72188Q22.253124 114.15938 21.815624 115.69063Q21.4875 116.76875 21.409374 118.05L20.315624 118.05Q20.33125 117.03438 20.70625 115.59688Q21.096874 114.15938 21.8 112.83125Q22.51875 111.50313 23.33125 110.58125L19.1125 110.58125ZM26.05 115.8L27.159374 115.70625Q27.284374 116.51875 27.721874 116.925Q28.175 117.33125 28.815624 117.33125Q29.565624 117.33125 30.096874 116.75313Q30.628124 116.175 30.628124 115.2375Q30.628124 114.33125 30.1125 113.81563Q29.6125 113.28438 28.784374 113.28438Q28.284374 113.28438 27.8625 113.51875Q27.45625 113.75313 27.221874 114.1125L26.2375 113.9875L27.065624 109.58125L31.346874 109.58125L31.346874 110.58125L27.909374 110.58125L27.45625 112.89375Q28.221874 112.34688 29.065624 112.34688Q30.190624 112.34688 30.95625 113.12813Q31.7375 113.90938 31.7375 115.14375Q31.7375 116.3 31.065624 117.15938Q30.2375 118.19063 28.815624 118.19063Q27.64375 118.19063 26.89375 117.53438Q26.159374 116.87813 26.05 115.8ZM33.253124 111.51875Q33.253124 110.59688 33.70625 109.95625Q34.175 109.31563 35.05 109.31563Q35.8625 109.31563 36.39375 109.89375Q36.925 110.47188 36.925 111.58125Q36.925 112.675 36.378124 113.26875Q35.846874 113.84688 35.065624 113.84688Q34.284374 113.84688 33.76875 113.26875Q33.253124 112.69063 33.253124 111.51875ZM35.08125 110.03438Q34.690624 110.03438 34.425 110.37813Q34.175 110.72188 34.175 111.62813Q34.175 112.45625 34.425 112.8Q34.690624 113.12813 35.08125 113.12813Q35.4875 113.12813 35.7375 112.78438Q36.003124 112.44063 36.003124 111.55Q36.003124 110.70625 35.7375 110.37813Q35.471874 110.03438 35.08125 110.03438ZM35.08125 118.3625L39.784374 109.31563L40.64375 109.31563L35.95625 118.3625L35.08125 118.3625ZM38.8 116.03438Q38.8 115.1125 39.253124 114.47188Q39.721874 113.83125 40.6125 113.83125Q41.425 113.83125 41.95625 114.40938Q42.4875 114.97188 42.4875 116.09688Q42.4875 117.19063 41.940624 117.78438Q41.409374 118.3625 40.6125 118.3625Q39.846874 118.3625 39.315624 117.78438Q38.8 117.20625 38.8 116.03438ZM40.64375 114.55Q40.2375 114.55 39.971874 114.89375Q39.721874 115.2375 39.721874 116.14375Q39.721874 116.95625 39.9875 117.3Q40.253124 117.64375 40.64375 117.64375Q41.034374 117.64375 41.3 117.3Q41.565624 116.95625 41.565624 116.05Q41.565624 115.22188 41.3 114.89375Q41.034374 114.55 40.64375 114.55Z" fill-rule="nonzero"/><path fill="#000000" d="M77.41257 317.45L76.36569 317.45L76.36569 310.73126Q75.97507 311.09064 75.35007 311.46564Q74.74069 311.825 74.25632 311.9969L74.25632 310.98126Q75.13132 310.5594 75.78757 309.98126Q76.45944 309.3875 76.74069 308.825L77.41257 308.825L77.41257 317.45Z" fill-rule="nonzero"/><path fill="#000000" d="M118.83339 316.4344L118.83339 317.45L113.14589 317.45Q113.14589 317.075 113.27089 316.71564Q113.48964 316.1375 113.95839 315.575Q114.442764 315.0125 115.349014 314.27814Q116.755264 313.1219 117.23964 312.45Q117.73964 311.77814 117.73964 311.1844Q117.73964 310.5594 117.286514 310.1375Q116.83339 309.7 116.11464 309.7Q115.349014 309.7 114.89589 310.15314Q114.442764 310.60626 114.42714 311.41876L113.349014 311.3094Q113.45839 310.09064 114.17714 309.46564Q114.911514 308.825 116.14589 308.825Q117.380264 308.825 118.099014 309.5125Q118.817764 310.2 118.817764 311.21564Q118.817764 311.73126 118.599014 312.23126Q118.39589 312.71564 117.89589 313.27814Q117.411514 313.825 116.286514 314.77814Q115.33339 315.575 115.05214 315.8719Q114.786514 316.15314 114.61464 316.4344L118.83339 316.4344Z" fill-rule="nonzero"/><path fill="#000000" d="M153.12921 315.1844L154.19171 315.04376Q154.36359 315.9344 154.80109 316.34064Q155.23859 316.73126 155.86359 316.73126Q156.61359 316.73126 157.12921 316.21564Q157.64484 315.7 157.64484 314.9344Q157.64484 314.21564 157.16046 313.7469Q156.69171 313.2625 155.95734 313.2625Q155.66046 313.2625 155.20734 313.3875L155.33234 312.45Q155.44171 312.46564 155.50421 312.46564Q156.17609 312.46564 156.70734 312.1219Q157.25421 311.7625 157.25421 311.02814Q157.25421 310.45 156.86359 310.075Q156.47296 309.6844 155.84796 309.6844Q155.23859 309.6844 154.81671 310.075Q154.41046 310.46564 154.30109 311.23126L153.23859 311.04376Q153.42609 309.9969 154.11359 309.41876Q154.80109 308.825 155.81671 308.825Q156.51984 308.825 157.11359 309.1375Q157.70734 309.4344 158.01984 309.95Q158.33234 310.46564 158.33234 311.0594Q158.33234 311.60626 158.03546 312.075Q157.73859 312.52814 157.16046 312.79376Q157.91046 312.96564 158.33234 313.52814Q158.75421 314.075 158.75421 314.91876Q158.75421 316.04376 157.92609 316.825Q157.11359 317.60626 155.86359 317.60626Q154.73859 317.60626 153.98859 316.9344Q153.23859 316.2469 153.12921 315.1844Z" fill-rule="nonzero"/><path fill="#000000" d="M196.34691 317.45L196.34691 315.3875L192.62816 315.3875L192.62816 314.41876L196.55003 308.85626L197.40941 308.85626L197.40941 314.41876L198.56566 314.41876L198.56566 315.3875L197.40941 315.3875L197.40941 317.45L196.34691 317.45ZM196.34691 314.41876L196.34691 310.5594L193.65941 314.41876L196.34691 314.41876Z" fill-rule="nonzero"/><path fill="#000000" d="M232.8146 315.2L233.92398 315.10626Q234.04898 315.91876 234.48648 316.325Q234.9396 316.73126 235.58023 316.73126Q236.33023 316.73126 236.86148 316.15314Q237.39273 315.575 237.39273 314.6375Q237.39273 313.73126 236.8771 313.21564Q236.3771 312.6844 235.54898 312.6844Q235.04898 312.6844 234.6271 312.91876Q234.22086 313.15314 233.98648 313.5125L233.0021 313.3875L233.83023 308.98126L238.11148 308.98126L238.11148 309.98126L234.67398 309.98126L234.22086 312.29376Q234.98648 311.7469 235.83023 311.7469Q236.95523 311.7469 237.72086 312.52814Q238.5021 313.3094 238.5021 314.54376Q238.5021 315.7 237.83023 316.5594Q237.0021 317.59064 235.58023 317.59064Q234.40836 317.59064 233.65836 316.9344Q232.92398 316.27814 232.8146 315.2Z" fill-rule="nonzero"/><path fill="#000000" d="M278.12607 310.96564L277.0792 311.04376Q276.93857 310.41876 276.68857 310.1375Q276.25107 309.6844 275.62607 309.6844Q275.12607 309.6844 274.73544 309.96564Q274.25107 310.34064 273.9542 311.04376Q273.67294 311.73126 273.65732 313.0125Q274.03232 312.4344 274.5792 312.15314Q275.1417 311.8719 275.75107 311.8719Q276.79794 311.8719 277.53232 312.65314Q278.28232 313.4344 278.28232 314.65314Q278.28232 315.46564 277.92294 316.16876Q277.5792 316.85626 276.96982 317.23126Q276.36044 317.59064 275.59482 317.59064Q274.2667 317.59064 273.43857 316.6219Q272.61044 315.65314 272.61044 313.4344Q272.61044 310.9344 273.53232 309.8094Q274.3292 308.825 275.68857 308.825Q276.7042 308.825 277.34482 309.40314Q278.00107 309.96564 278.12607 310.96564ZM273.8292 314.66876Q273.8292 315.21564 274.04794 315.71564Q274.28232 316.2 274.68857 316.46564Q275.11044 316.73126 275.5792 316.73126Q276.23544 316.73126 276.71982 316.2Q277.2042 315.65314 277.2042 314.73126Q277.2042 313.84064 276.71982 313.325Q276.25107 312.8094 275.53232 312.8094Q274.81357 312.8094 274.31357 313.325Q273.8292 313.84064 273.8292 314.66876Z" fill-rule="nonzero"/><path fill="#000000" d="M312.5625 309.98126L312.5625 308.96564L318.125 308.96564L318.125 309.79376Q317.3125 310.66876 316.5 312.1219Q315.70312 313.5594 315.26562 315.09064Q314.9375 316.16876 314.85938 317.45L313.76562 317.45Q313.78125 316.4344 314.15625 314.9969Q314.54688 313.5594 315.25 312.23126Q315.96875 310.90314 316.78125 309.98126L312.5625 309.98126Z" fill-rule="nonzero"/><path fill="#000000" d="M353.96768 312.79376Q353.31143 312.54376 352.9833 312.10626Q352.6708 311.65314 352.6708 311.04376Q352.6708 310.10626 353.34268 309.46564Q354.03018 308.825 355.13956 308.825Q356.26456 308.825 356.95206 309.48126Q357.63956 310.1375 357.63956 311.075Q357.63956 311.66876 357.32706 312.10626Q357.01456 312.54376 356.37393 312.79376Q357.1708 313.04376 357.57706 313.6219Q357.9833 314.2 357.9833 314.9969Q357.9833 316.09064 357.20206 316.84064Q356.43643 317.59064 355.15518 317.59064Q353.88956 317.59064 353.1083 316.84064Q352.32706 316.09064 352.32706 314.96564Q352.32706 314.1219 352.74893 313.5594Q353.18643 312.9969 353.96768 312.79376ZM353.74893 310.9969Q353.74893 311.60626 354.13956 311.9969Q354.5458 312.3875 355.1708 312.3875Q355.78018 312.3875 356.1708 312.0125Q356.56143 311.6219 356.56143 311.0594Q356.56143 310.48126 356.15518 310.09064Q355.74893 309.6844 355.15518 309.6844Q354.5458 309.6844 354.13956 310.075Q353.74893 310.46564 353.74893 310.9969ZM353.4208 314.96564Q353.4208 315.41876 353.62393 315.84064Q353.84268 316.2625 354.26456 316.4969Q354.68643 316.73126 355.1708 316.73126Q355.9208 316.73126 356.40518 316.2469Q356.90518 315.7625 356.90518 315.0125Q356.90518 314.2469 356.40518 313.7469Q355.90518 313.2469 355.13956 313.2469Q354.38956 313.2469 353.90518 313.7469Q353.4208 314.23126 353.4208 314.96564Z" fill-rule="nonzero"/><path fill="#000000" d="M392.34164 315.46564L393.35727 315.3719Q393.48227 316.09064 393.84164 316.41876Q394.21664 316.73126 394.77914 316.73126Q395.26352 316.73126 395.6229 316.5125Q395.9979 316.27814 396.23227 315.91876Q396.46664 315.54376 396.6229 314.91876Q396.77914 314.27814 396.77914 313.6219Q396.77914 313.54376 396.77914 313.40314Q396.46664 313.90314 395.91977 314.23126Q395.3729 314.54376 394.73227 314.54376Q393.65414 314.54376 392.91977 313.77814Q392.1854 312.9969 392.1854 311.73126Q392.1854 310.41876 392.95102 309.6219Q393.73227 308.825 394.88852 308.825Q395.71664 308.825 396.40414 309.27814Q397.10727 309.73126 397.46664 310.575Q397.82602 311.40314 397.82602 312.98126Q397.82602 314.6219 397.46664 315.60626Q397.1229 316.575 396.40414 317.09064Q395.70102 317.59064 394.76352 317.59064Q393.7479 317.59064 393.10727 317.04376Q392.46664 316.48126 392.34164 315.46564ZM396.65414 311.66876Q396.65414 310.7625 396.16977 310.23126Q395.70102 309.7 395.01352 309.7Q394.3104 309.7 393.77914 310.27814Q393.26352 310.84064 393.26352 311.7625Q393.26352 312.575 393.76352 313.09064Q394.26352 313.60626 394.98227 313.60626Q395.71664 313.60626 396.1854 313.09064Q396.65414 312.575 396.65414 311.66876Z" fill-rule="nonzero"/><path fill="#000000" d="M432.49683 317.45L431.44995 317.45L431.44995 310.73126Q431.05933 311.09064 430.43433 311.46564Q429.82495 311.825 429.34058 311.9969L429.34058 310.98126Q430.21558 310.5594 430.87183 309.98126Q431.5437 309.3875 431.82495 308.825L432.49683 308.825L432.49683 317.45ZM435.52808 313.21564Q435.52808 311.6844 435.84058 310.7625Q436.15308 309.825 436.76245 309.325Q437.38745 308.825 438.32495 308.825Q439.01245 308.825 439.52808 309.10626Q440.05933 309.3875 440.40308 309.91876Q440.74683 310.4344 440.93433 311.1844Q441.12183 311.9344 441.12183 313.21564Q441.12183 314.73126 440.80933 315.65314Q440.51245 316.575 439.88745 317.09064Q439.27808 317.59064 438.32495 317.59064Q437.09058 317.59064 436.37183 316.7Q435.52808 315.6375 435.52808 313.21564ZM436.6062 313.21564Q436.6062 315.325 437.1062 316.02814Q437.6062 316.73126 438.32495 316.73126Q439.05933 316.73126 439.5437 316.02814Q440.0437 315.325 440.0437 313.21564Q440.0437 311.09064 439.5437 310.40314Q439.05933 309.7 438.30933 309.7Q437.59058 309.7 437.15308 310.3094Q436.6062 311.09064 436.6062 313.21564Z" fill-rule="nonzero"/><path fill="#000000" d="M472.33954 317.45L471.29266 317.45L471.29266 310.73126Q470.90204 311.09064 470.27704 311.46564Q469.66766 311.825 469.1833 311.9969L469.1833 310.98126Q470.0583 310.5594 470.71454 309.98126Q471.3864 309.3875 471.66766 308.825L472.33954 308.825L472.33954 317.45ZM479.33954 317.45L478.29266 317.45L478.29266 310.73126Q477.90204 311.09064 477.27704 311.46564Q476.66766 311.825 476.1833 311.9969L476.1833 310.98126Q477.0583 310.5594 477.71454 309.98126Q478.3864 309.3875 478.66766 308.825L479.33954 308.825L479.33954 317.45Z" fill-rule="nonzero"/><path fill="#000000" d="M512.18225 317.45L511.13535 317.45L511.13535 310.73126Q510.74472 311.09064 510.11972 311.46564Q509.51035 311.825 509.02597 311.9969L509.02597 310.98126Q509.90097 310.5594 510.55722 309.98126Q511.2291 309.3875 511.51035 308.825L512.18225 308.825L512.18225 317.45ZM520.7604 316.4344L520.7604 317.45L515.0729 317.45Q515.0729 317.075 515.1979 316.71564Q515.4166 316.1375 515.8854 315.575Q516.36975 315.0125 517.276 314.27814Q518.68225 313.1219 519.1666 312.45Q519.6666 311.77814 519.6666 311.1844Q519.6666 310.5594 519.2135 310.1375Q518.7604 309.7 518.0416 309.7Q517.276 309.7 516.8229 310.15314Q516.36975 310.60626 516.3541 311.41876L515.276 311.3094Q515.3854 310.09064 516.1041 309.46564Q516.8385 308.825 518.0729 308.825Q519.30725 308.825 520.026 309.5125Q520.74475 310.2 520.74475 311.21564Q520.74475 311.73126 520.526 312.23126Q520.3229 312.71564 519.8229 313.27814Q519.3385 313.825 518.2135 314.77814Q517.2604 315.575 516.9791 315.8719Q516.7135 316.15314 516.5416 316.4344L520.7604 316.4344Z" fill-rule="nonzero"/><path fill="#000000" d="M552.0249 317.45L550.978 317.45L550.978 310.73126Q550.5874 311.09064 549.9624 311.46564Q549.353 311.825 548.86865 311.9969L548.86865 310.98126Q549.74365 310.5594 550.3999 309.98126Q551.0718 309.3875 551.353 308.825L552.0249 308.825L552.0249 317.45ZM555.05615 315.1844L556.11865 315.04376Q556.2905 315.9344 556.728 316.34064Q557.1655 316.73126 557.7905 316.73126Q558.5405 316.73126 559.05615 316.21564Q559.5718 315.7 559.5718 314.9344Q559.5718 314.21564 559.0874 313.7469Q558.61865 313.2625 557.8843 313.2625Q557.5874 313.2625 557.1343 313.3875L557.2593 312.45Q557.36865 312.46564 557.43115 312.46564Q558.103 312.46564 558.6343 312.1219Q559.18115 311.7625 559.18115 311.02814Q559.18115 310.45 558.7905 310.075Q558.3999 309.6844 557.7749 309.6844Q557.1655 309.6844 556.74365 310.075Q556.3374 310.46564 556.228 311.23126L555.1655 311.04376Q555.353 309.9969 556.0405 309.41876Q556.728 308.825 557.74365 308.825Q558.4468 308.825 559.0405 309.1375Q559.6343 309.4344 559.9468 309.95Q560.2593 310.46564 560.2593 311.0594Q560.2593 311.60626 559.9624 312.075Q559.6655 312.52814 559.0874 312.79376Q559.8374 312.96564 560.2593 313.52814Q560.68115 314.075 560.68115 314.91876Q560.68115 316.04376 559.853 316.825Q559.0405 317.60626 557.7905 317.60626Q556.6655 317.60626 555.9155 316.9344Q555.1655 316.2469 555.05615 315.1844Z" fill-rule="nonzero"/><path fill="#f4cccc" d="M215.0 20.55C215.0 19.997715 215.44771 19.55 216.0 19.55L226.0 19.55C226.55229 19.55 227.0 19.997715 227.0 20.55L227.0 30.55C227.0 31.102285 226.55229 31.55 226.0 31.55L216.0 31.55C215.44771 31.55 215.0 31.102285 215.0 30.55Z" fill-rule="nonzero"/><path fill="#1a1a1a" d="M235.92188 29.55L235.92188 20.95625L237.07812 20.95625L241.59375 27.70625L241.59375 20.95625L242.6875 20.95625L242.6875 29.55L241.51562 29.55L237.0 22.8L237.0 29.55L235.92188 29.55ZM244.40625 26.440624Q244.40625 24.70625 245.35938 23.878124Q246.15625 23.190624 247.3125 23.190624Q248.59375 23.190624 249.40625 24.034374Q250.23438 24.8625 250.23438 26.346874Q250.23438 27.55 249.875 28.2375Q249.51562 28.925 248.8125 29.315624Q248.125 29.690624 247.3125 29.690624Q246.01562 29.690624 245.20312 28.8625Q244.40625 28.01875 244.40625 26.440624ZM245.48438 26.440624Q245.48438 27.628124 246.0 28.221874Q246.53125 28.815624 247.3125 28.815624Q248.10938 28.815624 248.625 28.221874Q249.14062 27.628124 249.14062 26.409374Q249.14062 25.253124 248.60938 24.659374Q248.09375 24.065624 247.3125 24.065624Q246.53125 24.065624 246.0 24.659374Q245.48438 25.2375 245.48438 26.440624Z" fill-rule="nonzero"/><path fill="#fff2cc" d="M267.0 20.55C267.0 19.997715 267.44772 19.55 268.0 19.55L278.0 19.55C278.55228 19.55 279.0 19.997715 279.0 20.55L279.0 30.55C279.0 31.102285 278.55228 31.55 278.0 31.55L268.0 31.55C267.44772 31.55 267.0 31.102285 267.0 30.55Z" fill-rule="nonzero"/><path fill="#1a1a1a" d="M286.98438 29.55L290.28125 20.95625L291.5 20.95625L295.01562 29.55L293.73438 29.55L292.71875 26.940624L289.14062 26.940624L288.1875 29.55L286.98438 29.55ZM289.46875 26.01875L292.375 26.01875L291.48438 23.64375Q291.0625 22.565624 290.875 21.8625Q290.70312 22.690624 290.40625 23.503124L289.46875 26.01875ZM296.76562 29.55L295.78125 29.55L295.78125 20.95625L296.84375 20.95625L296.84375 24.01875Q297.51562 23.190624 298.54688 23.190624Q299.125 23.190624 299.625 23.425Q300.14062 23.64375 300.46875 24.065624Q300.8125 24.4875 301.0 25.08125Q301.1875 25.675 301.1875 26.346874Q301.1875 27.940624 300.39062 28.815624Q299.59375 29.690624 298.5 29.690624Q297.39062 29.690624 296.76562 28.76875L296.76562 29.55ZM296.75 26.39375Q296.75 27.503124 297.0625 28.003124Q297.5625 28.815624 298.40625 28.815624Q299.09375 28.815624 299.59375 28.221874Q300.10938 27.628124 300.10938 26.425Q300.10938 25.20625 299.625 24.628124Q299.14062 24.05 298.45312 24.05Q297.76562 24.05 297.25 24.659374Q296.75 25.253124 296.75 26.39375ZM302.375 27.690624L303.40625 27.534374Q303.5 28.159374 303.89062 28.4875Q304.29688 28.815624 305.03125 28.815624Q305.75 28.815624 306.09375 28.534374Q306.45312 28.2375 306.45312 27.83125Q306.45312 27.471874 306.14062 27.26875Q305.92188 27.128124 305.0625 26.909374Q303.90625 26.6125 303.45312 26.409374Q303.01562 26.190624 302.78125 25.815624Q302.54688 25.440624 302.54688 24.971874Q302.54688 24.565624 302.73438 24.20625Q302.92188 23.846874 303.25 23.6125Q303.5 23.440624 303.92188 23.315624Q304.34375 23.190624 304.84375 23.190624Q305.5625 23.190624 306.10938 23.409374Q306.67188 23.6125 306.9375 23.971874Q307.20312 24.33125 307.29688 24.925L306.26562 25.065624Q306.20312 24.596874 305.85938 24.33125Q305.53125 24.05 304.90625 24.05Q304.1875 24.05 303.875 24.3Q303.5625 24.534374 303.5625 24.8625Q303.5625 25.065624 303.6875 25.221874Q303.82812 25.39375 304.09375 25.503124Q304.25 25.565624 305.03125 25.76875Q306.15625 26.08125 306.59375 26.26875Q307.03125 26.45625 307.28125 26.815624Q307.53125 27.175 307.53125 27.721874Q307.53125 28.253124 307.21875 28.721874Q306.92188 29.175 306.34375 29.440624Q305.76562 29.690624 305.03125 29.690624Q303.8125 29.690624 303.17188 29.190624Q302.54688 28.675 302.375 27.690624ZM311.09375 28.6125L311.25 29.534374Q310.79688 29.628124 310.45312 29.628124Q309.875 29.628124 309.5625 29.45625Q309.25 29.26875 309.10938 28.971874Q308.98438 28.675 308.98438 27.721874L308.98438 24.14375L308.21875 24.14375L308.21875 23.33125L308.98438 23.33125L308.98438 21.784374L310.03125 21.159374L310.03125 23.33125L311.09375 23.33125L311.09375 24.14375L310.03125 24.14375L310.03125 27.784374Q310.03125 28.2375 310.07812 28.3625Q310.14062 28.4875 310.26562 28.565624Q310.39062 28.64375 310.625 28.64375Q310.8125 28.64375 311.09375 28.6125ZM315.85938 28.784374Q315.26562 29.284374 314.71875 29.4875Q314.1875 29.690624 313.5625 29.690624Q312.53125 29.690624 311.98438 29.190624Q311.4375 28.690624 311.4375 27.909374Q311.4375 27.45625 311.64062 27.08125Q311.84375 26.690624 312.1875 26.471874Q312.53125 26.2375 312.95312 26.128124Q313.25 26.034374 313.89062 25.95625Q315.15625 25.815624 315.76562 25.596874Q315.76562 25.378124 315.76562 25.33125Q315.76562 24.675 315.46875 24.409374Q315.0625 24.065624 314.26562 24.065624Q313.53125 24.065624 313.17188 24.33125Q312.8125 24.58125 312.64062 25.2375L311.60938 25.096874Q311.75 24.440624 312.07812 24.034374Q312.40625 23.628124 313.01562 23.409374Q313.625 23.190624 314.42188 23.190624Q315.21875 23.190624 315.71875 23.378124Q316.21875 23.565624 316.45312 23.846874Q316.6875 24.128124 316.78125 24.565624Q316.82812 24.83125 316.82812 25.534374L316.82812 26.940624Q316.82812 28.409374 316.89062 28.8Q316.96875 29.190624 317.17188 29.55L316.0625 29.55Q315.90625 29.221874 315.85938 28.784374ZM315.76562 26.425Q315.1875 26.659374 314.04688 26.83125Q313.39062 26.925 313.125 27.05Q312.85938 27.159374 312.70312 27.378124Q312.5625 27.596874 312.5625 27.878124Q312.5625 28.3 312.875 28.58125Q313.20312 28.8625 313.8125 28.8625Q314.42188 28.8625 314.89062 28.596874Q315.375 28.33125 315.59375 27.8625Q315.76562 27.503124 315.76562 26.815624L315.76562 26.425ZM318.79688 22.175L318.79688 20.95625L319.85938 20.95625L319.85938 22.175L318.79688 22.175ZM318.79688 29.55L318.79688 23.33125L319.85938 23.33125L319.85938 29.55L318.79688 29.55ZM321.79688 29.55L321.79688 23.33125L322.73438 23.33125L322.73438 24.20625Q323.42188 23.190624 324.71875 23.190624Q325.28125 23.190624 325.75 23.39375Q326.23438 23.596874 326.46875 23.925Q326.70312 24.253124 326.79688 24.690624Q326.84375 24.9875 326.84375 25.721874L326.84375 29.55L325.79688 29.55L325.79688 25.76875Q325.79688 25.1125 325.67188 24.8Q325.54688 24.4875 325.23438 24.3Q324.92188 24.096874 324.5 24.096874Q323.82812 24.096874 323.32812 24.534374Q322.84375 24.95625 322.84375 26.14375L322.84375 29.55L321.79688 29.55Z" fill-rule="nonzero"/><path fill="#6aa84f" d="M344.0 20.55C344.0 19.997715 344.44772 19.55 345.0 19.55L355.0 19.55C355.55228 19.55 356.0 19.997715 356.0 20.55L356.0 30.55C356.0 31.102285 355.55228 31.55 355.0 31.55L345.0 31.55C344.44772 31.55 344.0 31.102285 344.0 30.55Z" fill-rule="nonzero"/><path fill="#1a1a1a" d="M367.34375 29.55L367.34375 25.909374L364.03125 20.95625L365.42188 20.95625L367.10938 23.55Q367.57812 24.26875 367.98438 25.003124Q368.375 24.33125 368.92188 23.4875L370.59375 20.95625L371.90625 20.95625L368.48438 25.909374L368.48438 29.55L367.34375 29.55ZM377.04688 27.55L378.14062 27.675Q377.89062 28.628124 377.1875 29.159374Q376.48438 29.690624 375.40625 29.690624Q374.04688 29.690624 373.23438 28.846874Q372.4375 28.003124 372.4375 26.4875Q372.4375 24.925 373.25 24.065624Q374.0625 23.190624 375.34375 23.190624Q376.59375 23.190624 377.375 24.034374Q378.17188 24.878124 378.17188 26.425Q378.17188 26.51875 378.17188 26.70625L373.53125 26.70625Q373.59375 27.7375 374.10938 28.284374Q374.625 28.815624 375.40625 28.815624Q375.98438 28.815624 376.39062 28.51875Q376.8125 28.20625 377.04688 27.55ZM373.59375 25.846874L377.0625 25.846874Q377.0 25.05 376.67188 24.659374Q376.15625 24.05 375.35938 24.05Q374.625 24.05 374.125 24.534374Q373.64062 25.01875 373.59375 25.846874ZM379.375 27.690624L380.40625 27.534374Q380.5 28.159374 380.89062 28.4875Q381.29688 28.815624 382.03125 28.815624Q382.75 28.815624 383.09375 28.534374Q383.45312 28.2375 383.45312 27.83125Q383.45312 27.471874 383.14062 27.26875Q382.92188 27.128124 382.0625 26.909374Q380.90625 26.6125 380.45312 26.409374Q380.01562 26.190624 379.78125 25.815624Q379.54688 25.440624 379.54688 24.971874Q379.54688 24.565624 379.73438 24.20625Q379.92188 23.846874 380.25 23.6125Q380.5 23.440624 380.92188 23.315624Q381.34375 23.190624 381.84375 23.190624Q382.5625 23.190624 383.10938 23.409374Q383.67188 23.6125 383.9375 23.971874Q384.20312 24.33125 384.29688 24.925L383.26562 25.065624Q383.20312 24.596874 382.85938 24.33125Q382.53125 24.05 381.90625 24.05Q381.1875 24.05 380.875 24.3Q380.5625 24.534374 380.5625 24.8625Q380.5625 25.065624 380.6875 25.221874Q380.82812 25.39375 381.09375 25.503124Q381.25 25.565624 382.03125 25.76875Q383.15625 26.08125 383.59375 26.26875Q384.03125 26.45625 384.28125 26.815624Q384.53125 27.175 384.53125 27.721874Q384.53125 28.253124 384.21875 28.721874Q383.92188 29.175 383.34375 29.440624Q382.76562 29.690624 382.03125 29.690624Q380.8125 29.690624 380.17188 29.190624Q379.54688 28.675 379.375 27.690624Z" fill-rule="nonzero"/></svg>