<?xml version="1.0" encoding="utf-8"?>
<!-- Generator: Adobe Illustrator 22.1.0, SVG Export Plug-In . SVG Version: 6.00 Build 0)  -->
<svg version="1.1" id="Layer_1" xmlns="http://www.w3.org/2000/svg" xmlns:xlink="http://www.w3.org/1999/xlink" x="0px" y="0px"
	 viewBox="0 0 886.1 886.1" style="enable-background:new 0 0 886.1 886.1;" xml:space="preserve">
<style type="text/css">
	.st0{fill:url(#SVGID_1_);stroke:#000000;stroke-width:31.891;stroke-miterlimit:10;}
	.st1{fill:url(#SVGID_2_);stroke:#000000;stroke-width:27.3352;stroke-miterlimit:10;}
</style>
<g>
	<linearGradient id="SVGID_1_" gradientUnits="userSpaceOnUse" x1="171.6778" y1="761.0195" x2="719.8997" y2="118.6431">
		<stop  offset="0" style="stop-color:#FCD259"/>
		<stop  offset="1" style="stop-color:#CE8829"/>
	</linearGradient>
	<circle class="st0" cx="443" cy="443" r="427.1"/>
	<g>
		<rect x="413.4" y="131.3" width="59.2" height="11.4"/>
		<path d="M512.2,109.4h-10.3H391.8h-17.9c-15.3,0-27.7,12.4-27.7,27.7c0,15.3,12.4,27.7,27.7,27.7c15.3,0,27.7-12.4,27.7-27.7
			c0-5.1-1.5-9.9-3.9-14h90.7c-2.4,4.1-3.9,8.9-3.9,14c0,15.3,12.4,27.7,27.7,27.7s27.7-12.4,27.7-27.7
			C539.8,121.7,527.4,109.4,512.2,109.4z"/>
		<rect x="406.6" y="151.6" width="72.9" height="11.4"/>
		<rect x="379.3" y="171.8" width="127.6" height="11.4"/>
		<g>
			<rect x="405.8" y="192.1" width="31.9" height="564.1"/>
			<rect x="448.4" y="192.1" width="31.9" height="564.1"/>
			<rect x="490.9" y="192.1" width="15.9" height="564.1"/>
			<rect x="379.3" y="192.1" width="15.9" height="564.1"/>
		</g>
		<polygon points="524.3,780.5 524.3,766.1 361.8,766.1 361.8,780.5 347.7,780.5 347.7,795 361.8,795 524.3,795 538.4,795 
			538.4,780.5 		"/>
	</g>
	<linearGradient id="SVGID_2_" gradientUnits="userSpaceOnUse" x1="625.6193" y1="230.1922" x2="267.2249" y2="705.5203">
		<stop  offset="0" style="stop-color:#FCD259"/>
		<stop  offset="1" style="stop-color:#CE8829"/>
	</linearGradient>
	<polygon class="st1" points="393.4,613.9 621,312.4 621,221.7 270.3,221.7 270.3,312.4 484.1,312.4 256.5,613.9 256.5,704.6 
		629.6,704.6 629.6,613.9 	"/>
</g>
</svg>
