<?xml version="1.0" encoding="utf-8"?>
<!-- Generator: Adobe Illustrator 24.0.3, SVG Export Plug-In . SVG Version: 6.00 Build 0)  -->
<svg version="1.1" id="Layer_1" xmlns="http://www.w3.org/2000/svg" xmlns:xlink="http://www.w3.org/1999/xlink" x="0px" y="0px"
	 viewBox="0 0 1872.51 379.91" style="enable-background:new 0 0 1872.51 379.91;" xml:space="preserve">
<style type="text/css">
	.st0{fill:#CF8A00;}
	.st1{fill:#010101;}
	.st2{fill:#2D2A26;}
	.st3{fill:#3A3A3A;}
</style>
<g>
	<g>
		<g>
			<path class="st0" d="M872.46,307.82V182.15h83.48v22.08h-55.65v30.88h48.29v22.08h-48.29v50.63H872.46z"/>
			<path class="st0" d="M1014.45,213.75c26.93,0,50.63,19.39,50.63,47.93c0,28.73-23.7,48.11-50.63,48.11
				c-26.75,0-50.63-19.21-50.63-48.11C963.83,232.96,987.7,213.75,1014.45,213.75z M1014.45,286.82c13.28,0,24.59-10.77,24.59-25.13
				c0-14.18-11.31-24.95-24.59-24.95c-13.1,0-24.59,10.59-24.59,24.95C989.86,276.22,1001.35,286.82,1014.45,286.82z"/>
			<path class="st0" d="M1169.37,307.82h-26.75v-12.57c-7.72,10.77-17.42,14.54-28.55,14.54c-25.85,0-32.85-20.65-32.85-43.98
				v-50.09h26.75v49.55c0,12.75,4.67,22.44,17.06,22.44s17.59-9.87,17.59-22.62v-49.37h26.75V307.82z"/>
			<path class="st0" d="M1192.53,215.72h26.75v12.57c7.72-10.77,17.41-14.54,28.54-14.54c25.85,0,32.85,20.65,32.85,43.99v50.09
				h-26.75v-49.55c0-12.75-4.67-22.44-17.06-22.44s-17.59,9.87-17.59,22.62v49.37h-26.75V215.72z"/>
			<path class="st0" d="M1397.71,178.02v129.79h-26.75v-13.46c-6.64,9.51-15.44,15.44-28.91,15.44c-28,0-44.88-21.54-44.88-48.47
				c0-25.85,15.62-47.58,44.34-47.58c12.39,0,23.16,6.11,29.44,14.54v-50.27H1397.71z M1347.62,288.07
				c13.1,0,24.06-8.44,24.06-25.13c0-17.06-10.23-27.47-24.77-27.47c-14.72,0-22.98,11.85-22.98,26.03
				C1323.93,276.22,1332.9,288.07,1347.62,288.07z"/>
			<path class="st0" d="M1516.01,215.72v92.1h-26.75v-13.46c-6.64,9.51-15.44,15.44-28.91,15.44c-28,0-44.88-21.54-44.88-48.47
				c0-25.85,15.62-47.58,44.34-47.58c12.39,0,23.16,6.11,29.44,14.54v-12.57H1516.01z M1465.92,288.07
				c13.1,0,24.06-8.44,24.06-25.13c0-17.06-10.23-27.47-24.77-27.47c-14.72,0-22.98,11.85-22.98,26.03
				C1442.23,276.22,1451.2,288.07,1465.92,288.07z"/>
			<path class="st0" d="M1572.01,215.72h25.49v21h-25.49v43.09c0,3.95,1.62,8.08,6.82,8.08s7-4.31,7-8.62c0-2.69-0.72-6.46-1.26-7.9
				h21.18c1.62,3.41,2.16,7.72,2.16,10.95c0,13.64-8.98,27.47-30.7,27.47c-16.16,0-31.96-5.75-31.96-32.49v-40.58h-13.82v-21h15.8
				l4.13-22.62h20.65V215.72z"/>
			<path class="st0" d="M1635.19,176.05c9.51,0,17.06,6.28,17.06,15.26c0,8.8-7.54,14.9-17.06,14.9c-9.69,0-16.88-6.1-16.88-14.9
				C1618.32,182.33,1625.5,176.05,1635.19,176.05z M1621.55,307.82v-92.1h26.75v92.1H1621.55z"/>
			<path class="st0" d="M1716.51,213.75c26.93,0,50.63,19.39,50.63,47.93c0,28.73-23.7,48.11-50.63,48.11
				c-26.75,0-50.63-19.21-50.63-48.11C1665.89,232.96,1689.76,213.75,1716.51,213.75z M1716.51,286.82
				c13.28,0,24.59-10.77,24.59-25.13c0-14.18-11.31-24.95-24.59-24.95c-13.1,0-24.59,10.59-24.59,24.95
				C1691.92,276.22,1703.41,286.82,1716.51,286.82z"/>
			<path class="st0" d="M1784.36,215.72h26.75v12.57c7.72-10.77,17.41-14.54,28.54-14.54c25.85,0,32.85,20.65,32.85,43.99v50.09
				h-26.75v-49.55c0-12.75-4.67-22.44-17.06-22.44c-12.39,0-17.59,9.87-17.59,22.62v49.37h-26.75V215.72z"/>
		</g>
		<g>
			<path class="st1" d="M109.87,307.82H0v-17.95l68.04-85.63H5.21v-22.08h100.17v18.13L36.8,285.74h73.07V307.82z"/>
			<path class="st1" d="M171.26,213.75c9.51,0,21.9,1.97,37.7,13.64l-12.21,19.57c-8.97-8.08-19.57-9.16-24.23-9.16
				c-15.62,0-26.03,9.87-26.03,23.88c0,14,10.41,23.88,26.03,23.88c4.67,0,15.26-1.08,24.23-9.16l12.21,19.57
				c-15.8,11.67-28.19,13.64-37.7,13.64c-31.6,0-51.52-20.64-51.52-47.93C119.73,234.39,139.66,213.75,171.26,213.75z"/>
			<path class="st1" d="M318.46,215.72v92.1h-26.75v-13.46c-6.64,9.52-15.44,15.44-28.91,15.44c-28,0-44.88-21.54-44.88-48.47
				c0-25.85,15.62-47.57,44.34-47.57c12.39,0,23.16,6.1,29.44,14.54v-12.57H318.46z M268.37,288.07c13.1,0,24.06-8.44,24.06-25.13
				c0-17.06-10.23-27.47-24.77-27.47c-14.72,0-22.98,11.85-22.98,26.03C244.68,276.22,253.65,288.07,268.37,288.07z"/>
			<path class="st1" d="M353.63,275.33c2.69,10.59,12.03,13.82,19.39,13.82c5.93,0,12.03-2.33,12.03-7c0-3.05-1.8-5.21-6.82-7
				l-16.15-6.82c-21.9-7.72-22.98-22.26-22.98-26.39c0-18.49,16.33-28.18,36.08-28.18c10.59,0,24.59,2.87,33.21,19.39l-20.64,9.51
				c-2.34-7.36-8.98-8.8-13.11-8.8c-5.03,0-10.23,2.87-10.23,7.54c0,3.95,3.95,6.1,8.62,7.9l13.83,5.39
				c21.72,6.28,23.7,20.47,23.7,26.57c0,18.85-17.42,28.55-37.7,28.55c-13.64,0-32.31-4.31-38.6-23.52L353.63,275.33z"/>
			<path class="st1" d="M427.95,178.02h26.75v50.27c7.72-10.77,17.41-14.54,28.54-14.54c25.85,0,32.85,20.64,32.85,43.98v50.09
				h-26.75v-49.55c0-12.75-4.67-22.44-17.05-22.44c-12.39,0-17.59,9.87-17.59,22.62v49.37h-26.75V178.02z"/>
		</g>
	</g>
	<g>
		<g>
			<path class="st2" d="M607.15,121.66c4.2-2.41,8.52-5.12,12.7-7.74c5.54-3.47,11.28-7.05,17.43-10.44l0.12-15.3
				c0.12-14.63,5.67-28.3,15.63-38.49c9.78-10.01,22.72-15.39,36.28-15.33c28.39,0.25,51.29,24.81,51.05,54.75l-0.12,14.4
				c5.65,3.27,11.51,6.83,17.75,10.8c5.99,3.82,11.34,7.1,16.44,9.68l0.28-34.61c0.4-48.87-37.78-88.97-85.1-89.38
				c-23.19-0.29-44.78,8.91-61.15,25.68c-16.19,16.58-25.22,38.67-25.41,62.22l-0.29,35.52l1.2,0.01
				C605,122.87,606.06,122.28,607.15,121.66z"/>
			<g>
				<g>
					<path class="st2" d="M790.66,149.05c-14.14-1.15-26.1-7.59-39.68-16.11v21.42c11.91,6.76,23.89,11.81,37.96,12.89
						c0.15,0.13,0.72,1.05,0.61,2.8c-0.4,6.38-0.84,12.08-1.33,17.45c-2.89,31.07-8.89,57.71-18.34,81.42
						c-5.15,12.93-11.5,24.93-18.9,35.97v30.19c14.99-17.12,27.08-37.04,35.97-59.36c10.11-25.37,16.51-53.68,19.56-86.53
						c0.52-5.55,0.97-11.43,1.38-18C808.63,159.44,801.22,149.91,790.66,149.05z"/>
					<path class="st3" d="M732.6,327.99c-0.21,0.22-0.4,0.46-0.61,0.67l0.61,0.59V327.99z"/>
				</g>
				<path class="st0" d="M732.6,329.25l-0.61-0.59c-11.44,11.96-24.86,22.53-39.89,31.42c-3.33,1.97-4.1,1.52-4.99,1
					c-15.94-9.34-29-19.33-39.94-30.54c-22.26-22.8-37.79-50.53-47.49-84.75c-6.29-22.21-10.03-46.26-11.77-75.69
					c-0.18-2.98,1.03-3.07,2.3-3.16c14.14-1,26-6.84,35.75-12.42c4.79-2.74,9.47-5.67,14-8.51c5.71-3.58,11.11-6.96,16.73-10.01
					c7.56-4.1,15.6-7.88,23.38-11.55c2.95-1.39,5.89-2.78,8.83-4.19c13.4,5.34,27.13,12.52,43.7,22.82v-21.49
					c-13.99-8.22-26.27-14.27-38.49-19.03l-0.49-0.19c-3.43-1.76-7.17-1.57-11.15,0.59c-3.4,1.64-6.81,3.25-10.23,4.86
					c-8.01,3.77-16.29,7.67-24.31,12.02c-6.13,3.32-12.03,7.02-17.73,10.59c-4.37,2.74-8.9,5.57-13.37,8.13
					c-8.34,4.78-17.49,9.3-27.91,10.03c-12.13,0.86-20.09,10.14-19.35,22.57c1.82,30.79,5.77,56.09,12.43,79.61
					c10.55,37.25,27.57,67.53,52.02,92.58c12.1,12.4,26.42,23.37,43.79,33.56c3.38,1.98,6.9,2.97,10.53,2.97
					c4.23,0,8.61-1.33,13.12-4c11.24-6.65,21.64-14.19,31.14-22.48V329.25z"/>
			</g>
		</g>
		<g>
			<g>
				<path class="st2" d="M702.7,278.13h-75.94v-12.41l47.03-59.19h-43.43v-15.26h69.24v12.53l-47.4,59.07h50.5V278.13z"/>
			</g>
			<g>
				<path class="st0" d="M699.49,278.13v-86.86h57.7v15.26h-38.47v21.34h33.38v15.26h-33.38v34.99H699.49z"/>
			</g>
		</g>
	</g>
</g>
</svg>
